<svg xmlns="http://www.w3.org/2000/svg" viewBox="0 0 612 792">
  <defs>
    <clipPath id="a">
      <path fill="none" d="M496.55 23h87v19h-87z"/>
    </clipPath>
    <clipPath id="c">
      <path fill="none" d="M468.72 434.24a91.81 91.81 0 0 1-67.97 110.63 91.83 91.83 0 0 1-42.66-178.61 91.81 91.81 0 0 1 110.63 67.97Z"/>
    </clipPath>
    <radialGradient id="b" cx="-760.53" cy="946.57" r="1.46" fx="-760.53" fy="946.57" gradientTransform="matrix(63.2 0 0 -62.65 48441.07 59755.52)" gradientUnits="userSpaceOnUse">
      <stop offset="0" stop-color="#5ea0ef"/>
      <stop offset=".18" stop-color="#5ea0ef"/>
      <stop offset="1" stop-color="#0078d4"/>
    </radialGradient>
  </defs>
  <path d="M0 .5h612v792H0z"/>
  <path fill="#f2c816" d="M0 754.5h612v38.05H0z"/>
  <path fill="#594539" d="m519.89 770.19-4.53 12.6h-2.34l-4.45-12.6h2.29l3.11 9.56c.1.3.18.66.23 1.06h.04c.04-.33.13-.69.25-1.08l3.18-9.54h2.21Zm7.91 8.65h-6.13c.02.83.28 1.47.77 1.92.49.45 1.16.68 2.02.68a4.5 4.5 0 0 0 2.65-.86v1.64c-.82.52-1.9.77-3.25.77s-2.36-.41-3.12-1.23a4.93 4.93 0 0 1-1.13-3.45c0-1.4.41-2.54 1.24-3.42.83-.88 1.86-1.32 3.09-1.32s2.18.4 2.86 1.19 1.01 1.89 1.01 3.3v.78Zm-1.97-1.44c0-.73-.18-1.3-.52-1.71-.34-.41-.81-.61-1.41-.61s-1.08.21-1.49.64a2.9 2.9 0 0 0-.75 1.68h4.17Zm9.14-1.67c-.25-.19-.6-.29-1.06-.29-.6 0-1.11.27-1.51.82s-.61 1.29-.61 2.22v4.31h-2.04v-9h2.04v1.85h.04c.2-.63.5-1.13.92-1.48.41-.35.87-.53 1.38-.53.37 0 .65.06.84.17v1.93Zm.99 6.78v-1.89c.76.58 1.6.87 2.52.87 1.23 0 1.85-.36 1.85-1.09a.8.8 0 0 0-.16-.52 1.6 1.6 0 0 0-.43-.38 3.7 3.7 0 0 0-.63-.3l-.81-.3a8.5 8.5 0 0 1-1-.47c-.3-.16-.54-.35-.74-.56-.2-.21-.34-.44-.44-.71s-.15-.57-.15-.92c0-.43.1-.82.31-1.15.21-.33.48-.61.83-.83s.74-.4 1.18-.51a6.2 6.2 0 0 1 3.59.21v1.78a3.78 3.78 0 0 0-2.88-.57c-.21.05-.38.13-.53.22s-.26.21-.34.34a.83.83 0 0 0-.12.44c0 .19.04.36.12.49s.2.25.36.36c.16.1.35.2.58.28l.78.28c.39.16.73.32 1.04.48.31.16.57.35.79.56a2.22 2.22 0 0 1 .68 1.69c0 .46-.11.86-.32 1.2s-.49.62-.84.84-.76.39-1.22.5c-.46.11-.95.16-1.46.16-.98 0-1.84-.16-2.56-.49Zm9.35-10.61c-.33 0-.62-.11-.86-.33-.24-.22-.36-.49-.36-.83s.12-.61.36-.83c.24-.22.52-.33.86-.33s.64.11.88.33.36.5.36.83c0 .32-.12.59-.36.81-.24.23-.53.34-.88.34Zm1.01 10.89h-2.04v-9h2.04v9Zm6.66.21c-1.39 0-2.5-.42-3.33-1.26a4.55 4.55 0 0 1-1.24-3.34c0-1.51.43-2.69 1.3-3.54s2.03-1.27 3.49-1.27 2.5.41 3.29 1.24 1.18 1.97 1.18 3.44-.42 2.59-1.27 3.45a4.56 4.56 0 0 1-3.42 1.3Zm.1-7.8c-.8 0-1.43.28-1.89.83s-.69 1.32-.69 2.3.23 1.69.7 2.23 1.1.81 1.88.81 1.42-.27 1.85-.8c.43-.53.65-1.29.65-2.28s-.21-1.75-.65-2.29a2.23 2.23 0 0 0-1.85-.81Zm14.67 7.59h-2.04v-5.07c0-1.68-.59-2.52-1.78-2.52-.62 0-1.13.23-1.54.7a2.6 2.6 0 0 0-.61 1.76v5.13h-2.05v-9h2.05v1.49h.04a3.2 3.2 0 0 1 2.92-1.71c.98 0 1.73.32 2.24.95.52.64.77 1.55.77 2.76v5.5Zm11.51-12.88v12.88h-2.04V772.4c-.37.26-.77.49-1.19.67-.43.19-.91.35-1.46.49v-1.74a18.5 18.5 0 0 0 1.92-.76 14.65 14.65 0 0 0 1.9-1.15h.86Zm4.01 13.07c-.35 0-.65-.12-.9-.35-.25-.23-.37-.51-.37-.83s.12-.61.37-.84.54-.35.9-.35.66.12.91.35.37.52.37.84-.12.6-.37.83a1.3 1.3 0 0 1-.91.35Zm7.03.02a3.52 3.52 0 0 1-3.07-1.61c-.74-1.07-1.1-2.62-1.1-4.65 0-2.23.38-3.91 1.15-5.05s1.88-1.71 3.32-1.71c2.77 0 4.16 2.15 4.16 6.46 0 2.13-.39 3.76-1.17 4.88a3.78 3.78 0 0 1-3.28 1.68Zm.2-11.4c-1.53 0-2.29 1.68-2.29 5.05 0 3.15.75 4.73 2.25 4.73s2.21-1.6 2.21-4.81-.72-4.97-2.17-4.97Z"/>
  <g clip-path="url(#a)">
    <path fill="#fff" d="M532.72 26.8v11.4h-1.93v-8.94h-.03l-3.45 8.94h-1.28l-3.54-8.94h-.02v8.94h-1.78V26.8h2.77l3.2 8.45h.05l3.38-8.45h2.63Zm1.61.87c0-.32.11-.58.34-.8.22-.21.49-.32.8-.32.33 0 .6.11.82.33s.33.48.33.79-.11.58-.33.79c-.22.21-.49.32-.81.32a1.13 1.13 0 0 1-1.15-1.11Zm2.08 2.36v8.17h-1.88v-8.17h1.88Zm5.69 6.77c.28 0 .59-.07.92-.2.34-.13.65-.31.93-.53v1.79c-.3.17-.64.31-1.02.4s-.8.13-1.26.13a3.78 3.78 0 0 1-2.86-1.14 4 4 0 0 1-1.1-2.91c0-1.31.38-2.4 1.13-3.25s1.81-1.27 3.19-1.27a4.43 4.43 0 0 1 1.93.46v1.84a3.3 3.3 0 0 0-.89-.5c-.3-.12-.61-.18-.93-.18-.74 0-1.34.25-1.79.74-.46.49-.68 1.16-.68 1.99s.22 1.47.66 1.93c.43.47 1.02.7 1.77.7Zm7.21-6.91c.15 0 .28.01.41.03.12.02.22.05.3.08v1.95a2.01 2.01 0 0 0-1.12-.31c-.46 0-.85.2-1.17.6-.32.4-.48 1.01-.48 1.84v4.13h-1.88v-8.17h1.88v1.29h.03c.17-.45.43-.79.78-1.05a2 2 0 0 1 1.25-.39Zm.8 4.34c0-1.35.37-2.42 1.12-3.21s1.78-1.18 3.1-1.18c1.25 0 2.22.38 2.92 1.14s1.05 1.79 1.05 3.08-.37 2.38-1.12 3.16c-.74.78-1.76 1.18-3.04 1.18s-2.22-.37-2.94-1.12a4.2 4.2 0 0 1-1.09-3.05Zm1.96-.06a3 3 0 0 0 .57 1.96c.38.45.92.68 1.62.68s1.2-.22 1.56-.68c.36-.45.54-1.12.54-2s-.18-1.54-.55-1.99-.89-.67-1.56-.67-1.22.23-1.6.7c-.39.46-.58 1.13-.58 2Zm9.04-2c0 .27.08.49.26.65.17.16.55.35 1.13.59.75.31 1.28.65 1.58 1.04s.45.85.45 1.4c0 .77-.29 1.39-.86 1.85a3.6 3.6 0 0 1-2.34.7 5.67 5.67 0 0 1-2.12-.43v-1.89c.34.24.71.44 1.1.58.39.14.75.21 1.07.21.43 0 .74-.06.94-.18s.3-.33.3-.61a.86.86 0 0 0-.32-.67 4.86 4.86 0 0 0-1.19-.63 3.65 3.65 0 0 1-1.47-1 2.22 2.22 0 0 1-.44-1.41c0-.74.29-1.34.86-1.82s1.31-.71 2.22-.71a5.6 5.6 0 0 1 1.81.34v1.83a4.42 4.42 0 0 0-.87-.44 2.88 2.88 0 0 0-.99-.18c-.36 0-.64.07-.83.21a.65.65 0 0 0-.29.57Zm4.23 2.06c0-1.35.37-2.42 1.12-3.21a4.05 4.05 0 0 1 3.1-1.18c1.25 0 2.22.38 2.92 1.14s1.05 1.79 1.05 3.08-.37 2.38-1.12 3.16c-.74.78-1.76 1.18-3.04 1.18s-2.22-.37-2.95-1.12a4.2 4.2 0 0 1-1.08-3.05Zm1.95-.06a3 3 0 0 0 .57 1.96c.38.45.92.68 1.62.68s1.2-.22 1.56-.68c.36-.45.54-1.12.54-2s-.19-1.54-.55-1.99c-.37-.45-.89-.67-1.56-.67s-1.22.23-1.6.7c-.39.46-.58 1.13-.58 2Zm12.48-2.57h-2.8v6.6h-1.9v-6.6h-1.33v-1.57h1.33v-1.14c0-.86.27-1.56.82-2.11a2.83 2.83 0 0 1 2.1-.82 3.74 3.74 0 0 1 1.08.15v1.66a1.47 1.47 0 0 0-.33-.13 1.8 1.8 0 0 0-.54-.08c-.39 0-.7.13-.91.38-.21.25-.32.62-.32 1.12v.99h2.8v-1.84l1.89-.59v2.43h1.9v1.57h-1.9v3.82c0 .5.09.86.27 1.07s.46.31.84.31a1.86 1.86 0 0 0 .79-.27v1.59a3.88 3.88 0 0 1-1.41.28c-.79 0-1.39-.22-1.78-.65-.4-.43-.59-1.08-.59-1.95V31.6Z"/>
    <path fill="#f16623" d="M505.37 23h-8.82v9.03h8.82V23Z"/>
    <path fill="#8ec640" d="M515.11 23h-8.82v9.03h8.82V23Z"/>
    <path fill="#2aace2" d="M505.37 32.97h-8.82V42h8.82v-9.03Z"/>
    <path fill="#fec214" d="M515.11 32.97h-8.82V42h8.82v-9.03Z"/>
  </g>
  <path fill="#fff" d="M105.59 172.39c-2.17 1.15-4.88 1.72-8.12 1.72-4.18 0-7.53-1.35-10.05-4.04s-3.77-6.23-3.77-10.6c0-4.7 1.42-8.5 4.25-11.4s6.42-4.35 10.77-4.35c2.79 0 5.1.4 6.93 1.21v3.67a14.02 14.02 0 0 0-6.97-1.76c-3.38 0-6.11 1.13-8.21 3.38s-3.15 5.27-3.15 9.04.98 6.44 2.94 8.56 4.54 3.19 7.72 3.19c2.95 0 5.51-.66 7.67-1.97v3.34Zm8.9 1.23h-3.36v-31.09h3.36v31.09Zm15.59.49c-3.1 0-5.58-.98-7.43-2.94s-2.78-4.56-2.78-7.8c0-3.53.96-6.28 2.89-8.26s4.53-2.97 7.81-2.97 5.57.96 7.33 2.89 2.64 4.6 2.64 8.02-.95 6.03-2.84 8.05-4.43 3.02-7.62 3.02Zm.25-19.15c-2.16 0-3.87.73-5.13 2.2s-1.89 3.5-1.89 6.08.64 4.45 1.91 5.89 2.97 2.15 5.11 2.15 3.85-.7 5.01-2.11 1.75-3.41 1.75-6.01-.58-4.65-1.75-6.07-2.84-2.13-5.01-2.13Zm32.56 18.66h-3.36v-3.32h-.08a6.9 6.9 0 0 1-6.48 3.81c-5 0-7.51-2.98-7.51-8.94v-12.55h3.34v12.02c0 4.43 1.7 6.64 5.09 6.64 1.64 0 2.99-.6 4.05-1.81s1.59-2.79 1.59-4.75v-12.1h3.36v21Zm24.71 0h-3.36v-3.57h-.08c-1.56 2.71-3.96 4.06-7.22 4.06-2.64 0-4.75-.94-6.33-2.82s-2.37-4.44-2.37-7.68c0-3.47.88-6.25 2.62-8.35s4.08-3.14 6.99-3.14 4.98 1.13 6.3 3.4h.08v-13h3.36v31.09Zm-3.36-9.5v-3.1c0-1.7-.56-3.13-1.68-4.31s-2.54-1.76-4.27-1.76c-2.05 0-3.66.75-4.84 2.26s-1.76 3.58-1.76 6.23c0 2.42.56 4.33 1.69 5.73s2.64 2.1 4.54 2.1 3.39-.68 4.56-2.03 1.75-3.06 1.75-5.13Zm20.92-.88h-11.2v-2.65h11.2v2.65Zm5.13 9.19v-4.06c.46.41 1.02.78 1.67 1.11s1.33.6 2.05.83a15.4 15.4 0 0 0 4.17.7c2.12 0 3.7-.39 4.75-1.18s1.57-1.92 1.57-3.39c0-.79-.17-1.48-.52-2.07s-.83-1.12-1.45-1.61-1.34-.95-2.18-1.39l-2.72-1.4c-1.03-.52-1.98-1.05-2.87-1.58s-1.66-1.12-2.32-1.76-1.17-1.37-1.55-2.18-.56-1.77-.56-2.86c0-1.34.29-2.51.88-3.5s1.36-1.81 2.32-2.45 2.05-1.12 3.27-1.44 2.47-.47 3.74-.47c2.9 0 5.01.35 6.34 1.05v3.88c-1.74-1.2-3.96-1.8-6.69-1.8-.75 0-1.5.08-2.26.24s-1.42.41-2.01.77-1.07.81-1.44 1.37-.55 1.24-.55 2.05c0 .75.14 1.4.42 1.95s.69 1.05 1.24 1.5 1.21.89 2 1.31 1.69.89 2.72 1.39c1.05.52 2.05 1.07 2.99 1.64s1.77 1.21 2.48 1.91 1.27 1.47 1.69 2.32.63 1.82.63 2.91c0 1.45-.28 2.68-.85 3.68s-1.33 1.82-2.3 2.45-2.07 1.08-3.33 1.36a18.26 18.26 0 0 1-9.81-.55 6.1 6.1 0 0 1-1.53-.71Zm37.54.23a10.93 10.93 0 0 1-5.74 1.46c-2.99 0-5.41-.97-7.25-2.92s-2.76-4.47-2.76-7.58c0-3.46.99-6.24 2.97-8.34s4.63-3.15 7.94-3.15c1.85 0 3.47.34 4.88 1.03v3.45a8.59 8.59 0 0 0-5-1.64c-2.15 0-3.91.77-5.28 2.31s-2.06 3.56-2.06 6.06.65 4.4 1.94 5.82 3.02 2.13 5.2 2.13c1.83 0 3.55-.61 5.17-1.83v3.2Zm20.12.96h-3.36v-3.28h-.08a7.03 7.03 0 0 1-6.46 3.77c-2.09 0-3.73-.55-4.91-1.66s-1.77-2.58-1.77-4.41c0-3.92 2.31-6.21 6.93-6.85l6.3-.88c0-3.57-1.44-5.35-4.33-5.35-2.53 0-4.81.86-6.85 2.58v-3.45a13.02 13.02 0 0 1 7.14-1.97c4.94 0 7.4 2.61 7.4 7.83v13.66ZM264.59 163l-5.07.7c-1.56.22-2.73.6-3.53 1.16s-1.19 1.53-1.19 2.94c0 1.03.37 1.86 1.1 2.51s1.71.97 2.92.97c1.67 0 3.05-.58 4.13-1.75s1.63-2.65 1.63-4.44V163Zm13.06 10.62h-3.36v-31.09h3.36v31.09Zm23.69-9.66h-14.83c.05 2.34.68 4.14 1.89 5.41s2.86 1.91 4.96 1.91c2.37 0 4.54-.78 6.52-2.34v3.16c-1.85 1.34-4.29 2.01-7.32 2.01s-5.3-.95-6.99-2.86-2.54-4.59-2.54-8.05c0-3.27.93-5.93 2.78-7.99s4.15-3.09 6.9-3.09 4.87.89 6.38 2.67 2.26 4.25 2.26 7.4v1.76Zm-3.45-2.85c-.01-1.94-.48-3.45-1.4-4.53s-2.2-1.62-3.85-1.62-2.93.57-4.04 1.7-1.79 2.62-2.05 4.45h11.34Zm20.49 12.51v-29.41h8.12c10.36 0 15.54 4.78 15.54 14.33 0 4.54-1.44 8.19-4.32 10.94s-6.73 4.13-11.56 4.13h-7.79Zm3.45-26.29v23.17h4.39c3.86 0 6.86-1.03 9-3.1s3.22-4.99 3.22-8.78c0-7.53-4.01-11.3-12.02-11.3h-4.59Zm40.58 26.29h-3.36v-3.28h-.08a7.03 7.03 0 0 1-6.46 3.77c-2.09 0-3.73-.55-4.91-1.66a5.77 5.77 0 0 1-1.77-4.41c0-3.92 2.31-6.21 6.93-6.85l6.3-.88c0-3.57-1.44-5.35-4.33-5.35-2.53 0-4.81.86-6.85 2.58v-3.45a13.02 13.02 0 0 1 7.14-1.97c4.94 0 7.4 2.61 7.4 7.83v13.66ZM359.05 163l-5.07.7c-1.56.22-2.73.6-3.53 1.16s-1.19 1.53-1.19 2.94a3.2 3.2 0 0 0 1.1 2.51c.73.65 1.71.97 2.92.97 1.67 0 3.04-.58 4.13-1.75a6.25 6.25 0 0 0 1.63-4.44V163Zm19.44 10.41c-.79.44-1.84.66-3.14.66-3.68 0-5.52-2.05-5.52-6.15v-12.43h-3.61v-2.87h3.61v-5.13l3.36-1.09v6.21h5.29v2.87h-5.29v11.83c0 1.41.24 2.41.72 3.01s1.27.9 2.38.9c.85 0 1.58-.23 2.19-.7v2.87Zm19.52.21h-3.36v-3.28h-.08a7.03 7.03 0 0 1-6.46 3.77c-2.09 0-3.73-.55-4.91-1.66s-1.77-2.58-1.77-4.41c0-3.92 2.31-6.21 6.93-6.85l6.3-.88c0-3.57-1.44-5.35-4.33-5.35-2.53 0-4.81.86-6.85 2.58v-3.45a13.02 13.02 0 0 1 7.14-1.97c4.94 0 7.4 2.61 7.4 7.83v13.66ZM394.65 163l-5.07.7c-1.56.22-2.73.6-3.53 1.16s-1.19 1.53-1.19 2.94a3.2 3.2 0 0 0 1.1 2.51c.73.65 1.71.97 2.92.97 1.67 0 3.04-.58 4.13-1.75a6.25 6.25 0 0 0 1.63-4.44V163ZM95.5 195.88a4.48 4.48 0 0 0-2.24-.55c-2.35 0-3.53 1.48-3.53 4.45v3.24h4.92v2.87h-4.92v18.13h-3.34v-18.13H82.8v-2.87h3.59v-3.4c0-2.2.64-3.94 1.91-5.22s2.86-1.92 4.76-1.92c1.03 0 1.84.12 2.44.37v3.04Zm11.55 28.63c-3.1 0-5.58-.98-7.43-2.94s-2.78-4.56-2.78-7.8c0-3.53.96-6.28 2.89-8.26s4.53-2.97 7.81-2.97 5.57.96 7.33 2.89 2.64 4.6 2.64 8.02-.95 6.03-2.84 8.05-4.43 3.02-7.62 3.02Zm.25-19.15c-2.16 0-3.87.73-5.13 2.2s-1.89 3.5-1.89 6.08.64 4.45 1.91 5.89 2.97 2.15 5.11 2.15 3.85-.7 5.01-2.11 1.75-3.41 1.75-6.01-.58-4.65-1.75-6.07-2.84-2.13-5.01-2.13Zm26.53 1.06a4.13 4.13 0 0 0-2.54-.68c-1.44 0-2.64.68-3.6 2.03s-1.45 3.2-1.45 5.54v10.71h-3.36v-21h3.36v4.33h.08c.48-1.48 1.21-2.63 2.19-3.46s2.08-1.24 3.3-1.24c.88 0 1.54.1 2.01.29v3.49Zm14.23 16.41v-4.06c.46.41 1.02.78 1.67 1.11s1.33.6 2.05.83a15.4 15.4 0 0 0 4.17.7c2.12 0 3.7-.39 4.75-1.18s1.57-1.92 1.57-3.39c0-.79-.17-1.48-.52-2.07s-.83-1.12-1.45-1.61-1.34-.95-2.18-1.39l-2.72-1.4c-1.03-.52-1.98-1.05-2.87-1.58s-1.66-1.12-2.32-1.76-1.17-1.37-1.55-2.18-.56-1.77-.56-2.86c0-1.34.29-2.51.88-3.5s1.36-1.81 2.32-2.45 2.05-1.12 3.27-1.44 2.47-.47 3.74-.47c2.9 0 5.01.35 6.34 1.05v3.88c-1.74-1.2-3.96-1.8-6.69-1.8-.75 0-1.5.08-2.26.24s-1.42.41-2.01.77-1.07.81-1.44 1.37-.55 1.24-.55 2.05c0 .75.14 1.4.42 1.95s.69 1.05 1.24 1.5 1.21.89 2 1.31 1.69.89 2.72 1.39c1.05.52 2.05 1.07 2.99 1.64s1.77 1.21 2.48 1.91 1.27 1.47 1.69 2.32.63 1.82.63 2.91c0 1.45-.28 2.68-.85 3.68s-1.33 1.82-2.3 2.45-2.07 1.08-3.33 1.36a18.26 18.26 0 0 1-9.81-.55 6.1 6.1 0 0 1-1.53-.71Zm26.69-1.85h-.08v12.69h-3.36v-30.66h3.36v3.69h.08a7.94 7.94 0 0 1 7.26-4.18c2.71 0 4.82.94 6.34 2.82s2.28 4.4 2.28 7.56c0 3.51-.85 6.33-2.56 8.44s-4.05 3.17-7.01 3.17a7.04 7.04 0 0 1-6.3-3.53Zm-.08-8.47v2.93c0 1.74.56 3.21 1.69 4.42s2.56 1.81 4.3 1.81c2.04 0 3.63-.78 4.79-2.34s1.73-3.73 1.73-6.5c0-2.34-.54-4.17-1.62-5.5s-2.54-1.99-4.39-1.99c-1.96 0-3.53.68-4.72 2.04s-1.78 3.07-1.78 5.12Zm32.27-6.09a4.13 4.13 0 0 0-2.54-.68c-1.44 0-2.64.68-3.6 2.03s-1.45 3.2-1.45 5.54v10.71h-3.36v-21h3.36v4.33h.08c.48-1.48 1.21-2.63 2.19-3.46s2.08-1.24 3.3-1.24c.88 0 1.54.1 2.01.29v3.49Zm5.38-8.73a2.15 2.15 0 0 1-2.18-2.18c0-.63.21-1.15.64-1.57s.94-.63 1.54-.63a2.19 2.19 0 1 1 0 4.38Zm1.64 26.33h-3.36v-21h3.36v21Zm24.24 0h-3.36v-11.98c0-4.46-1.63-6.69-4.88-6.69-1.68 0-3.07.63-4.17 1.9s-1.65 2.86-1.65 4.79v11.98h-3.36v-21h3.36v3.49h.08a7.59 7.59 0 0 1 6.89-3.98c2.3 0 4.05.74 5.27 2.23s1.83 3.63 1.83 6.43v12.84Zm24.26-1.68c0 7.71-3.69 11.57-11.07 11.57-2.6 0-4.87-.49-6.81-1.48v-3.36a14.03 14.03 0 0 0 6.77 1.97c5.17 0 7.75-2.75 7.75-8.24v-2.3h-.08a7.87 7.87 0 0 1-7.22 4.02c-2.61 0-4.71-.93-6.31-2.8s-2.39-4.37-2.39-7.52c0-3.57.86-6.41 2.57-8.51s4.06-3.16 7.04-3.16 4.93 1.13 6.3 3.4h.08v-2.91h3.36v19.32Zm-3.36-7.81v-3.1c0-1.67-.56-3.1-1.69-4.29s-2.53-1.78-4.21-1.78c-2.08 0-3.71.76-4.88 2.27s-1.76 3.63-1.76 6.35c0 2.34.56 4.21 1.69 5.61s2.62 2.1 4.48 2.1 3.42-.67 4.6-2.01 1.77-3.06 1.77-5.15Zm22.12 9.49v-29.41h8.12c10.36 0 15.54 4.78 15.54 14.33 0 4.54-1.44 8.19-4.32 10.94s-6.73 4.13-11.56 4.13h-7.79Zm3.45-26.29v23.17h4.39c3.86 0 6.86-1.03 9-3.1s3.22-4.99 3.22-8.78c0-7.53-4.01-11.3-12.02-11.3h-4.59Zm42.43 16.63h-14.83c.05 2.34.68 4.14 1.89 5.41s2.86 1.91 4.96 1.91c2.37 0 4.54-.78 6.52-2.34v3.16c-1.85 1.34-4.29 2.01-7.32 2.01s-5.3-.95-6.99-2.86-2.54-4.59-2.54-8.05c0-3.27.93-5.93 2.78-7.99s4.15-3.09 6.9-3.09 4.87.89 6.38 2.67 2.26 4.25 2.26 7.4v1.76Zm-3.45-2.85c-.01-1.94-.48-3.45-1.4-4.53s-2.21-1.62-3.85-1.62-2.93.57-4.04 1.7-1.79 2.62-2.05 4.45h11.34Zm25.04-8.49-8.37 21h-3.3l-7.96-21h3.69l5.33 15.26c.4 1.12.64 2.1.74 2.93h.08c.14-1.05.36-2 .66-2.85l5.58-15.34h3.55Zm20.49 11.34h-14.83c.05 2.34.68 4.14 1.89 5.41s2.86 1.91 4.96 1.91c2.37 0 4.54-.78 6.52-2.34v3.16c-1.85 1.34-4.29 2.01-7.32 2.01s-5.3-.95-6.99-2.86-2.54-4.59-2.54-8.05c0-3.27.93-5.93 2.78-7.99 1.85-2.06 4.15-3.09 6.9-3.09s4.87.89 6.38 2.67 2.26 4.25 2.26 7.4v1.76Zm-3.45-2.85c-.01-1.94-.48-3.45-1.41-4.53-.92-1.08-2.2-1.62-3.84-1.62s-2.93.57-4.04 1.7-1.79 2.62-2.05 4.45h11.34Zm11.9 12.51h-3.36v-31.09h3.36v31.09Zm15.58.49c-3.1 0-5.58-.98-7.43-2.94-1.85-1.96-2.78-4.56-2.78-7.8 0-3.53.96-6.28 2.89-8.26s4.53-2.97 7.81-2.97 5.57.96 7.33 2.89c1.76 1.93 2.63 4.6 2.63 8.02s-.95 6.03-2.84 8.05c-1.89 2.02-4.43 3.02-7.62 3.02Zm.25-19.15c-2.16 0-3.87.73-5.13 2.2s-1.89 3.5-1.89 6.08.64 4.45 1.91 5.89 2.97 2.15 5.11 2.15 3.85-.7 5.01-2.11c1.17-1.41 1.75-3.41 1.75-6.01s-.58-4.65-1.75-6.07-2.84-2.13-5.01-2.13Zm19.03 15.62h-.08v12.69h-3.36v-30.66h3.36v3.69h.08a7.94 7.94 0 0 1 7.26-4.18c2.71 0 4.82.94 6.34 2.82s2.28 4.4 2.28 7.56c0 3.51-.85 6.33-2.56 8.44s-4.05 3.17-7.01 3.17a7.04 7.04 0 0 1-6.3-3.53Zm-.08-8.47v2.93c0 1.74.56 3.21 1.69 4.42a5.62 5.62 0 0 0 4.3 1.81c2.04 0 3.63-.78 4.79-2.34 1.15-1.56 1.73-3.73 1.73-6.5 0-2.34-.54-4.17-1.62-5.5s-2.54-1.99-4.39-1.99c-1.96 0-3.53.68-4.72 2.04s-1.78 3.07-1.78 5.12Zm38.21 1.85h-14.83c.05 2.34.68 4.14 1.89 5.41s2.86 1.91 4.96 1.91c2.37 0 4.54-.78 6.52-2.34v3.16c-1.85 1.34-4.29 2.01-7.32 2.01s-5.3-.95-6.99-2.86-2.54-4.59-2.54-8.05c0-3.27.93-5.93 2.78-7.99 1.85-2.06 4.15-3.09 6.9-3.09s4.87.89 6.38 2.67 2.26 4.25 2.26 7.4v1.76Zm-3.45-2.85c-.01-1.94-.48-3.45-1.41-4.53-.92-1.08-2.2-1.62-3.84-1.62s-2.93.57-4.04 1.7-1.79 2.62-2.05 4.45h11.34Zm19.48-5.09a4.13 4.13 0 0 0-2.54-.68c-1.44 0-2.63.68-3.6 2.03-.96 1.35-1.45 3.2-1.45 5.54v10.71h-3.36v-21h3.36v4.33h.08c.48-1.48 1.21-2.63 2.19-3.46s2.08-1.24 3.3-1.24c.88 0 1.54.1 2.01.29v3.49Zm2.38 16.84v-3.61a9.97 9.97 0 0 0 6.05 2.03c2.95 0 4.43-.98 4.43-2.95 0-.56-.13-1.04-.38-1.43s-.59-.73-1.03-1.04c-.43-.3-.94-.57-1.52-.81l-1.88-.75c-.93-.37-1.75-.74-2.45-1.12a7.38 7.38 0 0 1-1.76-1.27 4.78 4.78 0 0 1-1.07-1.61 5.69 5.69 0 0 1-.36-2.11c0-.98.23-1.86.68-2.61s1.05-1.39 1.8-1.91 1.61-.9 2.57-1.16c.96-.26 1.96-.39 2.98-.39a12 12 0 0 1 4.88.94v3.4a9.5 9.5 0 0 0-5.33-1.52c-.63 0-1.2.07-1.7.22s-.94.35-1.3.6c-.36.26-.64.57-.84.93s-.3.76-.3 1.2c0 .55.1 1 .3 1.37s.49.7.87.98.85.55 1.39.78 1.17.49 1.87.76c.93.36 1.76.72 2.5 1.1s1.37.8 1.89 1.27.92 1.02 1.2 1.63.42 1.35.42 2.19c0 1.04-.23 1.94-.69 2.71-.46.77-1.07 1.4-1.84 1.91s-1.65.88-2.65 1.13-2.04.37-3.14.37c-2.16 0-4.03-.42-5.62-1.25Z"/>
  <path fill="#ffcd05" d="M92.17 279.23h-2.04l-1.01-2.85h-4.41l-.97 2.85h-2.03l4.2-11.2H88l4.16 11.2Zm-3.54-4.37-1.55-4.47c-.05-.15-.1-.38-.15-.7h-.03c-.05.3-.1.53-.16.7l-1.54 4.47h3.43Zm14.1 4.56c-.81 0-1.54-.14-2.2-.41s-1.22-.66-1.68-1.16a5.35 5.35 0 0 1-1.08-1.79 6.5 6.5 0 0 1-.38-2.3c0-.9.13-1.71.39-2.44s.62-1.35 1.1-1.87 1.06-.91 1.74-1.2a5.99 5.99 0 0 1 4.43-.01 4.78 4.78 0 0 1 2.73 2.95c.25.69.38 1.46.38 2.29 0 1.1-.19 2.07-.55 2.9-.37.83-.89 1.5-1.56 2l3.25 2.34h-2.83l-2-1.55a7.17 7.17 0 0 1-1.73.23Zm.09-9.95a3.23 3.23 0 0 0-2.5 1.15 3.8 3.8 0 0 0-.71 1.32c-.17.51-.25 1.08-.25 1.7s.08 1.19.25 1.7c.16.51.39.95.69 1.31a3.12 3.12 0 0 0 2.45 1.14c.54 0 1.02-.09 1.45-.28.43-.19.79-.46 1.09-.81.3-.35.53-.78.69-1.29a6.5 6.5 0 0 0 .01-3.52 3.9 3.9 0 0 0-.67-1.32 2.87 2.87 0 0 0-1.07-.82 3.4 3.4 0 0 0-1.42-.28Zm14.16 9.76h-1.81v-1.27h-.03a2.6 2.6 0 0 1-2.45 1.45c-1.89 0-2.84-1.14-2.84-3.41v-4.78h1.81v4.59c0 1.44.55 2.16 1.66 2.16.54 0 .98-.2 1.32-.59.35-.4.52-.91.52-1.55v-4.6h1.81v8Zm3.27-9.68c-.3 0-.55-.1-.76-.29-.21-.19-.32-.44-.32-.73s.11-.54.32-.74c.21-.2.46-.3.76-.3s.57.1.78.3a1 1 0 0 1 0 1.46c-.21.2-.47.3-.78.3Zm.9 9.68h-1.81v-8h1.81v8Zm8.1-.37c-.64.37-1.4.55-2.27.55a3.87 3.87 0 0 1-2.88-1.11 3.93 3.93 0 0 1-1.09-2.89c0-1.32.39-2.38 1.18-3.18.78-.8 1.83-1.2 3.14-1.2.73 0 1.37.13 1.93.38v1.69a2.9 2.9 0 0 0-1.78-.62c-.77 0-1.39.26-1.88.78s-.73 1.2-.73 2.04.23 1.48.69 1.96c.46.48 1.08.72 1.86.72.65 0 1.27-.23 1.84-.7v1.58Zm9.05.37H136l-3.11-3.84h-.03v3.84h-1.82v-11.84h1.82v7.51h.03l2.94-3.66h2.18l-3.3 3.86 3.59 4.14Zm5.23-.45v-1.91c.17.16.38.3.61.42a5.5 5.5 0 0 0 2.28.59c.78 0 1.36-.13 1.75-.39.38-.26.57-.64.57-1.13 0-.27-.06-.5-.19-.69-.13-.2-.31-.37-.54-.54-.23-.16-.5-.32-.81-.46l-1-.46c-.38-.2-.73-.41-1.06-.62a5 5 0 0 1-.86-.69 2.76 2.76 0 0 1-.78-1.98c0-.53.12-.98.36-1.37.24-.39.55-.71.94-.96.39-.25.83-.44 1.32-.56.49-.12 1-.18 1.52-.18 1.17 0 2.03.13 2.56.4v1.84a4.08 4.08 0 0 0-2.45-.69c-.28 0-.55.03-.82.08-.27.05-.52.14-.73.26-.22.12-.39.27-.53.46s-.2.41-.2.68c0 .25.05.47.16.65.1.18.26.35.46.5.2.15.45.3.73.44.29.14.62.3 1 .46.39.2.76.42 1.11.64.35.22.65.47.91.74s.47.57.62.9c.15.33.23.71.23 1.13a2.8 2.8 0 0 1-.34 1.44c-.23.39-.54.71-.93.95a4 4 0 0 1-1.34.53 7.55 7.55 0 0 1-3.13 0 6 6 0 0 1-.81-.2 2.6 2.6 0 0 1-.62-.27Zm12.78.36c-.35.18-.82.27-1.4.27-1.55 0-2.33-.74-2.33-2.23v-4.52h-1.34v-1.42h1.34v-1.85l1.81-.52v2.37h1.91v1.42h-1.91v4c0 .47.09.81.26 1.02s.46.3.86.3c.31 0 .57-.09.8-.27v1.44Zm7.7.09h-1.76v-1.25h-.03a2.64 2.64 0 0 1-2.43 1.44c-.79 0-1.4-.21-1.85-.64a2.23 2.23 0 0 1-.67-1.7c0-1.51.87-2.39 2.61-2.64l2.38-.34c0-1.14-.54-1.71-1.62-1.71a3.9 3.9 0 0 0-2.58.98v-1.59c.84-.5 1.82-.75 2.92-.75 2.02 0 3.03 1 3.03 2.98v5.2Zm-1.75-3.93-1.68.23c-.52.07-.91.19-1.18.38-.26.19-.39.51-.39.97 0 .34.12.62.36.83.24.22.57.32.97.32.55 0 1.01-.19 1.37-.58.36-.39.54-.88.54-1.46v-.7Zm8.6-2.34a1.51 1.51 0 0 0-.95-.26c-.54 0-.98.24-1.34.73s-.54 1.14-.54 1.98v3.83h-1.81v-8h1.81v1.65h.03c.18-.56.45-1 .82-1.32.37-.31.78-.47 1.23-.47.33 0 .58.05.75.15v1.72Zm5.96 6.18c-.35.18-.82.27-1.4.27-1.55 0-2.33-.74-2.33-2.23v-4.52h-1.34v-1.42h1.34v-1.85l1.81-.52v2.37h1.91v1.42h-1.91v4c0 .47.09.81.26 1.02s.46.3.86.3c.31 0 .57-.09.8-.27v1.44Zm13.25-.55c0 2.94-1.48 4.41-4.43 4.41a6.62 6.62 0 0 1-2.73-.52v-1.66c.88.5 1.71.75 2.49.75 1.9 0 2.85-.94 2.85-2.8v-.88h-.03a2.93 2.93 0 0 1-2.7 1.53c-.97 0-1.76-.36-2.36-1.07a4.3 4.3 0 0 1-.89-2.86c0-1.36.32-2.44.96-3.24a3.2 3.2 0 0 1 2.64-1.2c1.06 0 1.84.43 2.35 1.3h.03v-1.11h1.81v7.36Zm-1.8-3.02v-1.04c0-.56-.19-1.04-.56-1.44-.37-.4-.84-.6-1.39-.6-.69 0-1.23.25-1.61.76a3.44 3.44 0 0 0-.58 2.13c0 .79.19 1.42.56 1.89.37.47.87.71 1.48.71s1.13-.23 1.52-.68c.39-.45.59-1.03.59-1.73Zm11.13 3.66h-1.81v-1.27h-.03a2.6 2.6 0 0 1-2.45 1.45c-1.89 0-2.84-1.14-2.84-3.41v-4.78h1.81v4.59c0 1.44.55 2.16 1.66 2.16.54 0 .98-.2 1.32-.59.35-.4.52-.91.52-1.55v-4.6h1.81v8Zm3.27-9.68c-.3 0-.55-.1-.76-.29-.21-.19-.32-.44-.32-.73s.11-.54.32-.74c.21-.2.46-.3.76-.3s.57.1.78.3a1 1 0 0 1 0 1.46c-.21.2-.47.3-.78.3Zm.9 9.68h-1.81v-8h1.81v8Zm9.64 0h-1.81v-1.36h-.03a2.9 2.9 0 0 1-2.7 1.55c-.98 0-1.77-.36-2.36-1.07a4.48 4.48 0 0 1-.89-2.93c0-1.32.33-2.38.98-3.18.65-.8 1.52-1.2 2.61-1.2s1.86.43 2.35 1.3h.03v-4.95h1.81v11.84Zm-1.79-3.66v-1.05a2.1 2.1 0 0 0-.55-1.45c-.37-.4-.84-.59-1.41-.59a1.9 1.9 0 0 0-1.6.76 3.38 3.38 0 0 0-.58 2.1c0 .81.19 1.45.56 1.93.37.47.87.71 1.5.71s1.12-.23 1.51-.68c.39-.46.58-1.03.58-1.72Zm10.93.15h-5.45c.02.74.25 1.31.68 1.71.43.4 1.03.6 1.79.6a3.9 3.9 0 0 0 2.35-.77v1.46c-.73.46-1.69.69-2.89.69s-2.1-.36-2.77-1.09c-.67-.73-1-1.75-1-3.07 0-1.24.37-2.26 1.11-3.04.74-.78 1.65-1.18 2.75-1.18s1.94.35 2.54 1.05c.6.7.9 1.68.9 2.93v.7Zm-1.75-1.28c0-.65-.16-1.16-.46-1.52-.3-.36-.72-.54-1.25-.54s-.96.19-1.32.57c-.36.38-.58.88-.67 1.49h3.7Zm12.1 4.7c-.35.18-.82.27-1.4.27-1.55 0-2.33-.74-2.33-2.23v-4.52h-1.34v-1.42h1.34v-1.85l1.81-.52v2.37h1.91v1.42h-1.91v4c0 .47.09.81.26 1.02s.46.3.86.3c.31 0 .57-.09.8-.27v1.44Zm5.01.28a3.97 3.97 0 0 1-2.96-1.12 4.05 4.05 0 0 1-1.11-2.97c0-1.34.38-2.39 1.15-3.15.77-.75 1.8-1.13 3.11-1.13s2.22.37 2.92 1.1c.7.73 1.05 1.75 1.05 3.05s-.38 2.3-1.13 3.07a4.04 4.04 0 0 1-3.04 1.15Zm.09-6.93c-.71 0-1.27.25-1.68.74-.41.5-.62 1.18-.62 2.05s.21 1.5.62 1.98c.42.48.97.72 1.67.72s1.26-.24 1.64-.71c.38-.47.57-1.15.57-2.02s-.19-1.56-.57-2.04a1.97 1.97 0 0 0-1.64-.72Zm12.16 5.58h-.03v1.16h-1.81v-11.84h1.81v5.25h.03a2.98 2.98 0 0 1 2.72-1.59c1.01 0 1.8.36 2.37 1.07.57.72.86 1.68.86 2.88 0 1.34-.32 2.41-.96 3.21s-1.52 1.21-2.62 1.21a2.59 2.59 0 0 1-2.36-1.34Zm-.05-3.18v.99c0 .58.19 1.08.56 1.48.37.41.84.61 1.42.61.67 0 1.2-.26 1.58-.79s.57-1.25.57-2.19c0-.79-.18-1.4-.54-1.85a1.75 1.75 0 0 0-1.45-.67c-.65 0-1.17.23-1.56.69a2.56 2.56 0 0 0-.59 1.72Zm12.49-1.93a1.51 1.51 0 0 0-.95-.26c-.54 0-.98.24-1.34.73s-.54 1.14-.54 1.98v3.83h-1.81v-8h1.81v1.65h.03c.18-.56.45-1 .82-1.32.37-.31.78-.47 1.23-.47.33 0 .58.05.75.15v1.72Zm2.2-3.41c-.3 0-.55-.1-.76-.29-.21-.19-.32-.44-.32-.73s.11-.54.32-.74c.21-.2.46-.3.76-.3s.57.1.78.3a1 1 0 0 1 0 1.46c-.21.2-.47.3-.78.3Zm.9 9.68h-1.81v-8h1.81v8Zm9.49 0h-1.81v-4.51c0-1.49-.53-2.24-1.59-2.24-.55 0-1.01.21-1.37.62s-.54.94-.54 1.57v4.56h-1.82v-8h1.82v1.33h.03a2.85 2.85 0 0 1 2.59-1.52c.87 0 1.53.28 1.99.85.46.57.69 1.38.69 2.45v4.89Zm9.49-.64c0 2.94-1.48 4.41-4.43 4.41a6.62 6.62 0 0 1-2.73-.52v-1.66c.88.5 1.71.75 2.49.75 1.9 0 2.85-.94 2.85-2.8v-.88h-.03a2.93 2.93 0 0 1-2.7 1.53c-.97 0-1.76-.36-2.36-1.07a4.3 4.3 0 0 1-.89-2.86c0-1.36.32-2.44.96-3.24a3.2 3.2 0 0 1 2.64-1.2c1.06 0 1.84.43 2.35 1.3h.03v-1.11h1.81v7.36Zm-1.8-3.02v-1.04c0-.56-.19-1.04-.56-1.44-.37-.4-.84-.6-1.39-.6-.69 0-1.23.25-1.61.76a3.44 3.44 0 0 0-.58 2.13c0 .79.19 1.42.56 1.89.37.47.87.71 1.48.71s1.13-.23 1.52-.68c.39-.45.59-1.03.59-1.73Zm14.28 3.29c-.64.37-1.4.55-2.27.55a3.87 3.87 0 0 1-2.88-1.11 3.93 3.93 0 0 1-1.09-2.89c0-1.32.39-2.38 1.18-3.18.78-.8 1.83-1.2 3.14-1.2.73 0 1.37.13 1.93.38v1.69a2.9 2.9 0 0 0-1.78-.62c-.77 0-1.39.26-1.88.78s-.73 1.2-.73 2.04.23 1.48.69 1.96c.46.48 1.08.72 1.86.72.65 0 1.27-.23 1.84-.7v1.58Zm3.62.37h-1.82v-11.84h1.82v11.84Zm5.91.19a3.97 3.97 0 0 1-2.96-1.12 4.05 4.05 0 0 1-1.11-2.97c0-1.34.38-2.39 1.15-3.15.77-.75 1.8-1.13 3.11-1.13s2.22.37 2.92 1.1 1.05 1.75 1.05 3.05-.38 2.3-1.13 3.07a4.04 4.04 0 0 1-3.04 1.15Zm.09-6.93c-.71 0-1.27.25-1.68.74-.41.5-.62 1.18-.62 2.05s.21 1.5.62 1.98c.42.48.97.72 1.67.72s1.26-.24 1.64-.71c.38-.47.57-1.15.57-2.02s-.19-1.56-.57-2.04a1.97 1.97 0 0 0-1.64-.72Zm12.89 6.74h-1.81v-1.27h-.03a2.6 2.6 0 0 1-2.45 1.45c-1.89 0-2.84-1.14-2.84-3.41v-4.78h1.81v4.59c0 1.44.55 2.16 1.66 2.16.54 0 .98-.2 1.32-.59.35-.4.52-.91.52-1.55v-4.6h1.81v8Zm9.63 0h-1.81v-1.36h-.03a2.9 2.9 0 0 1-2.7 1.55c-.98 0-1.77-.36-2.36-1.07a4.48 4.48 0 0 1-.89-2.93c0-1.32.33-2.38.98-3.18s1.52-1.2 2.61-1.2 1.86.43 2.35 1.3h.03v-4.95h1.81v11.84Zm-1.79-3.66v-1.05c0-.57-.18-1.05-.55-1.45-.37-.4-.84-.59-1.41-.59a1.9 1.9 0 0 0-1.6.76 3.38 3.38 0 0 0-.58 2.1c0 .81.19 1.45.56 1.93.37.47.87.71 1.5.71s1.12-.23 1.51-.68c.39-.46.58-1.03.58-1.72Zm8.37-.04h-4.27v-1.34h4.27v1.34Zm9.35 3.7h-1.81v-4.51c0-1.49-.53-2.24-1.59-2.24-.55 0-1.01.21-1.37.62s-.54.94-.54 1.57v4.56h-1.82v-8h1.82v1.33h.03a2.85 2.85 0 0 1 2.59-1.52c.87 0 1.53.28 1.99.85.46.57.69 1.38.69 2.45v4.89Zm8.35 0h-1.76v-1.25h-.03a2.64 2.64 0 0 1-2.43 1.44c-.79 0-1.4-.21-1.85-.64a2.23 2.23 0 0 1-.67-1.7c0-1.51.87-2.39 2.61-2.64l2.38-.34c0-1.14-.54-1.71-1.62-1.71a3.9 3.9 0 0 0-2.58.98v-1.59c.84-.5 1.82-.75 2.92-.75 2.02 0 3.03 1 3.03 2.98v5.2Zm-1.75-3.93-1.68.23c-.52.07-.91.19-1.18.38-.26.19-.39.51-.39.97 0 .34.12.62.36.83.24.22.57.32.97.32.55 0 1.01-.19 1.37-.58.36-.39.54-.88.54-1.46v-.7Zm8.18 3.84c-.35.18-.82.27-1.4.27-1.55 0-2.33-.74-2.33-2.23v-4.52h-1.34v-1.42h1.34v-1.85l1.81-.52v2.37h1.91v1.42h-1.91v4c0 .47.09.81.26 1.02s.46.3.86.3c.31 0 .57-.09.8-.27v1.44Zm2.47-9.59c-.3 0-.55-.1-.76-.29-.21-.19-.32-.44-.32-.73s.11-.54.32-.74c.21-.2.46-.3.76-.3s.57.1.78.3a1 1 0 0 1 0 1.46c-.21.2-.47.3-.78.3Zm.9 9.68h-1.81v-8h1.81v8Zm9.26-8-3.09 8h-1.96l-2.95-8h1.97l1.77 5.59c.14.41.22.77.25 1.08h.02c.05-.39.12-.73.22-1.05l1.86-5.62h1.91Zm7.88 4.49h-5.45c.02.74.25 1.31.68 1.71.43.4 1.03.6 1.79.6a3.9 3.9 0 0 0 2.35-.77v1.46c-.73.46-1.69.69-2.89.69s-2.1-.36-2.77-1.09-1-1.75-1-3.07c0-1.24.37-2.26 1.11-3.04.74-.78 1.65-1.18 2.75-1.18s1.94.35 2.54 1.05.9 1.68.9 2.93v.7Zm-1.75-1.28c0-.65-.16-1.16-.46-1.52-.3-.36-.72-.54-1.25-.54s-.96.19-1.32.57c-.36.38-.58.88-.67 1.49h3.7Zm11.75.77c0 1.33-.33 2.36-.98 3.1a3.34 3.34 0 0 1-2.62 1.11c-.51 0-.93-.06-1.26-.18v-1.75c.3.2.68.3 1.15.3 1.24 0 1.86-.96 1.86-2.88v-6.89h1.86v7.19Zm8.42 4.02h-1.76v-1.25h-.03a2.64 2.64 0 0 1-2.43 1.44c-.79 0-1.4-.21-1.85-.64a2.23 2.23 0 0 1-.67-1.7c0-1.51.87-2.39 2.61-2.64l2.38-.34c0-1.14-.54-1.71-1.62-1.71a3.9 3.9 0 0 0-2.58.98v-1.59c.84-.5 1.82-.75 2.92-.75 2.02 0 3.03 1 3.03 2.98v5.2Zm-1.75-3.93-1.68.23c-.52.07-.91.19-1.18.38-.26.19-.39.51-.39.97 0 .34.12.62.36.83.24.22.57.32.97.32.55 0 1.01-.19 1.37-.58.36-.39.54-.88.54-1.46v-.7Zm10.85-4.07-3.09 8h-1.96l-2.95-8h1.97l1.77 5.59c.14.41.22.77.25 1.08h.02c.05-.39.12-.73.22-1.05l1.86-5.62h1.91Zm7.1 8h-1.76v-1.25h-.03a2.64 2.64 0 0 1-2.43 1.44c-.79 0-1.4-.21-1.85-.64a2.23 2.23 0 0 1-.67-1.7c0-1.51.87-2.39 2.61-2.64l2.38-.34c0-1.14-.54-1.71-1.62-1.71a3.9 3.9 0 0 0-2.58.98v-1.59c.84-.5 1.82-.75 2.92-.75 2.02 0 3.03 1 3.03 2.98v5.2Zm-1.75-3.93-1.68.23c-.52.07-.91.19-1.18.38-.26.19-.39.51-.39.97 0 .34.12.62.36.83.24.22.57.32.97.32.55 0 1.01-.19 1.37-.58.36-.39.54-.88.54-1.46v-.7Zm14.5 3.93h-1.76v-1.25h-.03a2.64 2.64 0 0 1-2.43 1.44c-.79 0-1.4-.21-1.85-.64a2.23 2.23 0 0 1-.67-1.7c0-1.51.87-2.39 2.61-2.64l2.38-.34c0-1.14-.54-1.71-1.62-1.71a3.9 3.9 0 0 0-2.58.98v-1.59c.84-.5 1.82-.75 2.92-.75 2.02 0 3.03 1 3.03 2.98v5.2Zm-1.75-3.93-1.68.23c-.52.07-.91.19-1.18.38-.26.19-.39.51-.39.97 0 .34.12.62.36.83.24.22.57.32.97.32.55 0 1.01-.19 1.37-.58.36-.39.54-.88.54-1.46v-.7Zm5.81 2.75h-.03v4.86h-1.81v-11.68h1.81v1.41h.03a2.98 2.98 0 0 1 2.72-1.59c1.02 0 1.81.36 2.38 1.07.57.71.85 1.67.85 2.88 0 1.33-.32 2.4-.96 3.2-.64.8-1.52 1.2-2.62 1.2a2.63 2.63 0 0 1-2.36-1.34Zm-.05-3.16v.99c0 .58.19 1.08.56 1.48s.84.61 1.42.61c.67 0 1.2-.26 1.58-.79s.57-1.25.57-2.19c0-.79-.18-1.4-.54-1.85s-.84-.67-1.45-.67c-.65 0-1.17.23-1.56.69a2.56 2.56 0 0 0-.59 1.72Zm9.69 3.16h-.03v4.86h-1.81v-11.68h1.81v1.41h.03a2.98 2.98 0 0 1 2.72-1.59c1.02 0 1.81.36 2.38 1.07.57.71.85 1.67.85 2.88 0 1.33-.32 2.4-.96 3.2-.64.8-1.52 1.2-2.62 1.2a2.63 2.63 0 0 1-2.36-1.34Zm-.05-3.16v.99c0 .58.19 1.08.56 1.48s.84.61 1.42.61c.67 0 1.2-.26 1.58-.79s.57-1.25.57-2.19c0-.79-.18-1.4-.54-1.85s-.84-.67-1.45-.67c-.65 0-1.17.23-1.56.69a2.56 2.56 0 0 0-.59 1.72Zm9.66 4.34h-1.82v-11.84H451v11.84Zm3.28-9.68c-.3 0-.55-.1-.76-.29-.21-.19-.32-.44-.32-.73s.11-.54.32-.74c.21-.2.46-.3.76-.3s.57.1.78.3a1 1 0 0 1 0 1.46c-.21.2-.47.3-.78.3Zm.9 9.68h-1.81v-8h1.81v8Zm8.09-.37c-.64.37-1.4.55-2.27.55-1.19 0-2.15-.37-2.88-1.11s-1.09-1.7-1.09-2.89c0-1.32.39-2.38 1.18-3.18.78-.8 1.83-1.2 3.14-1.2.73 0 1.37.13 1.93.38v1.69a2.9 2.9 0 0 0-1.78-.62c-.77 0-1.39.26-1.88.78s-.73 1.2-.73 2.04.23 1.48.69 1.96c.46.48 1.08.72 1.86.72.65 0 1.27-.23 1.84-.7v1.58Zm7.94.37h-1.76v-1.25h-.03a2.64 2.64 0 0 1-2.43 1.44c-.79 0-1.4-.21-1.85-.64a2.23 2.23 0 0 1-.67-1.7c0-1.51.87-2.39 2.61-2.64l2.38-.34c0-1.14-.54-1.71-1.62-1.71a3.9 3.9 0 0 0-2.58.98v-1.59c.84-.5 1.82-.75 2.92-.75 2.02 0 3.03 1 3.03 2.98v5.2Zm-1.75-3.93-1.68.23c-.52.07-.91.19-1.18.38-.26.19-.39.51-.39.97 0 .34.12.62.36.83.24.22.57.32.97.32.55 0 1.01-.19 1.37-.58.36-.39.54-.88.54-1.46v-.7Zm8.18 3.84c-.35.18-.82.27-1.4.27-1.55 0-2.33-.74-2.33-2.23v-4.52h-1.34v-1.42h1.34v-1.85l1.81-.52v2.37h1.91v1.42h-1.91v4c0 .47.09.81.26 1.02s.46.3.86.3c.31 0 .57-.09.8-.27v1.44Zm2.47-9.59c-.3 0-.55-.1-.76-.29-.21-.19-.32-.44-.32-.73s.11-.54.32-.74c.21-.2.46-.3.76-.3s.57.1.78.3a1 1 0 0 1 0 1.46c-.21.2-.47.3-.78.3Zm.9 9.68h-1.81v-8h1.81v8Zm5.91.19a3.97 3.97 0 0 1-2.96-1.12 4.05 4.05 0 0 1-1.11-2.97c0-1.34.38-2.39 1.15-3.15.77-.75 1.8-1.13 3.11-1.13s2.22.37 2.92 1.1 1.05 1.75 1.05 3.05-.38 2.3-1.13 3.07a4.04 4.04 0 0 1-3.04 1.15Zm.09-6.93c-.71 0-1.27.25-1.68.74-.41.5-.62 1.18-.62 2.05s.21 1.5.62 1.98c.42.48.97.72 1.67.72s1.26-.24 1.64-.71c.38-.47.57-1.15.57-2.02s-.19-1.56-.57-2.04a1.97 1.97 0 0 0-1.64-.72Zm13.05 6.74h-1.81v-4.51c0-1.49-.53-2.24-1.59-2.24-.55 0-1.01.21-1.37.62s-.54.94-.54 1.57v4.56h-1.82v-8h1.82v1.33h.03a2.85 2.85 0 0 1 2.59-1.52c.87 0 1.53.28 1.99.85.46.57.69 1.38.69 2.45v4.89Zm1.71-.25v-1.68c.68.52 1.42.77 2.24.77 1.09 0 1.64-.32 1.64-.97a.76.76 0 0 0-.14-.46 1.27 1.27 0 0 0-.38-.34c-.16-.1-.35-.19-.56-.27l-.72-.27a9.35 9.35 0 0 1-.89-.41 2.86 2.86 0 0 1-.66-.5c-.17-.18-.31-.39-.39-.63s-.13-.51-.13-.82c0-.39.09-.73.27-1.02.18-.29.43-.54.73-.74.31-.2.66-.35 1.05-.45s.79-.15 1.21-.15c.74 0 1.4.11 1.98.34v1.59a3.31 3.31 0 0 0-2.56-.51c-.18.05-.34.11-.47.2-.13.08-.23.18-.3.3s-.11.25-.11.39c0 .17.04.32.11.44s.18.23.32.32.32.17.52.25l.69.25c.34.14.65.28.93.43.27.15.51.31.7.5.19.19.34.4.45.64s.16.53.16.86c0 .41-.09.76-.28 1.06-.19.3-.44.55-.75.75-.31.2-.67.35-1.08.44a6 6 0 0 1-3.56-.3ZM86.99 298.34c-.35.18-.82.27-1.4.27-1.55 0-2.33-.74-2.33-2.23v-4.52h-1.34v-1.42h1.34v-1.85l1.81-.52v2.37h1.91v1.42h-1.91v4c0 .47.09.81.26 1.02s.46.3.86.3c.31 0 .57-.09.8-.27v1.44Zm5.01.28a3.97 3.97 0 0 1-2.96-1.12 4.05 4.05 0 0 1-1.11-2.97c0-1.34.38-2.39 1.15-3.15.77-.75 1.8-1.13 3.11-1.13s2.22.37 2.92 1.1c.7.73 1.05 1.75 1.05 3.05s-.38 2.3-1.13 3.07a4.04 4.04 0 0 1-3.04 1.15Zm.09-6.93c-.71 0-1.27.25-1.68.74-.41.5-.62 1.18-.62 2.05s.21 1.5.62 1.98c.42.48.97.72 1.67.72s1.26-.24 1.64-.71c.38-.47.57-1.15.57-2.02s-.19-1.56-.57-2.04a1.97 1.97 0 0 0-1.64-.72Zm19.73 6.74h-2.04l-1.01-2.85h-4.41l-.97 2.85h-2.03l4.2-11.2h2.09l4.16 11.2Zm-3.54-4.37-1.55-4.47c-.05-.15-.1-.38-.15-.7h-.03c-.05.3-.1.53-.16.7l-1.54 4.47h3.43Zm10.78-2.87-4.32 5.83h4.3v1.41h-6.84v-.68l4.41-5.91h-3.99v-1.41h6.44v.76Zm8.5 7.24h-1.81v-1.27h-.03a2.6 2.6 0 0 1-2.45 1.45c-1.89 0-2.84-1.14-2.84-3.41v-4.78h1.81v4.59c0 1.44.55 2.16 1.66 2.16.54 0 .98-.2 1.32-.59.35-.4.52-.91.52-1.55v-4.6h1.81v8Zm7-6.27a1.51 1.51 0 0 0-.95-.26c-.54 0-.98.24-1.34.73s-.54 1.14-.54 1.98v3.83h-1.81v-8h1.81v1.65h.03c.18-.56.45-1 .82-1.32.37-.31.78-.47 1.23-.47.33 0 .58.05.75.15v1.72Zm7.91 2.76h-5.45c.02.74.25 1.31.68 1.71.43.4 1.03.6 1.79.6a3.9 3.9 0 0 0 2.35-.77v1.46c-.73.46-1.69.69-2.89.69s-2.1-.36-2.77-1.09c-.67-.73-1-1.75-1-3.07 0-1.24.37-2.26 1.11-3.04.74-.78 1.65-1.18 2.75-1.18s1.94.35 2.54 1.05c.6.7.9 1.68.9 2.93v.7Zm-1.75-1.28c0-.65-.16-1.16-.46-1.52-.3-.36-.72-.54-1.25-.54s-.96.19-1.32.57c-.36.38-.58.88-.67 1.49h3.7Zm14.85 4.79h-1.81v-1.27h-.03a2.6 2.6 0 0 1-2.45 1.45c-1.89 0-2.84-1.14-2.84-3.41v-4.78h1.81v4.59c0 1.44.55 2.16 1.66 2.16.54 0 .98-.2 1.32-.59.35-.4.52-.91.52-1.55v-4.6h1.81v8Zm1.86-.25v-1.68c.68.52 1.42.77 2.24.77 1.09 0 1.64-.32 1.64-.97a.76.76 0 0 0-.14-.46 1.27 1.27 0 0 0-.38-.34c-.16-.1-.35-.19-.56-.27l-.72-.27a9.35 9.35 0 0 1-.89-.41 2.86 2.86 0 0 1-.66-.5 1.71 1.71 0 0 1-.39-.63 2.28 2.28 0 0 1-.13-.82c0-.39.09-.73.27-1.02.18-.29.43-.54.73-.74.31-.2.66-.35 1.05-.45s.79-.15 1.21-.15c.74 0 1.4.11 1.98.34v1.59a3.31 3.31 0 0 0-2.56-.51c-.19.05-.34.11-.47.2a.86.86 0 0 0-.3.3.77.77 0 0 0-.11.39c0 .17.04.32.11.44s.18.23.32.32.31.17.52.25l.69.25c.34.14.65.28.93.43.27.15.51.31.7.5.19.19.34.4.45.64.1.24.16.53.16.86 0 .41-.09.76-.28 1.06-.19.3-.44.55-.75.75-.31.2-.67.35-1.08.44-.41.1-.84.14-1.29.14-.88 0-1.63-.15-2.27-.44Zm8.32-9.43c-.3 0-.55-.1-.76-.29-.21-.19-.32-.44-.32-.73s.11-.54.32-.74c.21-.2.46-.3.76-.3s.57.1.78.3a1 1 0 0 1 0 1.46c-.21.2-.47.3-.78.3Zm.9 9.68h-1.81v-8h1.81v8Zm9.49 0h-1.81v-4.51c0-1.49-.53-2.24-1.59-2.24-.55 0-1.01.21-1.37.62s-.54.94-.54 1.57v4.56h-1.82v-8h1.82v1.33h.03a2.85 2.85 0 0 1 2.59-1.52c.87 0 1.53.28 1.99.85.46.57.69 1.38.69 2.45v4.89Zm9.49-.64c0 2.94-1.48 4.41-4.43 4.41a6.62 6.62 0 0 1-2.73-.52v-1.66c.88.5 1.71.75 2.49.75 1.9 0 2.85-.94 2.85-2.8v-.88h-.03a2.93 2.93 0 0 1-2.7 1.53c-.97 0-1.76-.36-2.36-1.07a4.3 4.3 0 0 1-.89-2.86c0-1.36.32-2.44.96-3.24a3.2 3.2 0 0 1 2.64-1.2c1.06 0 1.84.43 2.35 1.3h.03v-1.11h1.81v7.36Zm-1.8-3.02v-1.04c0-.56-.19-1.04-.56-1.44-.37-.4-.84-.6-1.39-.6-.69 0-1.23.25-1.61.76a3.44 3.44 0 0 0-.58 2.13c0 .79.19 1.42.56 1.89.37.47.87.71 1.48.71s1.13-.23 1.52-.68c.39-.45.59-1.03.59-1.73Zm17.96 3.66h-2.04l-1.01-2.85h-4.41l-.97 2.85h-2.03l4.2-11.2h2.09l4.16 11.2Zm-3.54-4.37-1.55-4.47c-.05-.15-.1-.38-.15-.7h-.03c-.05.3-.1.53-.16.7l-1.54 4.47h3.43Zm10.78-2.87-4.32 5.83h4.3v1.41h-6.84v-.68l4.41-5.91h-3.99v-1.41h6.44v.76Zm8.5 7.24h-1.81v-1.27h-.03a2.6 2.6 0 0 1-2.45 1.45c-1.89 0-2.84-1.14-2.84-3.41v-4.78h1.81v4.59c0 1.44.55 2.16 1.66 2.16.54 0 .98-.2 1.32-.59.35-.4.52-.91.52-1.55v-4.6h1.81v8Zm7-6.27a1.51 1.51 0 0 0-.95-.26c-.54 0-.98.24-1.34.73s-.54 1.14-.54 1.98v3.83h-1.81v-8h1.81v1.65h.03c.18-.56.45-1 .82-1.32.37-.31.78-.47 1.23-.47.33 0 .58.05.75.15v1.72Zm7.92 2.76H227c.02.74.25 1.31.68 1.71.43.4 1.03.6 1.79.6a3.9 3.9 0 0 0 2.35-.77v1.46c-.73.46-1.69.69-2.89.69s-2.1-.36-2.77-1.09c-.67-.73-1-1.75-1-3.07 0-1.24.37-2.26 1.11-3.04.74-.78 1.65-1.18 2.75-1.18s1.94.35 2.54 1.05c.6.7.9 1.68.9 2.93v.7Zm-1.75-1.28c0-.65-.16-1.16-.46-1.52-.3-.36-.72-.54-1.25-.54s-.96.19-1.32.57c-.36.38-.58.88-.67 1.49h3.7Zm15.89 4.32c-.84.44-1.89.66-3.15.66a5.15 5.15 0 0 1-3.91-1.54 5.6 5.6 0 0 1-1.47-4.04c0-1.79.55-3.24 1.65-4.34a5.67 5.67 0 0 1 4.18-1.66c1.08 0 1.98.15 2.7.46v1.84a4.8 4.8 0 0 0-2.5-.67c-1.21 0-2.2.39-2.95 1.16-.75.78-1.13 1.81-1.13 3.11s.35 2.22 1.05 2.95c.7.73 1.63 1.1 2.77 1.1 1.06 0 1.97-.25 2.75-.75v1.72Zm5.47.66a3.97 3.97 0 0 1-2.96-1.12 4.05 4.05 0 0 1-1.11-2.97c0-1.34.38-2.39 1.15-3.15.77-.75 1.8-1.13 3.11-1.13s2.22.37 2.92 1.1c.7.73 1.05 1.75 1.05 3.05s-.38 2.3-1.13 3.07a4.04 4.04 0 0 1-3.04 1.15Zm.09-6.93c-.71 0-1.27.25-1.68.74-.41.5-.62 1.18-.62 2.05s.21 1.5.62 1.98c.42.48.97.72 1.67.72s1.26-.24 1.64-.71c.38-.47.57-1.15.57-2.02s-.19-1.56-.57-2.04a1.97 1.97 0 0 0-1.64-.72Zm5.42 6.49v-1.68c.68.52 1.42.77 2.24.77 1.09 0 1.64-.32 1.64-.97a.76.76 0 0 0-.14-.46 1.27 1.27 0 0 0-.38-.34c-.16-.1-.35-.19-.56-.27l-.72-.27a9.35 9.35 0 0 1-.89-.41 2.86 2.86 0 0 1-.66-.5 1.71 1.71 0 0 1-.39-.63 2.28 2.28 0 0 1-.13-.82c0-.39.09-.73.27-1.02.18-.29.43-.54.73-.74.31-.2.66-.35 1.05-.45s.79-.15 1.21-.15c.74 0 1.4.11 1.98.34v1.59a3.31 3.31 0 0 0-2.56-.51c-.19.05-.34.11-.47.2a.86.86 0 0 0-.3.3.77.77 0 0 0-.11.39c0 .17.04.32.11.44s.18.23.32.32.31.17.52.25l.69.25c.34.14.65.28.93.43.27.15.51.31.7.5.19.19.34.4.45.64.1.24.16.53.16.86 0 .41-.09.76-.28 1.06-.19.3-.44.55-.75.75-.31.2-.67.35-1.08.44-.41.1-.84.14-1.29.14-.88 0-1.63-.15-2.27-.44Zm19.35.25h-1.81v-4.36c0-.84-.12-1.45-.36-1.82-.24-.38-.64-.56-1.2-.56-.47 0-.88.24-1.21.71a2.9 2.9 0 0 0-.5 1.7v4.33h-1.82v-4.51c0-1.49-.53-2.23-1.58-2.23-.49 0-.89.22-1.21.67a2.93 2.93 0 0 0-.47 1.74v4.33h-1.81v-8h1.81v1.27h.03a2.77 2.77 0 0 1 2.52-1.45 2.35 2.35 0 0 1 2.3 1.66 2.86 2.86 0 0 1 2.66-1.66c1.76 0 2.64 1.09 2.64 3.26v4.93Zm5.76.19a3.97 3.97 0 0 1-2.96-1.12 4.05 4.05 0 0 1-1.11-2.97c0-1.34.38-2.39 1.15-3.15.77-.75 1.8-1.13 3.11-1.13s2.22.37 2.92 1.1c.7.73 1.05 1.75 1.05 3.05s-.38 2.3-1.13 3.07a4.04 4.04 0 0 1-3.04 1.15Zm.09-6.93c-.71 0-1.27.25-1.68.74-.41.5-.62 1.18-.62 2.05s.21 1.5.62 1.98c.42.48.97.72 1.67.72s1.26-.24 1.64-.71c.38-.47.57-1.15.57-2.02s-.19-1.56-.57-2.04a1.97 1.97 0 0 0-1.64-.72Zm5.42 6.49v-1.68c.68.52 1.42.77 2.24.77 1.09 0 1.64-.32 1.64-.97a.76.76 0 0 0-.14-.46 1.27 1.27 0 0 0-.38-.34c-.16-.1-.35-.19-.56-.27l-.72-.27a9.35 9.35 0 0 1-.89-.41 2.86 2.86 0 0 1-.66-.5 1.71 1.71 0 0 1-.39-.63 2.28 2.28 0 0 1-.13-.82c0-.39.09-.73.27-1.02.18-.29.43-.54.73-.74.31-.2.66-.35 1.05-.45s.79-.15 1.21-.15c.74 0 1.4.11 1.98.34v1.59a3.31 3.31 0 0 0-2.56-.51c-.19.05-.34.11-.47.2a.86.86 0 0 0-.3.3.77.77 0 0 0-.11.39c0 .17.04.32.11.44s.18.23.32.32.31.17.52.25l.69.25c.34.14.65.28.93.43.27.15.51.31.7.5.19.19.34.4.45.64.1.24.16.53.16.86 0 .41-.09.76-.28 1.06-.19.3-.44.55-.75.75-.31.2-.67.35-1.08.44-.41.1-.84.14-1.29.14-.88 0-1.63-.15-2.27-.44Zm12 .25v-11.2h3.23c4.13 0 6.2 1.82 6.2 5.46 0 1.73-.57 3.12-1.72 4.17a6.56 6.56 0 0 1-4.61 1.57h-3.1Zm1.85-9.62v8.05h1.48c1.31 0 2.32-.36 3.05-1.08s1.09-1.73 1.09-3.05c0-2.62-1.36-3.93-4.07-3.93h-1.55Zm9.63 9.62v-11.2h3.55c1.08 0 1.94.24 2.57.71.63.47.95 1.09.95 1.85 0 .64-.18 1.19-.54 1.66s-.86.8-1.49 1v.03a2.9 2.9 0 0 1 1.85.86c.46.48.69 1.11.69 1.88 0 .96-.38 1.73-1.13 2.33s-1.71.89-2.86.89h-3.59Zm1.85-9.71v3.19h1.2c.65 0 1.15-.15 1.52-.46s.55-.74.55-1.29c0-.96-.64-1.44-1.92-1.44h-1.35Zm0 4.68v3.55h1.59c.69 0 1.23-.16 1.61-.48s.57-.76.57-1.32c0-1.16-.8-1.74-2.41-1.74h-1.34Zm20.02 4.56c-.84.44-1.89.66-3.15.66a5.15 5.15 0 0 1-3.91-1.54 5.6 5.6 0 0 1-1.47-4.04c0-1.79.55-3.24 1.65-4.34a5.67 5.67 0 0 1 4.18-1.66c1.08 0 1.98.15 2.7.46v1.84a4.78 4.78 0 0 0-2.5-.67c-1.21 0-2.2.39-2.95 1.16-.75.78-1.13 1.81-1.13 3.11s.35 2.22 1.05 2.95c.7.73 1.63 1.1 2.77 1.1 1.06 0 1.97-.25 2.75-.75v1.72Zm5.47.66a3.97 3.97 0 0 1-2.96-1.12 4.05 4.05 0 0 1-1.11-2.97c0-1.34.38-2.39 1.15-3.15.77-.75 1.8-1.13 3.11-1.13s2.22.37 2.92 1.1 1.05 1.75 1.05 3.05-.38 2.3-1.13 3.07a4.04 4.04 0 0 1-3.04 1.15Zm.09-6.93c-.71 0-1.27.25-1.68.74-.41.5-.62 1.18-.62 2.05s.21 1.5.62 1.98c.42.48.97.72 1.67.72s1.26-.24 1.64-.71c.38-.47.57-1.15.57-2.02s-.19-1.56-.57-2.04a1.97 1.97 0 0 0-1.64-.72Zm10.56.47a1.51 1.51 0 0 0-.95-.26c-.54 0-.98.24-1.34.73s-.54 1.14-.54 1.98v3.83h-1.81v-8h1.81v1.65h.03c.18-.56.45-1 .82-1.32.37-.31.78-.47 1.23-.47.33 0 .58.05.75.15v1.72Zm7.91 2.76h-5.45c.02.74.25 1.31.68 1.71.43.4 1.03.6 1.79.6a3.9 3.9 0 0 0 2.35-.77v1.46c-.73.46-1.69.69-2.89.69s-2.1-.36-2.77-1.09-1-1.75-1-3.07c0-1.24.37-2.26 1.11-3.04.74-.78 1.65-1.18 2.75-1.18s1.94.35 2.54 1.05.9 1.68.9 2.93v.7Zm-1.75-1.28c0-.65-.16-1.16-.46-1.52-.3-.36-.72-.54-1.25-.54s-.96.19-1.32.57c-.36.38-.58.88-.67 1.49h3.7Zm11.85 7.34h-1.53c-1.65-1.84-2.47-4.12-2.47-6.82s.82-5.02 2.47-6.93h1.54c-1.61 1.98-2.42 4.28-2.42 6.91s.8 4.89 2.41 6.84Zm1.03-3v-1.91c.17.16.38.3.61.42s.49.23.75.32.53.15.8.2.51.07.73.07c.78 0 1.36-.13 1.75-.39.38-.26.57-.64.57-1.13 0-.27-.06-.5-.19-.69s-.31-.37-.54-.54c-.23-.16-.5-.32-.81-.46l-1-.46c-.38-.2-.73-.41-1.06-.62a5 5 0 0 1-.86-.69 2.76 2.76 0 0 1-.78-1.98c0-.53.12-.98.36-1.37.24-.39.55-.71.94-.96.39-.25.83-.44 1.32-.56.5-.12 1-.18 1.52-.18 1.17 0 2.03.13 2.56.4v1.84a4.08 4.08 0 0 0-2.45-.69c-.28 0-.55.03-.82.08-.27.05-.52.14-.73.26-.22.12-.39.27-.53.46s-.2.41-.2.68c0 .25.05.47.16.65.1.18.26.35.46.5.2.15.45.3.73.44.29.14.62.3 1 .46.39.2.76.42 1.11.64.35.22.65.47.91.74s.47.57.62.9c.15.33.23.71.23 1.13 0 .57-.11 1.05-.34 1.44s-.54.71-.93.95a4 4 0 0 1-1.34.53 7.55 7.55 0 0 1-3.13 0c-.29-.05-.56-.12-.81-.2s-.46-.17-.62-.27Zm13.84.64c-.81 0-1.54-.14-2.2-.41s-1.22-.66-1.68-1.16a5.35 5.35 0 0 1-1.08-1.79 6.72 6.72 0 0 1-.38-2.3c0-.9.13-1.71.39-2.44s.62-1.35 1.1-1.87 1.06-.91 1.74-1.2 1.45-.42 2.29-.42c.78 0 1.5.14 2.14.41a4.78 4.78 0 0 1 2.73 2.95c.25.69.38 1.46.38 2.29 0 1.1-.18 2.07-.55 2.9-.37.83-.89 1.5-1.56 2l3.25 2.34h-2.83l-2-1.55a7.17 7.17 0 0 1-1.73.23Zm.09-9.95a3.23 3.23 0 0 0-2.5 1.15 3.8 3.8 0 0 0-.71 1.32c-.17.51-.25 1.08-.25 1.7s.08 1.19.25 1.7c.16.51.39.95.69 1.31a3.12 3.12 0 0 0 2.45 1.14c.54 0 1.02-.09 1.45-.28s.79-.46 1.09-.81.53-.78.69-1.29a6.5 6.5 0 0 0 .01-3.52 3.9 3.9 0 0 0-.67-1.32c-.29-.36-.65-.63-1.07-.82s-.89-.28-1.42-.28Zm13.59 9.76h-6.2v-11.2h1.86v9.63h4.34v1.57Zm1.93 2.55h-1.53c1.61-1.95 2.42-4.23 2.42-6.84s-.81-4.93-2.43-6.91h1.55c1.65 1.91 2.48 4.22 2.48 6.93s-.83 4.98-2.48 6.82Zm18.6-2.55h-2.04l-1.01-2.85h-4.41l-.97 2.85h-2.03l4.2-11.2h2.09l4.16 11.2Zm-3.54-4.37-1.55-4.47c-.05-.15-.1-.38-.15-.7h-.03c-.05.3-.1.53-.16.7l-1.54 4.47h3.43Zm6.93.31v4.06h-1.85v-11.2h3.4c1.29 0 2.28.3 2.99.9.71.6 1.06 1.44 1.06 2.53s-.37 1.98-1.11 2.67a4.23 4.23 0 0 1-3 1.04h-1.49Zm0-5.61v4.09h1.2c.8 0 1.4-.18 1.82-.55.42-.37.62-.89.62-1.56 0-1.32-.77-1.98-2.3-1.98h-1.35Zm9.41 9.67h-1.91v-11.2h1.91v11.2Z"/>
  <path fill="#50e6ff" d="M288.97 400.37a2.62 2.62 0 0 1-2.63-2.6v-.03a30.1 30.1 0 0 0-30.06-30.06 2.63 2.63 0 0 1-2.63-2.62 2.63 2.63 0 0 1 2.63-2.63 30.1 30.1 0 0 0 30.06-30.07 2.62 2.62 0 0 1 2.6-2.63h.03a2.62 2.62 0 0 1 2.63 2.6v.03a30.1 30.1 0 0 0 30.06 30.06 2.62 2.62 0 0 1 2.63 2.6v.03a2.62 2.62 0 0 1-2.6 2.63h-.03a30.1 30.1 0 0 0-30.06 30.06 2.64 2.64 0 0 1-2.63 2.63Zm189.36 182.37a2.11 2.11 0 0 1-2.11-2.11 24.07 24.07 0 0 0-24.04-24.04c-1.16 0-2.1-.94-2.11-2.09 0-1.16.94-2.11 2.11-2.11a24.06 24.06 0 0 0 24.04-24.04 2.11 2.11 0 0 1 4.22 0 24.06 24.06 0 0 0 24.04 24.04 2.11 2.11 0 0 1 0 4.22 24.07 24.07 0 0 0-24.04 24.04 2.1 2.1 0 0 1-2.11 2.09Z"/>
  <path fill="url(#b)" d="M468.72 434.24a91.81 91.81 0 0 1-67.97 110.63 91.81 91.81 0 0 1-110.63-67.97 91.81 91.81 0 0 1 67.97-110.63 91.81 91.81 0 0 1 110.63 67.97Z"/>
  <g fill="#f2f2f2" clip-path="url(#c)">
    <path d="M330.19 517.79a24.52 24.52 0 1 0 .07-49c.07-.7.11-1.4.1-2.09a24.7 24.7 0 0 0-24.85-24.48h-18.37A93.52 93.52 0 0 0 311 517.79h19.18Zm139.67-79.29c0-.22 0-.45-.1-.66a89.46 89.46 0 0 0-21.03-43.09 27.37 27.37 0 0 0-4.32-1.35 27.01 27.01 0 0 0-34.4 24.88 25.99 25.99 0 0 0-11.68 50.28 21.74 21.74 0 0 0 8.09 1.5h30.37a201 201 0 0 0 33.09-31.57Z"/>
  </g>
  <path fill="#50e6ff" d="M501.96 378.92c-9.41-15.66-31.42-21.77-62.16-17.19a218.33 218.33 0 0 0-31.15 6.76 96.6 96.6 0 0 1 22.86 11.47c3.61-.79 7.23-1.74 10.7-2.26 5.46-.85 10.98-1.3 16.5-1.33a32.73 32.73 0 0 1 29.31 10.85c5.73 9.54.9 25.87-13.26 44.88a250.3 250.3 0 0 1-71.05 60.61 250.8 250.8 0 0 1-87.13 33.84c-23.4 3.5-40.12 0-45.85-9.51s-.9-25.88 13.26-44.81c1.75-2.35 2.18-3.5 4.17-5.86a93.5 93.5 0 0 1 .39-24.39 172.96 172.96 0 0 0-17.5 20.53c-18.54 24.79-23.56 47.08-14.17 62.74a47.38 47.38 0 0 0 43.39 18.69 124.9 124.9 0 0 0 18.72-1.5 266.94 266.94 0 0 0 93.04-35.91 266.57 266.57 0 0 0 75.72-64.81c18.6-24.85 23.62-47.13 14.23-62.8Z"/>
</svg>