<?xml version="1.0" encoding="UTF-8"?><svg id="Layer_1" xmlns="http://www.w3.org/2000/svg" xmlns:xlink="http://www.w3.org/1999/xlink" viewBox="0 0 2550 2167"><defs><clipPath id="clippath"><rect x="34" y="272" width="2482" height="1647" style="fill:none;"/></clipPath><clipPath id="clippath-1"><rect x="36" y="1" width="826" height="694" style="fill:none;"/></clipPath><clipPath id="clippath-2"><rect x="36" y="135" width="166" height="694" style="fill:none;"/></clipPath><clipPath id="clippath-3"><rect x="201" y="135" width="661" height="694" style="fill:none;"/></clipPath><clipPath id="clippath-4"><rect x="201" y="268" width="661" height="694" style="fill:none;"/></clipPath><clipPath id="clippath-5"><rect x="201" y="402" width="661" height="694" style="fill:none;"/></clipPath><clipPath id="clippath-6"><rect x="201" y="536" width="661" height="694" style="fill:none;"/></clipPath><clipPath id="clippath-7"><rect x="201" y="670" width="661" height="694" style="fill:none;"/></clipPath><clipPath id="clippath-8"><rect x="201" y="804" width="661" height="694" style="fill:none;"/></clipPath><clipPath id="clippath-9"><rect x="201" y="938" width="661" height="694" style="fill:none;"/></clipPath><clipPath id="clippath-10"><rect x="201" y="1071" width="661" height="694" style="fill:none;"/></clipPath><clipPath id="clippath-11"><rect x="201" y="1205" width="661" height="694" style="fill:none;"/></clipPath><clipPath id="clippath-12"><rect x="201" y="1339" width="661" height="694" style="fill:none;"/></clipPath><clipPath id="clippath-13"><rect x="201" y="1473" width="661" height="694" style="fill:none;"/></clipPath><clipPath id="clippath-14"><rect x="1521" width="991" height="694" style="fill:none;"/></clipPath><clipPath id="clippath-15"><rect x="1521" y="134" width="199" height="694" style="fill:none;"/></clipPath><clipPath id="clippath-16"><rect x="1719" y="134" width="793" height="694" style="fill:none;"/></clipPath><clipPath id="clippath-17"><rect x="1719" y="268" width="793" height="694" style="fill:none;"/></clipPath><clipPath id="clippath-18"><rect x="1719" y="402" width="793" height="694" style="fill:none;"/></clipPath><clipPath id="clippath-19"><rect x="1719" y="535" width="793" height="694" style="fill:none;"/></clipPath><clipPath id="clippath-20"><rect x="1719" y="669" width="793" height="694" style="fill:none;"/></clipPath></defs><rect y="246.9" width="2550" height="1697.21" style="fill:#fff;"/><g style="clip-path:url(#clippath);"><path d="M861,604h660" style="fill:none; stroke:#505050; stroke-linejoin:round; stroke-width:10.31px;"/><rect x="861" y="565" width="89" height="78" style="fill:#fff;"/><path d="M919.2,573.09c2.44,0,4.72,.48,6.86,1.44,2.14,.96,3.99,2.26,5.56,3.89,1.57,1.64,2.81,3.54,3.72,5.7,.91,2.17,1.36,4.47,1.36,6.91s-.46,4.81-1.38,7-2.18,4.09-3.78,5.72c-1.6,1.62-3.49,2.91-5.66,3.86-2.17,.95-4.5,1.42-7,1.42-2.29,0-4.51-.43-6.66-1.28l-8.03,8.03c-.23,.23-.48,.41-.77,.55-.28,.14-.58,.2-.89,.2-.29,0-.57-.04-.84-.11s-.55-.11-.84-.11c-.48,0-.95,.07-1.42,.22-.47,.15-.88,.38-1.23,.69-.42,.35-.7,.73-.86,1.12-.16,.4-.27,.79-.34,1.19-.07,.4-.14,.78-.2,1.14-.06,.36-.2,.69-.41,.97s-.53,.51-.97,.67-1.07,.25-1.91,.25c-.44,0-.83,.11-1.17,.34-.34,.23-.64,.52-.88,.86-.24,.34-.42,.72-.53,1.12-.11,.41-.17,.8-.17,1.17,0,.35,.05,.68,.16,.98,.1,.3,.16,.62,.16,.95,0,.56-.2,1.06-.59,1.5-.65,.71-1.36,1.45-2.16,2.22-.79,.77-1.54,1.49-2.25,2.16s-1.48,1.18-2.31,1.55c-.83,.36-1.75,.55-2.75,.55s-1.88-.18-2.75-.55c-.88-.36-1.64-.86-2.3-1.48-.66-.62-1.18-1.36-1.56-2.22-.39-.85-.58-1.77-.58-2.75s.2-1.97,.59-2.92c.4-.95,.95-1.78,1.66-2.48l26.06-26.09c-.44-1.12-.78-2.21-1.02-3.25-.24-1.04-.36-2.16-.36-3.34,0-2.48,.51-4.8,1.52-6.97,1.01-2.17,2.36-4.05,4.06-5.66,1.7-1.6,3.66-2.86,5.88-3.78,2.22-.92,4.55-1.38,6.98-1.38Zm2.56,11.56c0,.58,.1,1.13,.31,1.64,.21,.51,.5,.95,.88,1.33s.82,.67,1.33,.89c.51,.22,1.06,.33,1.64,.33s1.12-.11,1.62-.33c.5-.22,.94-.52,1.31-.91,.38-.39,.67-.83,.88-1.34,.21-.51,.31-1.05,.31-1.61s-.11-1.13-.33-1.64c-.22-.51-.52-.95-.89-1.33s-.81-.67-1.31-.89c-.5-.22-1.04-.33-1.62-.33s-1.12,.11-1.62,.33c-.5,.22-.94,.52-1.31,.89s-.67,.82-.88,1.33c-.21,.51-.31,1.06-.31,1.64Z" style="fill:#f9c23c;"/><rect x="1432" y="565" width="89" height="78" style="fill:#fff;"/><path d="M1491.65,588.81c2.19,0,4.24,.42,6.17,1.25s3.61,1.96,5.05,3.39c1.44,1.43,2.57,3.1,3.41,5.03,.83,1.93,1.25,3.98,1.25,6.17s-.42,4.24-1.25,6.16c-.83,1.92-1.96,3.59-3.39,5.02-1.43,1.43-3.1,2.56-5.02,3.39-1.92,.83-3.97,1.25-6.16,1.25-.88,0-1.81-.09-2.8-.28-.99-.19-1.96-.46-2.92-.81s-1.86-.79-2.72-1.3c-.85-.51-1.58-1.09-2.19-1.73-.35-.4-.64-.79-.84-1.17s-.31-.85-.31-1.39c0-.48,.09-.93,.27-1.34,.18-.42,.42-.78,.73-1.08s.68-.54,1.09-.72c.42-.18,.86-.27,1.34-.27,.58,0,1.13,.17,1.64,.5,.51,.33,1.07,.7,1.69,1.11,.61,.41,1.32,.78,2.11,1.11,.79,.33,1.76,.5,2.91,.5,1.23,0,2.39-.23,3.47-.7,1.08-.47,2.03-1.11,2.83-1.92s1.44-1.76,1.91-2.84c.47-1.08,.7-2.24,.7-3.47s-.23-2.42-.69-3.52c-.46-1.09-1.08-2.04-1.88-2.84-.79-.8-1.73-1.44-2.83-1.91-1.09-.47-2.27-.7-3.52-.7-1.62,0-3.03,.35-4.2,1.05-1.18,.7-2.27,1.67-3.27,2.92-1.38,1.77-2.73,3.55-4.06,5.33-1.33,1.78-2.68,3.56-4.03,5.33-.56,.75-1.12,1.49-1.69,2.23s-1.15,1.47-1.75,2.2c-.73,.92-1.56,1.72-2.48,2.42-.93,.7-1.91,1.29-2.95,1.78-1.04,.49-2.13,.86-3.27,1.11s-2.29,.38-3.45,.38c-2.19,0-4.24-.42-6.16-1.25-1.92-.83-3.59-1.96-5.02-3.39-1.43-1.43-2.56-3.1-3.39-5.02-.83-1.92-1.25-3.97-1.25-6.16s.39-4.36,1.17-6.27c.78-1.91,1.86-3.55,3.25-4.92,1.39-1.38,3.04-2.45,4.95-3.22,1.92-.77,4.01-1.16,6.28-1.16,.88,0,1.82,.08,2.84,.25,1.02,.17,2.03,.42,3.02,.75,.99,.33,1.93,.75,2.81,1.25,.89,.5,1.63,1.08,2.23,1.75,.35,.38,.62,.75,.8,1.12,.18,.38,.27,.82,.27,1.34,0,.46-.09,.89-.27,1.3-.18,.41-.42,.77-.73,1.08s-.68,.56-1.09,.73c-.42,.18-.85,.27-1.31,.27-.58,0-1.14-.17-1.66-.5-.52-.33-1.09-.7-1.7-1.09-.61-.4-1.32-.76-2.13-1.09-.8-.33-1.78-.5-2.92-.5-1.23,0-2.39,.23-3.47,.7-1.08,.47-2.03,1.1-2.84,1.91-.81,.8-1.45,1.74-1.92,2.83-.47,1.08-.7,2.24-.7,3.47s.23,2.42,.69,3.5,1.09,2.03,1.89,2.83c.8,.8,1.74,1.44,2.83,1.91,1.08,.47,2.25,.7,3.5,.7,1.62,0,3.05-.36,4.28-1.08,1.23-.72,2.32-1.7,3.28-2.95l3.72-4.91,4.31-5.69c.56-.75,1.12-1.49,1.69-2.23,.56-.74,1.15-1.47,1.75-2.2,.73-.9,1.55-1.7,2.47-2.41,.92-.71,1.89-1.31,2.92-1.8,1.03-.49,2.11-.86,3.25-1.11,1.14-.25,2.29-.38,3.45-.38Z" style="fill:#00a6ed;"/><path d="M36.33,281.72H861.33v133.83H36.33v-133.83Z" style="fill:#d2d2d2; fill-rule:evenodd;"/><path d="M201.33,413.26V1890.01" style="fill:none; stroke:#c7c7c7; stroke-linejoin:round; stroke-width:4.58px;"/><path d="M34.04,415.55H863.62" style="fill:none; stroke:#c7c7c7; stroke-linejoin:round; stroke-width:4.58px;"/><path d="M34.04,549.39H863.62" style="fill:none; stroke:#c7c7c7; stroke-linejoin:round; stroke-width:4.58px;"/><path d="M34.04,683.22H863.62" style="fill:none; stroke:#c7c7c7; stroke-linejoin:round; stroke-width:4.58px;"/><path d="M34.04,817.05H863.62" style="fill:none; stroke:#c7c7c7; stroke-linejoin:round; stroke-width:4.58px;"/><path d="M34.04,950.89H863.62" style="fill:none; stroke:#c7c7c7; stroke-linejoin:round; stroke-width:4.58px;"/><path d="M34.04,1084.72H863.62" style="fill:none; stroke:#c7c7c7; stroke-linejoin:round; stroke-width:4.58px;"/><path d="M34.04,1218.56H863.62" style="fill:none; stroke:#c7c7c7; stroke-linejoin:round; stroke-width:4.58px;"/><path d="M34.04,1352.39H863.62" style="fill:none; stroke:#c7c7c7; stroke-linejoin:round; stroke-width:4.58px;"/><path d="M34.04,1486.22H863.62" style="fill:none; stroke:#c7c7c7; stroke-linejoin:round; stroke-width:4.58px;"/><path d="M34.04,1620.06H863.62" style="fill:none; stroke:#c7c7c7; stroke-linejoin:round; stroke-width:4.58px;"/><path d="M34.04,1753.89H863.62" style="fill:none; stroke:#c7c7c7; stroke-linejoin:round; stroke-width:4.58px;"/><path d="M36.33,279.43V1890.01" style="fill:none; stroke:#c7c7c7; stroke-linejoin:round; stroke-width:4.58px;"/><path d="M861.33,279.43V1890.01" style="fill:none; stroke:#c7c7c7; stroke-linejoin:round; stroke-width:4.58px;"/><path d="M34.04,281.72H863.62" style="fill:none; stroke:#c7c7c7; stroke-linejoin:round; stroke-width:4.58px;"/><path d="M34.04,1887.72H863.62" style="fill:none; stroke:#c7c7c7; stroke-linejoin:round; stroke-width:4.58px;"/><g style="clip-path:url(#clippath-1);"><g style="isolation:isolate;"><path d="M72.94,347.66c0-6.05,.9-11.13,2.72-15.24,1.35-3.03,3.19-5.74,5.53-8.15,2.34-2.4,4.9-4.19,7.68-5.35,3.7-1.57,7.97-2.35,12.81-2.35,8.75,0,15.76,2.71,21.01,8.15,5.25,5.43,7.88,12.98,7.88,22.66s-2.61,17.1-7.82,22.51c-5.21,5.42-12.19,8.13-20.91,8.13s-15.86-2.7-21.07-8.09c-5.21-5.39-7.82-12.81-7.82-22.27Zm12.36-.41c0,6.73,1.55,11.83,4.66,15.3,3.11,3.47,7.05,5.21,11.83,5.21s8.71-1.72,11.77-5.17c3.07-3.45,4.6-8.61,4.6-15.5s-1.49-11.89-4.48-15.24c-2.99-3.35-6.95-5.03-11.9-5.03s-8.93,1.7-11.96,5.09c-3.03,3.39-4.54,8.5-4.54,15.34Z"/><path d="M150.75,377h-11.39v-43.04h10.58v6.12c1.81-2.89,3.44-4.8,4.88-5.71,1.44-.92,3.09-1.38,4.92-1.38,2.59,0,5.09,.72,7.5,2.15l-3.53,9.93c-1.92-1.24-3.7-1.86-5.35-1.86s-2.95,.44-4.05,1.32c-1.11,.88-1.98,2.47-2.61,4.76-.63,2.3-.95,7.11-.95,14.43v13.29Z"/><path d="M211.62,377h-10.58v-6.32c-1.76,2.46-3.83,4.29-6.22,5.49-2.39,1.2-4.8,1.8-7.23,1.8-4.94,0-9.18-1.99-12.71-5.98-3.53-3.99-5.29-9.54-5.29-16.68s1.72-12.84,5.15-16.64c3.43-3.8,7.77-5.69,13.01-5.69,4.81,0,8.97,2,12.48,6v-21.4h11.39v59.41Zm-30.4-22.45c0,4.59,.63,7.92,1.9,9.97,1.84,2.97,4.4,4.46,7.7,4.46,2.62,0,4.85-1.11,6.69-3.34,1.84-2.23,2.76-5.56,2.76-9.99,0-4.95-.89-8.5-2.67-10.68-1.78-2.17-4.07-3.26-6.85-3.26s-4.96,1.07-6.79,3.22c-1.82,2.15-2.74,5.36-2.74,9.62Z"/><path d="M247.77,363.3l11.35,1.91c-1.46,4.16-3.76,7.33-6.91,9.5-3.15,2.18-7.09,3.26-11.81,3.26-7.48,0-13.02-2.45-16.62-7.34-2.84-3.92-4.26-8.86-4.26-14.83,0-7.13,1.86-12.72,5.59-16.76,3.73-4.04,8.44-6.06,14.14-6.06,6.4,0,11.46,2.11,15.16,6.34,3.7,4.23,5.47,10.71,5.31,19.43h-28.53c.08,3.38,1,6,2.76,7.88,1.76,1.88,3.94,2.82,6.57,2.82,1.78,0,3.28-.49,4.5-1.46s2.13-2.54,2.76-4.7Zm.65-11.51c-.08-3.3-.93-5.8-2.55-7.52s-3.59-2.57-5.92-2.57c-2.49,0-4.54,.91-6.16,2.71-1.62,1.81-2.42,4.27-2.39,7.38h17.02Z"/><path d="M279.91,377h-11.39v-43.04h10.58v6.12c1.81-2.89,3.44-4.8,4.88-5.71,1.44-.92,3.09-1.38,4.92-1.38,2.59,0,5.09,.72,7.5,2.15l-3.53,9.93c-1.92-1.24-3.7-1.86-5.35-1.86s-2.95,.44-4.05,1.32c-1.11,.88-1.98,2.47-2.61,4.76-.63,2.3-.95,7.11-.95,14.43v13.29Z"/><path d="M297.3,364.72l11.43-1.74c.49,2.22,1.47,3.9,2.96,5.05,1.49,1.15,3.57,1.72,6.24,1.72,2.94,0,5.16-.54,6.65-1.62,1-.76,1.5-1.77,1.5-3.04,0-.86-.27-1.58-.81-2.15-.57-.54-1.84-1.04-3.81-1.5-9.19-2.03-15.01-3.88-17.47-5.55-3.4-2.32-5.11-5.55-5.11-9.69,0-3.73,1.47-6.86,4.42-9.4,2.94-2.54,7.51-3.81,13.7-3.81s10.27,.96,13.13,2.88c2.86,1.92,4.84,4.75,5.92,8.51l-10.74,1.99c-.46-1.67-1.33-2.96-2.61-3.85-1.28-.89-3.11-1.34-5.49-1.34-3,0-5.15,.42-6.44,1.26-.87,.59-1.3,1.37-1.3,2.31,0,.81,.38,1.5,1.13,2.07,1.03,.76,4.57,1.82,10.64,3.2,6.06,1.38,10.3,3.07,12.71,5.07,2.38,2.03,3.57,4.85,3.57,8.47,0,3.95-1.65,7.34-4.94,10.17-3.3,2.84-8.17,4.26-14.63,4.26-5.86,0-10.5-1.19-13.92-3.57-3.42-2.38-5.65-5.61-6.71-9.69Z"/><path d="M389.42,394.47h-7.82c-4.13-6.24-7.28-12.72-9.44-19.45-2.16-6.73-3.24-13.24-3.24-19.53,0-7.81,1.34-15.2,4.01-22.17,2.32-6.05,5.27-11.63,8.83-16.74h7.78c-3.7,8.19-6.25,15.15-7.64,20.89s-2.09,11.83-2.09,18.26c0,4.43,.41,8.97,1.24,13.62,.82,4.65,1.95,9.06,3.38,13.25,.95,2.76,2.61,6.71,4.98,11.87Z"/></g></g><g style="isolation:isolate;"><path d="M449.26,382.48h-10.58v-6.32c-1.76,2.46-3.83,4.29-6.22,5.49-2.39,1.2-4.8,1.8-7.23,1.8-4.94,0-9.18-1.99-12.71-5.98-3.53-3.99-5.29-9.54-5.29-16.68s1.72-12.84,5.15-16.64c3.43-3.8,7.77-5.69,13.01-5.69,4.81,0,8.97,2,12.48,6v-21.4h11.39v59.41Zm-30.4-22.45c0,4.59,.63,7.92,1.9,9.97,1.84,2.97,4.4,4.46,7.7,4.46,2.62,0,4.85-1.11,6.69-3.34,1.84-2.23,2.76-5.56,2.76-9.99,0-4.95-.89-8.5-2.67-10.68-1.78-2.17-4.07-3.26-6.85-3.26s-4.96,1.07-6.79,3.22c-1.82,2.15-2.74,5.36-2.74,9.62Z"/><path d="M460,382.48v-59.41h11.39v21.4c3.51-4,7.67-6,12.48-6,5.24,0,9.58,1.9,13.01,5.69,3.43,3.8,5.15,9.25,5.15,16.35s-1.75,13.01-5.25,16.98c-3.5,3.97-7.75,5.96-12.75,5.96-2.46,0-4.88-.62-7.27-1.84-2.39-1.23-4.45-3.05-6.18-5.45v6.32h-10.58Zm11.31-22.45c0,4.46,.7,7.75,2.11,9.89,1.97,3.03,4.59,4.54,7.86,4.54,2.51,0,4.65-1.07,6.42-3.22,1.77-2.15,2.65-5.53,2.65-10.15,0-4.92-.89-8.46-2.67-10.64-1.78-2.17-4.07-3.26-6.85-3.26s-5,1.06-6.81,3.18c-1.81,2.12-2.72,5.34-2.72,9.67Z"/><path d="M508.55,360.35c0-3.78,.93-7.44,2.8-10.98,1.86-3.54,4.5-6.24,7.92-8.11,3.42-1.86,7.23-2.8,11.45-2.8,6.51,0,11.85,2.11,16.01,6.34,4.16,4.23,6.24,9.57,6.24,16.03s-2.1,11.91-6.3,16.19c-4.2,4.28-9.49,6.42-15.87,6.42-3.95,0-7.71-.89-11.29-2.67-3.58-1.78-6.3-4.4-8.17-7.84-1.86-3.45-2.8-7.64-2.8-12.58Zm11.67,.61c0,4.27,1.01,7.54,3.04,9.81s4.52,3.4,7.5,3.4,5.46-1.13,7.48-3.4c2.01-2.27,3.02-5.57,3.02-9.89s-1.01-7.46-3.02-9.73c-2.01-2.27-4.51-3.4-7.48-3.4s-5.47,1.13-7.5,3.4-3.04,5.54-3.04,9.81Z"/></g><g style="isolation:isolate;"><path d="M555.75,393.47c2.24-4.81,3.82-8.5,4.74-11.06,.92-2.57,1.77-5.53,2.55-8.88,.78-3.35,1.36-6.53,1.74-9.54,.38-3.01,.57-6.1,.57-9.26,0-6.43-.69-12.52-2.07-18.26s-3.92-12.71-7.62-20.89h7.74c4.08,5.81,7.25,11.97,9.5,18.48,2.26,6.51,3.38,13.12,3.38,19.82,0,5.65-.89,11.7-2.67,18.16-2.03,7.24-5.36,14.39-10.01,21.44h-7.86Z"/></g><g style="clip-path:url(#clippath-2);"><path d="M144.39,441.09c3.16,0,6.13,.62,8.9,1.86,2.77,1.24,5.17,2.92,7.21,5.05,2.04,2.12,3.65,4.59,4.82,7.4,1.18,2.81,1.76,5.8,1.76,8.96s-.59,6.24-1.78,9.08c-1.19,2.84-2.82,5.31-4.9,7.42-2.08,2.11-4.53,3.78-7.34,5.01s-5.84,1.84-9.08,1.84c-2.97,0-5.85-.55-8.63-1.66l-10.42,10.42c-.3,.3-.63,.53-.99,.71-.36,.18-.75,.26-1.15,.26-.38,0-.74-.05-1.09-.14-.35-.09-.72-.14-1.09-.14-.62,0-1.24,.09-1.84,.28-.61,.19-1.14,.49-1.6,.89-.54,.46-.91,.95-1.11,1.46-.2,.51-.35,1.03-.45,1.54-.09,.51-.18,1.01-.26,1.48-.08,.47-.26,.89-.53,1.26-.27,.36-.69,.66-1.26,.87-.57,.22-1.39,.32-2.47,.32-.57,0-1.07,.15-1.52,.45-.45,.3-.82,.67-1.13,1.11-.31,.45-.54,.93-.69,1.46-.15,.53-.22,1.03-.22,1.52,0,.46,.07,.88,.2,1.28,.14,.39,.2,.8,.2,1.24,0,.73-.26,1.38-.77,1.95-.84,.92-1.77,1.88-2.8,2.88-1.03,1-2,1.93-2.92,2.8-.92,.86-1.92,1.53-3,2.01-1.08,.47-2.27,.71-3.57,.71s-2.43-.24-3.57-.71c-1.13-.47-2.13-1.11-2.98-1.93-.85-.81-1.53-1.77-2.03-2.88-.5-1.11-.75-2.3-.75-3.57s.26-2.56,.77-3.79c.51-1.23,1.23-2.3,2.15-3.22l33.8-33.84c-.57-1.46-1.01-2.86-1.32-4.21-.31-1.35-.47-2.8-.47-4.34,0-3.22,.66-6.23,1.97-9.04,1.31-2.81,3.07-5.26,5.27-7.34,2.2-2.08,4.74-3.72,7.62-4.9,2.88-1.19,5.9-1.78,9.06-1.78Zm3.32,15c0,.76,.14,1.47,.41,2.13,.27,.66,.65,1.24,1.13,1.72,.49,.49,1.06,.87,1.72,1.15,.66,.28,1.37,.43,2.13,.43s1.46-.14,2.11-.43c.65-.28,1.22-.68,1.7-1.18,.49-.5,.86-1.08,1.13-1.74,.27-.66,.41-1.36,.41-2.09s-.14-1.47-.43-2.13c-.28-.66-.67-1.24-1.15-1.72-.49-.49-1.05-.87-1.7-1.16s-1.35-.43-2.11-.43-1.46,.14-2.11,.43c-.65,.28-1.22,.67-1.7,1.16-.49,.49-.86,1.06-1.13,1.72-.27,.66-.41,1.37-.41,2.13Z" style="fill:#f9c23c;"/></g><g style="clip-path:url(#clippath-3);"><g style="isolation:isolate;"><path d="M238.35,482.06c0-9.86,2.65-17.58,7.94-23.16,5.29-5.58,12.13-8.37,20.51-8.37,5.48,0,10.43,1.31,14.83,3.93,4.4,2.62,7.76,6.28,10.07,10.96,2.31,4.69,3.47,10,3.47,15.95s-1.22,11.42-3.65,16.17c-2.43,4.76-5.88,8.36-10.33,10.8s-9.27,3.67-14.43,3.67c-5.59,0-10.59-1.35-15-4.05-4.4-2.7-7.74-6.39-10.01-11.06-2.27-4.67-3.4-9.62-3.4-14.83Zm8.11,.12c0,7.16,1.93,12.8,5.77,16.92,3.85,4.12,8.68,6.18,14.49,6.18s10.79-2.08,14.61-6.24c3.82-4.16,5.73-10.06,5.73-17.71,0-4.84-.82-9.06-2.45-12.67-1.64-3.61-4.03-6.4-7.17-8.39-3.15-1.99-6.68-2.98-10.6-2.98-5.57,0-10.35,1.91-14.37,5.74-4.01,3.82-6.02,10.21-6.02,19.15Z"/><path d="M304.28,511v-43.04h6.57v6.52c1.67-3.05,3.22-5.07,4.64-6.04,1.42-.97,2.98-1.46,4.68-1.46,2.46,0,4.96,.78,7.5,2.35l-2.51,6.77c-1.78-1.05-3.57-1.58-5.35-1.58-1.59,0-3.03,.48-4.3,1.44-1.27,.96-2.18,2.29-2.72,3.99-.81,2.59-1.22,5.43-1.22,8.51v22.53h-7.29Z"/><path d="M359.93,511v-5.43c-2.73,4.27-6.74,6.4-12.04,6.4-3.43,0-6.59-.95-9.46-2.84-2.88-1.89-5.11-4.53-6.69-7.92-1.58-3.39-2.37-7.29-2.37-11.69s.72-8.19,2.15-11.69c1.43-3.5,3.58-6.18,6.44-8.04,2.86-1.86,6.06-2.8,9.6-2.8,2.59,0,4.9,.55,6.93,1.64,2.03,1.09,3.67,2.52,4.94,4.28v-21.32h7.25v59.41h-6.77Zm-23.06-21.48c0,5.51,1.16,9.63,3.49,12.36,2.32,2.73,5.07,4.09,8.23,4.09s5.9-1.3,8.13-3.91c2.23-2.61,3.34-6.58,3.34-11.93,0-5.89-1.13-10.21-3.4-12.97s-5.07-4.13-8.39-4.13-5.95,1.32-8.13,3.97c-2.17,2.65-3.26,6.82-3.26,12.52Z"/><path d="M407.63,497.14l7.54,.93c-1.19,4.4-3.39,7.82-6.61,10.25-3.22,2.43-7.32,3.65-12.32,3.65-6.3,0-11.29-1.94-14.98-5.82-3.69-3.88-5.53-9.31-5.53-16.31s1.86-12.86,5.59-16.86c3.73-4,8.56-6,14.51-6s10.46,1.96,14.1,5.88c3.65,3.92,5.47,9.43,5.47,16.54,0,.43-.01,1.08-.04,1.95h-32.1c.27,4.73,1.61,8.35,4.01,10.86,2.4,2.51,5.4,3.77,9,3.77,2.67,0,4.96-.7,6.85-2.11,1.89-1.4,3.39-3.65,4.5-6.73Zm-23.95-11.79h24.03c-.32-3.62-1.24-6.33-2.76-8.15-2.32-2.81-5.34-4.21-9.04-4.21-3.35,0-6.17,1.12-8.45,3.36-2.28,2.24-3.55,5.24-3.79,9Z"/><path d="M424.24,511v-43.04h6.57v6.52c1.67-3.05,3.22-5.07,4.64-6.04,1.42-.97,2.98-1.46,4.68-1.46,2.46,0,4.96,.78,7.5,2.35l-2.51,6.77c-1.78-1.05-3.57-1.58-5.35-1.58-1.59,0-3.03,.48-4.3,1.44-1.27,.96-2.18,2.29-2.72,3.99-.81,2.59-1.22,5.43-1.22,8.51v22.53h-7.29Z"/><path d="M454.23,511v-59.41h7.86v59.41h-7.86Z"/><path d="M475.96,511v-59.41h20.47c4.62,0,8.15,.28,10.58,.85,3.4,.78,6.31,2.2,8.71,4.26,3.13,2.65,5.48,6.03,7.03,10.15,1.55,4.12,2.33,8.83,2.33,14.12,0,4.51-.53,8.51-1.58,12-1.05,3.49-2.41,6.37-4.05,8.65-1.65,2.28-3.45,4.08-5.41,5.39-1.96,1.31-4.32,2.3-7.09,2.98-2.77,.68-5.95,1.01-9.54,1.01h-21.44Zm7.86-7.01h12.69c3.92,0,6.99-.36,9.22-1.09,2.23-.73,4-1.76,5.33-3.08,1.86-1.86,3.32-4.37,4.36-7.52s1.56-6.96,1.56-11.45c0-6.21-1.02-10.99-3.06-14.33-2.04-3.34-4.52-5.57-7.44-6.71-2.11-.81-5.5-1.22-10.17-1.22h-12.48v45.39Z"/></g></g><g style="clip-path:url(#clippath-4);"><g style="isolation:isolate;"><path d="M238.35,616.06c0-9.86,2.65-17.58,7.94-23.16,5.29-5.58,12.13-8.37,20.51-8.37,5.48,0,10.43,1.31,14.83,3.93,4.4,2.62,7.76,6.28,10.07,10.96,2.31,4.69,3.47,10,3.47,15.95s-1.22,11.42-3.65,16.17c-2.43,4.76-5.88,8.36-10.33,10.8s-9.27,3.67-14.43,3.67c-5.59,0-10.59-1.35-15-4.05-4.4-2.7-7.74-6.39-10.01-11.06-2.27-4.67-3.4-9.62-3.4-14.83Zm8.11,.12c0,7.16,1.93,12.8,5.77,16.92,3.85,4.12,8.68,6.18,14.49,6.18s10.79-2.08,14.61-6.24c3.82-4.16,5.73-10.06,5.73-17.71,0-4.84-.82-9.06-2.45-12.67-1.64-3.61-4.03-6.4-7.17-8.39-3.15-1.99-6.68-2.98-10.6-2.98-5.57,0-10.35,1.91-14.37,5.74-4.01,3.82-6.02,10.21-6.02,19.15Z"/><path d="M304.28,645v-43.04h6.57v6.52c1.67-3.05,3.22-5.07,4.64-6.04,1.42-.97,2.98-1.46,4.68-1.46,2.46,0,4.96,.78,7.5,2.35l-2.51,6.77c-1.78-1.05-3.57-1.58-5.35-1.58-1.59,0-3.03,.48-4.3,1.44-1.27,.96-2.18,2.29-2.72,3.99-.81,2.59-1.22,5.43-1.22,8.51v22.53h-7.29Z"/><path d="M359.93,645v-5.43c-2.73,4.27-6.74,6.4-12.04,6.4-3.43,0-6.59-.95-9.46-2.84-2.88-1.89-5.11-4.53-6.69-7.92-1.58-3.39-2.37-7.29-2.37-11.69s.72-8.19,2.15-11.69c1.43-3.5,3.58-6.18,6.44-8.04,2.86-1.86,6.06-2.8,9.6-2.8,2.59,0,4.9,.55,6.93,1.64,2.03,1.09,3.67,2.52,4.94,4.28v-21.32h7.25v59.41h-6.77Zm-23.06-21.48c0,5.51,1.16,9.63,3.49,12.36,2.32,2.73,5.07,4.09,8.23,4.09s5.9-1.3,8.13-3.91c2.23-2.61,3.34-6.58,3.34-11.93,0-5.89-1.13-10.21-3.4-12.97s-5.07-4.13-8.39-4.13-5.95,1.32-8.13,3.97c-2.17,2.65-3.26,6.82-3.26,12.52Z"/><path d="M407.63,631.14l7.54,.93c-1.19,4.4-3.39,7.82-6.61,10.25-3.22,2.43-7.32,3.65-12.32,3.65-6.3,0-11.29-1.94-14.98-5.82-3.69-3.88-5.53-9.31-5.53-16.31s1.86-12.86,5.59-16.86c3.73-4,8.56-6,14.51-6s10.46,1.96,14.1,5.88c3.65,3.92,5.47,9.43,5.47,16.54,0,.43-.01,1.08-.04,1.95h-32.1c.27,4.73,1.61,8.35,4.01,10.86,2.4,2.51,5.4,3.77,9,3.77,2.67,0,4.96-.7,6.85-2.11,1.89-1.4,3.39-3.65,4.5-6.73Zm-23.95-11.79h24.03c-.32-3.62-1.24-6.33-2.76-8.15-2.32-2.81-5.34-4.21-9.04-4.21-3.35,0-6.17,1.12-8.45,3.36-2.28,2.24-3.55,5.24-3.79,9Z"/><path d="M424.24,645v-43.04h6.57v6.52c1.67-3.05,3.22-5.07,4.64-6.04,1.42-.97,2.98-1.46,4.68-1.46,2.46,0,4.96,.78,7.5,2.35l-2.51,6.77c-1.78-1.05-3.57-1.58-5.35-1.58-1.59,0-3.03,.48-4.3,1.44-1.27,.96-2.18,2.29-2.72,3.99-.81,2.59-1.22,5.43-1.22,8.51v22.53h-7.29Z"/><path d="M452.9,645v-59.41h20.47c4.62,0,8.15,.28,10.58,.85,3.4,.78,6.31,2.2,8.71,4.26,3.13,2.65,5.48,6.03,7.03,10.15,1.55,4.12,2.33,8.83,2.33,14.12,0,4.51-.53,8.51-1.58,12-1.05,3.49-2.41,6.37-4.05,8.65-1.65,2.28-3.45,4.08-5.41,5.39-1.96,1.31-4.32,2.3-7.09,2.98-2.77,.68-5.95,1.01-9.54,1.01h-21.44Zm7.86-7.01h12.69c3.92,0,6.99-.36,9.22-1.09,2.23-.73,4-1.76,5.33-3.08,1.86-1.86,3.32-4.37,4.36-7.52s1.56-6.96,1.56-11.45c0-6.21-1.02-10.99-3.06-14.33-2.04-3.34-4.52-5.57-7.44-6.71-2.11-.81-5.5-1.22-10.17-1.22h-12.48v45.39Z"/><path d="M539.99,639.69c-2.7,2.3-5.3,3.92-7.8,4.86-2.5,.95-5.18,1.42-8.04,1.42-4.73,0-8.36-1.16-10.9-3.46-2.54-2.31-3.81-5.26-3.81-8.86,0-2.11,.48-4.03,1.44-5.78,.96-1.74,2.22-3.14,3.77-4.19,1.55-1.05,3.3-1.85,5.25-2.39,1.43-.38,3.59-.74,6.48-1.09,5.89-.7,10.23-1.54,13.01-2.51,.03-1,.04-1.63,.04-1.91,0-2.97-.69-5.07-2.07-6.28-1.86-1.65-4.63-2.47-8.31-2.47-3.43,0-5.96,.6-7.6,1.8-1.64,1.2-2.84,3.33-3.63,6.38l-7.13-.97c.65-3.05,1.72-5.52,3.2-7.4,1.49-1.88,3.63-3.32,6.44-4.34,2.81-1.01,6.06-1.52,9.77-1.52s6.66,.43,8.96,1.3c2.3,.87,3.98,1.95,5.07,3.26,1.08,1.31,1.84,2.96,2.27,4.96,.24,1.24,.36,3.48,.36,6.73v9.73c0,6.78,.16,11.07,.47,12.87,.31,1.8,.92,3.52,1.84,5.17h-7.62c-.76-1.51-1.24-3.28-1.46-5.31Zm-.61-16.29c-2.65,1.08-6.62,2-11.92,2.76-3,.43-5.12,.92-6.36,1.46-1.24,.54-2.2,1.33-2.88,2.37-.68,1.04-1.01,2.2-1.01,3.46,0,1.95,.74,3.57,2.21,4.86,1.47,1.3,3.63,1.95,6.46,1.95s5.31-.61,7.5-1.84c2.19-1.23,3.8-2.91,4.82-5.04,.78-1.65,1.18-4.08,1.18-7.29v-2.68Z"/><path d="M573.99,638.47l1.05,6.44c-2.05,.43-3.89,.65-5.51,.65-2.65,0-4.7-.42-6.16-1.26-1.46-.84-2.49-1.94-3.08-3.3-.59-1.36-.89-4.23-.89-8.61v-24.76h-5.35v-5.67h5.35v-10.66l7.25-4.38v15.04h7.34v5.67h-7.34v25.17c0,2.08,.13,3.42,.39,4.01,.26,.59,.67,1.07,1.26,1.42,.58,.35,1.41,.53,2.49,.53,.81,0,1.88-.09,3.2-.28Z"/><path d="M610.59,631.14l7.54,.93c-1.19,4.4-3.39,7.82-6.61,10.25-3.22,2.43-7.32,3.65-12.32,3.65-6.3,0-11.29-1.94-14.98-5.82-3.69-3.88-5.53-9.31-5.53-16.31s1.86-12.86,5.59-16.86c3.73-4,8.56-6,14.51-6s10.46,1.96,14.1,5.88c3.65,3.92,5.47,9.43,5.47,16.54,0,.43-.01,1.08-.04,1.95h-32.1c.27,4.73,1.61,8.35,4.01,10.86,2.4,2.51,5.4,3.77,9,3.77,2.67,0,4.96-.7,6.85-2.11,1.89-1.4,3.39-3.65,4.5-6.73Zm-23.95-11.79h24.03c-.32-3.62-1.24-6.33-2.76-8.15-2.32-2.81-5.34-4.21-9.04-4.21-3.35,0-6.17,1.12-8.45,3.36-2.28,2.24-3.55,5.24-3.79,9Z"/></g></g><g style="clip-path:url(#clippath-5);"><g style="isolation:isolate;"><path d="M241.14,779v-59.41h40.08v7.01h-32.22v18.4h27.88v7.01h-27.88v26.99h-7.86Z"/><path d="M290.54,727.98v-8.39h7.29v8.39h-7.29Zm0,51.02v-43.04h7.29v43.04h-7.29Z"/><path d="M308.86,779v-43.04h6.57v6.52c1.67-3.05,3.22-5.07,4.64-6.04,1.42-.97,2.98-1.46,4.68-1.46,2.46,0,4.96,.78,7.5,2.35l-2.51,6.77c-1.78-1.05-3.57-1.58-5.35-1.58-1.59,0-3.03,.48-4.3,1.44-1.27,.96-2.18,2.29-2.72,3.99-.81,2.59-1.22,5.43-1.22,8.51v22.53h-7.29Z"/><path d="M333.67,766.15l7.21-1.13c.41,2.89,1.53,5.11,3.38,6.65,1.85,1.54,4.44,2.31,7.76,2.31s5.84-.68,7.46-2.05c1.62-1.36,2.43-2.96,2.43-4.8,0-1.65-.72-2.94-2.15-3.89-1-.65-3.49-1.47-7.46-2.47-5.35-1.35-9.06-2.52-11.12-3.51-2.07-.99-3.63-2.35-4.7-4.09-1.07-1.74-1.6-3.67-1.6-5.78,0-1.92,.44-3.69,1.32-5.33s2.07-2.99,3.59-4.07c1.13-.84,2.68-1.55,4.64-2.13,1.96-.58,4.06-.87,6.3-.87,3.38,0,6.34,.49,8.9,1.46,2.55,.97,4.44,2.29,5.65,3.95,1.22,1.66,2.05,3.88,2.51,6.67l-7.13,.97c-.32-2.21-1.26-3.94-2.82-5.19-1.55-1.24-3.75-1.86-6.59-1.86-3.35,0-5.74,.55-7.17,1.66-1.43,1.11-2.15,2.41-2.15,3.89,0,.95,.3,1.8,.89,2.55,.59,.78,1.53,1.43,2.8,1.95,.73,.27,2.88,.89,6.44,1.86,5.16,1.38,8.76,2.51,10.8,3.38,2.04,.88,3.64,2.16,4.8,3.83,1.16,1.68,1.74,3.76,1.74,6.24s-.71,4.72-2.13,6.87c-1.42,2.15-3.47,3.81-6.14,4.99-2.67,1.17-5.7,1.76-9.08,1.76-5.59,0-9.85-1.16-12.79-3.49-2.93-2.32-4.8-5.77-5.61-10.33Z"/><path d="M394.01,772.47l1.05,6.44c-2.05,.43-3.89,.65-5.51,.65-2.65,0-4.7-.42-6.16-1.26-1.46-.84-2.49-1.94-3.08-3.3-.59-1.36-.89-4.23-.89-8.61v-24.76h-5.35v-5.67h5.35v-10.66l7.25-4.38v15.04h7.34v5.67h-7.34v25.17c0,2.08,.13,3.42,.39,4.01,.26,.59,.67,1.07,1.26,1.42,.58,.35,1.41,.53,2.49,.53,.81,0,1.88-.09,3.2-.28Z"/><path d="M401.99,779v-59.41h8.06l31.21,46.65v-46.65h7.54v59.41h-8.06l-31.21-46.69v46.69h-7.54Z"/><path d="M489.17,773.69c-2.7,2.3-5.3,3.92-7.8,4.86-2.5,.95-5.18,1.42-8.04,1.42-4.73,0-8.36-1.16-10.9-3.46-2.54-2.31-3.81-5.26-3.81-8.86,0-2.11,.48-4.03,1.44-5.78,.96-1.74,2.22-3.14,3.77-4.19,1.55-1.05,3.3-1.85,5.25-2.39,1.43-.38,3.59-.74,6.48-1.09,5.89-.7,10.23-1.54,13.01-2.51,.03-1,.04-1.63,.04-1.91,0-2.97-.69-5.07-2.07-6.28-1.86-1.65-4.63-2.47-8.31-2.47-3.43,0-5.96,.6-7.6,1.8-1.64,1.2-2.84,3.33-3.63,6.38l-7.13-.97c.65-3.05,1.72-5.52,3.2-7.4,1.49-1.88,3.63-3.32,6.44-4.34,2.81-1.01,6.06-1.52,9.77-1.52s6.66,.43,8.96,1.3c2.3,.87,3.98,1.95,5.07,3.26,1.08,1.31,1.84,2.96,2.27,4.96,.24,1.24,.36,3.48,.36,6.73v9.73c0,6.78,.16,11.07,.47,12.87,.31,1.8,.92,3.52,1.84,5.17h-7.62c-.76-1.51-1.24-3.28-1.46-5.31Zm-.61-16.29c-2.65,1.08-6.62,2-11.92,2.76-3,.43-5.12,.92-6.36,1.46-1.24,.54-2.2,1.33-2.88,2.37-.68,1.04-1.01,2.2-1.01,3.46,0,1.95,.74,3.57,2.21,4.86,1.47,1.3,3.63,1.95,6.46,1.95s5.31-.61,7.5-1.84c2.19-1.23,3.8-2.91,4.82-5.04,.78-1.65,1.18-4.08,1.18-7.29v-2.68Z"/><path d="M507.24,779v-43.04h6.52v6.04c1.35-2.11,3.15-3.8,5.39-5.09,2.24-1.28,4.8-1.92,7.66-1.92,3.19,0,5.8,.66,7.84,1.99,2.04,1.32,3.48,3.18,4.32,5.55,3.4-5.03,7.83-7.54,13.29-7.54,4.27,0,7.55,1.18,9.85,3.55,2.3,2.37,3.44,6,3.44,10.92v29.54h-7.25v-27.11c0-2.92-.24-5.02-.71-6.3-.47-1.28-1.33-2.32-2.57-3.1-1.24-.78-2.7-1.17-4.38-1.17-3.03,0-5.54,1.01-7.54,3.02-2,2.01-3,5.23-3,9.67v25.01h-7.29v-27.96c0-3.24-.59-5.67-1.78-7.29-1.19-1.62-3.13-2.43-5.84-2.43-2.05,0-3.95,.54-5.69,1.62-1.74,1.08-3.01,2.66-3.79,4.74-.78,2.08-1.18,5.08-1.18,9v22.33h-7.29Z"/><path d="M605.85,765.14l7.54,.93c-1.19,4.4-3.39,7.82-6.61,10.25-3.22,2.43-7.32,3.65-12.32,3.65-6.3,0-11.29-1.94-14.98-5.82-3.69-3.88-5.53-9.31-5.53-16.31s1.86-12.86,5.59-16.86c3.73-4,8.56-6,14.51-6s10.46,1.96,14.1,5.88c3.65,3.92,5.47,9.43,5.47,16.54,0,.43-.01,1.08-.04,1.95h-32.1c.27,4.73,1.61,8.35,4.01,10.86,2.4,2.51,5.4,3.77,9,3.77,2.67,0,4.96-.7,6.85-2.11,1.89-1.4,3.39-3.65,4.5-6.73Zm-23.95-11.79h24.03c-.32-3.62-1.24-6.33-2.76-8.15-2.32-2.81-5.34-4.21-9.04-4.21-3.35,0-6.17,1.12-8.45,3.36-2.28,2.24-3.55,5.24-3.79,9Z"/></g></g><g style="clip-path:url(#clippath-6);"><g style="isolation:isolate;"><path d="M240.41,913v-59.41h7.86v52.4h29.26v7.01h-37.12Z"/><path d="M314.05,907.69c-2.7,2.3-5.3,3.92-7.8,4.86-2.5,.95-5.18,1.42-8.04,1.42-4.73,0-8.36-1.16-10.9-3.46-2.54-2.31-3.81-5.26-3.81-8.86,0-2.11,.48-4.03,1.44-5.78,.96-1.74,2.22-3.14,3.77-4.19,1.55-1.05,3.3-1.85,5.25-2.39,1.43-.38,3.59-.74,6.48-1.09,5.89-.7,10.23-1.54,13.01-2.51,.03-1,.04-1.63,.04-1.91,0-2.97-.69-5.07-2.07-6.28-1.86-1.65-4.63-2.47-8.31-2.47-3.43,0-5.96,.6-7.6,1.8-1.64,1.2-2.84,3.33-3.63,6.38l-7.13-.97c.65-3.05,1.72-5.52,3.2-7.4,1.49-1.88,3.63-3.32,6.44-4.34,2.81-1.01,6.06-1.52,9.77-1.52s6.66,.43,8.96,1.3c2.3,.87,3.98,1.95,5.07,3.26,1.08,1.31,1.84,2.96,2.27,4.96,.24,1.24,.36,3.48,.36,6.73v9.73c0,6.78,.16,11.07,.47,12.87,.31,1.8,.92,3.52,1.84,5.17h-7.62c-.76-1.51-1.24-3.28-1.46-5.31Zm-.61-16.29c-2.65,1.08-6.62,2-11.92,2.76-3,.43-5.12,.92-6.36,1.46-1.24,.54-2.2,1.33-2.88,2.37-.68,1.04-1.01,2.2-1.01,3.46,0,1.95,.74,3.57,2.21,4.86,1.47,1.3,3.63,1.95,6.46,1.95s5.31-.61,7.5-1.84c2.19-1.23,3.8-2.91,4.82-5.04,.78-1.65,1.18-4.08,1.18-7.29v-2.68Z"/><path d="M329.21,900.15l7.21-1.13c.41,2.89,1.53,5.11,3.38,6.65,1.85,1.54,4.44,2.31,7.76,2.31s5.84-.68,7.46-2.05c1.62-1.36,2.43-2.96,2.43-4.8,0-1.65-.72-2.94-2.15-3.89-1-.65-3.49-1.47-7.46-2.47-5.35-1.35-9.06-2.52-11.12-3.51-2.07-.99-3.63-2.35-4.7-4.09-1.07-1.74-1.6-3.67-1.6-5.78,0-1.92,.44-3.69,1.32-5.33s2.07-2.99,3.59-4.07c1.13-.84,2.68-1.55,4.64-2.13,1.96-.58,4.06-.87,6.3-.87,3.38,0,6.34,.49,8.9,1.46,2.55,.97,4.44,2.29,5.65,3.95,1.22,1.66,2.05,3.88,2.51,6.67l-7.13,.97c-.32-2.21-1.26-3.94-2.82-5.19-1.55-1.24-3.75-1.86-6.59-1.86-3.35,0-5.74,.55-7.17,1.66-1.43,1.11-2.15,2.41-2.15,3.89,0,.95,.3,1.8,.89,2.55,.59,.78,1.53,1.43,2.8,1.95,.73,.27,2.88,.89,6.44,1.86,5.16,1.38,8.76,2.51,10.8,3.38,2.04,.88,3.64,2.16,4.8,3.83,1.16,1.68,1.74,3.76,1.74,6.24s-.71,4.72-2.13,6.87c-1.42,2.15-3.47,3.81-6.14,4.99-2.67,1.17-5.7,1.76-9.08,1.76-5.59,0-9.85-1.16-12.79-3.49-2.93-2.32-4.8-5.77-5.61-10.33Z"/><path d="M389.55,906.47l1.05,6.44c-2.05,.43-3.89,.65-5.51,.65-2.65,0-4.7-.42-6.16-1.26-1.46-.84-2.49-1.94-3.08-3.3-.59-1.36-.89-4.23-.89-8.61v-24.76h-5.35v-5.67h5.35v-10.66l7.25-4.38v15.04h7.34v5.67h-7.34v25.17c0,2.08,.13,3.42,.39,4.01,.26,.59,.67,1.07,1.26,1.42,.58,.35,1.41,.53,2.49,.53,.81,0,1.88-.09,3.2-.28Z"/><path d="M397.54,913v-59.41h8.06l31.21,46.65v-46.65h7.54v59.41h-8.06l-31.21-46.69v46.69h-7.54Z"/><path d="M484.71,907.69c-2.7,2.3-5.3,3.92-7.8,4.86-2.5,.95-5.18,1.42-8.04,1.42-4.73,0-8.36-1.16-10.9-3.46-2.54-2.31-3.81-5.26-3.81-8.86,0-2.11,.48-4.03,1.44-5.78,.96-1.74,2.22-3.14,3.77-4.19,1.55-1.05,3.3-1.85,5.25-2.39,1.43-.38,3.59-.74,6.48-1.09,5.89-.7,10.23-1.54,13.01-2.51,.03-1,.04-1.63,.04-1.91,0-2.97-.69-5.07-2.07-6.28-1.86-1.65-4.63-2.47-8.31-2.47-3.43,0-5.96,.6-7.6,1.8-1.64,1.2-2.84,3.33-3.63,6.38l-7.13-.97c.65-3.05,1.72-5.52,3.2-7.4,1.49-1.88,3.63-3.32,6.44-4.34,2.81-1.01,6.06-1.52,9.77-1.52s6.66,.43,8.96,1.3c2.3,.87,3.98,1.95,5.07,3.26,1.08,1.31,1.84,2.96,2.27,4.96,.24,1.24,.36,3.48,.36,6.73v9.73c0,6.78,.16,11.07,.47,12.87,.31,1.8,.92,3.52,1.84,5.17h-7.62c-.76-1.51-1.24-3.28-1.46-5.31Zm-.61-16.29c-2.65,1.08-6.62,2-11.92,2.76-3,.43-5.12,.92-6.36,1.46-1.24,.54-2.2,1.33-2.88,2.37-.68,1.04-1.01,2.2-1.01,3.46,0,1.95,.74,3.57,2.21,4.86,1.47,1.3,3.63,1.95,6.46,1.95s5.31-.61,7.5-1.84c2.19-1.23,3.8-2.91,4.82-5.04,.78-1.65,1.18-4.08,1.18-7.29v-2.68Z"/><path d="M502.79,913v-43.04h6.52v6.04c1.35-2.11,3.15-3.8,5.39-5.09,2.24-1.28,4.8-1.92,7.66-1.92,3.19,0,5.8,.66,7.84,1.99,2.04,1.32,3.48,3.18,4.32,5.55,3.4-5.03,7.83-7.54,13.29-7.54,4.27,0,7.55,1.18,9.85,3.55,2.3,2.37,3.44,6,3.44,10.92v29.54h-7.25v-27.11c0-2.92-.24-5.02-.71-6.3-.47-1.28-1.33-2.32-2.57-3.1-1.24-.78-2.7-1.17-4.38-1.17-3.03,0-5.54,1.01-7.54,3.02-2,2.01-3,5.23-3,9.67v25.01h-7.29v-27.96c0-3.24-.59-5.67-1.78-7.29-1.19-1.62-3.13-2.43-5.84-2.43-2.05,0-3.95,.54-5.69,1.62-1.74,1.08-3.01,2.66-3.79,4.74-.78,2.08-1.18,5.08-1.18,9v22.33h-7.29Z"/><path d="M601.39,899.14l7.54,.93c-1.19,4.4-3.39,7.82-6.61,10.25-3.22,2.43-7.32,3.65-12.32,3.65-6.3,0-11.29-1.94-14.98-5.82-3.69-3.88-5.53-9.31-5.53-16.31s1.86-12.86,5.59-16.86c3.73-4,8.56-6,14.51-6s10.46,1.96,14.1,5.88c3.65,3.92,5.47,9.43,5.47,16.54,0,.43-.01,1.08-.04,1.95h-32.1c.27,4.73,1.61,8.35,4.01,10.86,2.4,2.51,5.4,3.77,9,3.77,2.67,0,4.96-.7,6.85-2.11,1.89-1.4,3.39-3.65,4.5-6.73Zm-23.95-11.79h24.03c-.32-3.62-1.24-6.33-2.76-8.15-2.32-2.81-5.34-4.21-9.04-4.21-3.35,0-6.17,1.12-8.45,3.36-2.28,2.24-3.55,5.24-3.79,9Z"/></g></g><g style="clip-path:url(#clippath-7);"><g style="isolation:isolate;"><path d="M234.21,1046l22.82-59.41h8.47l24.32,59.41h-8.96l-6.93-17.99h-24.84l-6.52,17.99h-8.35Zm17.14-24.4h20.14l-6.2-16.45c-1.89-5-3.3-9.1-4.21-12.32-.76,3.81-1.82,7.59-3.2,11.35l-6.52,17.43Z"/><path d="M323.09,1046v-5.43c-2.73,4.27-6.74,6.4-12.04,6.4-3.43,0-6.59-.95-9.46-2.84-2.88-1.89-5.11-4.53-6.69-7.92-1.58-3.39-2.37-7.29-2.37-11.69s.72-8.19,2.15-11.69c1.43-3.5,3.58-6.18,6.44-8.04,2.86-1.86,6.06-2.8,9.6-2.8,2.59,0,4.9,.55,6.93,1.64,2.03,1.09,3.67,2.52,4.94,4.28v-21.32h7.25v59.41h-6.77Zm-23.06-21.48c0,5.51,1.16,9.63,3.49,12.36,2.32,2.73,5.07,4.09,8.23,4.09s5.9-1.3,8.13-3.91c2.23-2.61,3.34-6.58,3.34-11.93,0-5.89-1.13-10.21-3.4-12.97s-5.07-4.13-8.39-4.13-5.95,1.32-8.13,3.97c-2.17,2.65-3.26,6.82-3.26,12.52Z"/><path d="M369.25,1046v-5.43c-2.73,4.27-6.74,6.4-12.04,6.4-3.43,0-6.59-.95-9.46-2.84-2.88-1.89-5.11-4.53-6.69-7.92-1.58-3.39-2.37-7.29-2.37-11.69s.72-8.19,2.15-11.69c1.43-3.5,3.58-6.18,6.44-8.04,2.86-1.86,6.06-2.8,9.6-2.8,2.59,0,4.9,.55,6.93,1.64,2.03,1.09,3.67,2.52,4.94,4.28v-21.32h7.25v59.41h-6.77Zm-23.06-21.48c0,5.51,1.16,9.63,3.49,12.36,2.32,2.73,5.07,4.09,8.23,4.09s5.9-1.3,8.13-3.91c2.23-2.61,3.34-6.58,3.34-11.93,0-5.89-1.13-10.21-3.4-12.97s-5.07-4.13-8.39-4.13-5.95,1.32-8.13,3.97c-2.17,2.65-3.26,6.82-3.26,12.52Z"/><path d="M387.4,1046v-43.04h6.57v6.52c1.67-3.05,3.22-5.07,4.64-6.04,1.42-.97,2.98-1.46,4.68-1.46,2.46,0,4.96,.78,7.5,2.35l-2.51,6.77c-1.78-1.05-3.57-1.58-5.35-1.58-1.59,0-3.03,.48-4.3,1.44-1.27,.96-2.18,2.29-2.72,3.99-.81,2.59-1.22,5.43-1.22,8.51v22.53h-7.29Z"/><path d="M444.59,1032.14l7.54,.93c-1.19,4.4-3.39,7.82-6.61,10.25-3.22,2.43-7.32,3.65-12.32,3.65-6.3,0-11.29-1.94-14.98-5.82-3.69-3.88-5.53-9.31-5.53-16.31s1.86-12.86,5.59-16.86c3.73-4,8.56-6,14.51-6s10.46,1.96,14.1,5.88c3.65,3.92,5.47,9.43,5.47,16.54,0,.43-.01,1.08-.04,1.95h-32.1c.27,4.73,1.61,8.35,4.01,10.86,2.4,2.51,5.4,3.77,9,3.77,2.67,0,4.96-.7,6.85-2.11,1.89-1.4,3.39-3.65,4.5-6.73Zm-23.95-11.79h24.03c-.32-3.62-1.24-6.33-2.76-8.15-2.32-2.81-5.34-4.21-9.04-4.21-3.35,0-6.17,1.12-8.45,3.36-2.28,2.24-3.55,5.24-3.79,9Z"/><path d="M458.37,1033.15l7.21-1.13c.41,2.89,1.53,5.11,3.38,6.65,1.85,1.54,4.44,2.31,7.76,2.31s5.84-.68,7.46-2.05c1.62-1.36,2.43-2.96,2.43-4.8,0-1.65-.72-2.94-2.15-3.89-1-.65-3.49-1.47-7.46-2.47-5.35-1.35-9.06-2.52-11.12-3.51-2.07-.99-3.63-2.35-4.7-4.09-1.07-1.74-1.6-3.67-1.6-5.78,0-1.92,.44-3.69,1.32-5.33s2.07-2.99,3.59-4.07c1.13-.84,2.68-1.55,4.64-2.13,1.96-.58,4.06-.87,6.3-.87,3.38,0,6.34,.49,8.9,1.46,2.55,.97,4.44,2.29,5.65,3.95,1.22,1.66,2.05,3.88,2.51,6.67l-7.13,.97c-.32-2.21-1.26-3.94-2.82-5.19-1.55-1.24-3.75-1.86-6.59-1.86-3.35,0-5.74,.55-7.17,1.66-1.43,1.11-2.15,2.41-2.15,3.89,0,.95,.3,1.8,.89,2.55,.59,.78,1.53,1.43,2.8,1.95,.73,.27,2.88,.89,6.44,1.86,5.16,1.38,8.76,2.51,10.8,3.38,2.04,.88,3.64,2.16,4.8,3.83,1.16,1.68,1.74,3.76,1.74,6.24s-.71,4.72-2.13,6.87c-1.42,2.15-3.47,3.81-6.14,4.99-2.67,1.17-5.7,1.76-9.08,1.76-5.59,0-9.85-1.16-12.79-3.49-2.93-2.32-4.8-5.77-5.61-10.33Z"/><path d="M499.87,1033.15l7.21-1.13c.41,2.89,1.53,5.11,3.38,6.65,1.85,1.54,4.44,2.31,7.76,2.31s5.84-.68,7.46-2.05c1.62-1.36,2.43-2.96,2.43-4.8,0-1.65-.72-2.94-2.15-3.89-1-.65-3.49-1.47-7.46-2.47-5.35-1.35-9.06-2.52-11.12-3.51-2.07-.99-3.63-2.35-4.7-4.09-1.07-1.74-1.6-3.67-1.6-5.78,0-1.92,.44-3.69,1.32-5.33s2.07-2.99,3.59-4.07c1.13-.84,2.68-1.55,4.64-2.13,1.96-.58,4.06-.87,6.3-.87,3.38,0,6.34,.49,8.9,1.46,2.55,.97,4.44,2.29,5.65,3.95,1.22,1.66,2.05,3.88,2.51,6.67l-7.13,.97c-.32-2.21-1.26-3.94-2.82-5.19-1.55-1.24-3.75-1.86-6.59-1.86-3.35,0-5.74,.55-7.17,1.66-1.43,1.11-2.15,2.41-2.15,3.89,0,.95,.3,1.8,.89,2.55,.59,.78,1.53,1.43,2.8,1.95,.73,.27,2.88,.89,6.44,1.86,5.16,1.38,8.76,2.51,10.8,3.38,2.04,.88,3.64,2.16,4.8,3.83,1.16,1.68,1.74,3.76,1.74,6.24s-.71,4.72-2.13,6.87c-1.42,2.15-3.47,3.81-6.14,4.99-2.67,1.17-5.7,1.76-9.08,1.76-5.59,0-9.85-1.16-12.79-3.49-2.93-2.32-4.8-5.77-5.61-10.33Z"/></g></g><g style="clip-path:url(#clippath-8);"><g style="isolation:isolate;"><path d="M283.13,1159.17l7.86,1.99c-1.65,6.46-4.61,11.38-8.9,14.77-4.28,3.39-9.52,5.09-15.7,5.09s-11.61-1.3-15.62-3.91c-4.01-2.61-7.07-6.38-9.16-11.33-2.09-4.95-3.14-10.25-3.14-15.93,0-6.19,1.18-11.58,3.55-16.19s5.73-8.11,10.09-10.5c4.36-2.39,9.17-3.59,14.41-3.59,5.94,0,10.94,1.51,15,4.54,4.05,3.03,6.88,7.28,8.47,12.77l-7.74,1.82c-1.38-4.32-3.38-7.47-6-9.44-2.62-1.97-5.92-2.96-9.89-2.96-4.57,0-8.38,1.09-11.45,3.28s-5.22,5.13-6.46,8.81c-1.24,3.69-1.86,7.49-1.86,11.41,0,5.05,.74,9.46,2.21,13.23,1.47,3.77,3.76,6.59,6.87,8.45,3.11,1.86,6.47,2.8,10.09,2.8,4.4,0,8.13-1.27,11.19-3.81,3.05-2.54,5.12-6.31,6.2-11.31Z"/><path d="M299.78,1128.98v-8.39h7.29v8.39h-7.29Zm0,51.02v-43.04h7.29v43.04h-7.29Z"/><path d="M334.11,1173.47l1.05,6.44c-2.05,.43-3.89,.65-5.51,.65-2.65,0-4.7-.42-6.16-1.26-1.46-.84-2.49-1.94-3.08-3.3-.59-1.36-.89-4.23-.89-8.61v-24.76h-5.35v-5.67h5.35v-10.66l7.25-4.38v15.04h7.34v5.67h-7.34v25.17c0,2.08,.13,3.42,.39,4.01,.26,.59,.67,1.07,1.26,1.42,.58,.35,1.41,.53,2.49,.53,.81,0,1.88-.09,3.2-.28Z"/><path d="M340.92,1196.58l-.81-6.85c1.59,.43,2.98,.65,4.17,.65,1.62,0,2.92-.27,3.89-.81,.97-.54,1.77-1.3,2.39-2.27,.46-.73,1.2-2.54,2.23-5.43,.13-.41,.35-1,.65-1.78l-16.33-43.12h7.86l8.96,24.92c1.16,3.16,2.2,6.48,3.12,9.97,.84-3.35,1.84-6.62,3-9.81l9.2-25.09h7.29l-16.37,43.77c-1.76,4.73-3.12,7.98-4.09,9.77-1.3,2.41-2.78,4.17-4.46,5.29-1.68,1.12-3.67,1.68-6,1.68-1.41,0-2.97-.3-4.7-.89Z"/></g></g><g style="clip-path:url(#clippath-9);"><g style="isolation:isolate;"><path d="M238.06,1294.91l7.42-.65c.35,2.97,1.17,5.41,2.45,7.31,1.28,1.91,3.28,3.45,5.98,4.62,2.7,1.18,5.74,1.76,9.12,1.76,3,0,5.65-.45,7.94-1.34,2.3-.89,4.01-2.11,5.13-3.67,1.12-1.55,1.68-3.25,1.68-5.09s-.54-3.49-1.62-4.88c-1.08-1.39-2.86-2.56-5.35-3.51-1.59-.62-5.12-1.59-10.58-2.9-5.46-1.31-9.28-2.55-11.47-3.71-2.84-1.49-4.95-3.33-6.34-5.53-1.39-2.2-2.09-4.67-2.09-7.4,0-3,.85-5.8,2.55-8.41,1.7-2.61,4.19-4.59,7.46-5.94,3.27-1.35,6.9-2.03,10.9-2.03,4.4,0,8.29,.71,11.65,2.13,3.36,1.42,5.95,3.51,7.76,6.26,1.81,2.76,2.78,5.88,2.92,9.36l-7.54,.57c-.41-3.76-1.78-6.59-4.11-8.51-2.34-1.92-5.79-2.88-10.35-2.88s-8.22,.87-10.4,2.61c-2.17,1.74-3.26,3.84-3.26,6.3,0,2.13,.77,3.89,2.31,5.27,1.51,1.38,5.46,2.79,11.85,4.24,6.39,1.45,10.77,2.71,13.15,3.79,3.46,1.59,6.01,3.61,7.66,6.06,1.65,2.45,2.47,5.26,2.47,8.45s-.91,6.14-2.72,8.94c-1.81,2.8-4.41,4.97-7.8,6.52-3.39,1.55-7.21,2.33-11.45,2.33-5.38,0-9.88-.78-13.52-2.35-3.63-1.57-6.48-3.92-8.55-7.07-2.07-3.15-3.16-6.71-3.26-10.68Z"/><path d="M311.09,1307.47l1.05,6.44c-2.05,.43-3.89,.65-5.51,.65-2.65,0-4.7-.42-6.16-1.26-1.46-.84-2.49-1.94-3.08-3.3-.59-1.36-.89-4.23-.89-8.61v-24.76h-5.35v-5.67h5.35v-10.66l7.25-4.38v15.04h7.34v5.67h-7.34v25.17c0,2.08,.13,3.42,.39,4.01,.26,.59,.67,1.07,1.26,1.42,.58,.35,1.41,.53,2.49,.53,.81,0,1.88-.09,3.2-.28Z"/><path d="M346.31,1308.69c-2.7,2.3-5.3,3.92-7.8,4.86-2.5,.95-5.18,1.42-8.04,1.42-4.73,0-8.36-1.16-10.9-3.46-2.54-2.31-3.81-5.26-3.81-8.86,0-2.11,.48-4.03,1.44-5.78,.96-1.74,2.22-3.14,3.77-4.19,1.55-1.05,3.3-1.85,5.25-2.39,1.43-.38,3.59-.74,6.48-1.09,5.89-.7,10.23-1.54,13.01-2.51,.03-1,.04-1.63,.04-1.91,0-2.97-.69-5.07-2.07-6.28-1.86-1.65-4.63-2.47-8.31-2.47-3.43,0-5.96,.6-7.6,1.8-1.64,1.2-2.84,3.33-3.63,6.38l-7.13-.97c.65-3.05,1.72-5.52,3.2-7.4,1.49-1.88,3.63-3.32,6.44-4.34,2.81-1.01,6.06-1.52,9.77-1.52s6.66,.43,8.96,1.3c2.3,.87,3.98,1.95,5.07,3.26,1.08,1.31,1.84,2.96,2.27,4.96,.24,1.24,.36,3.48,.36,6.73v9.73c0,6.78,.16,11.07,.47,12.87,.31,1.8,.92,3.52,1.84,5.17h-7.62c-.76-1.51-1.24-3.28-1.46-5.31Zm-.61-16.29c-2.65,1.08-6.62,2-11.92,2.76-3,.43-5.12,.92-6.36,1.46-1.24,.54-2.2,1.33-2.88,2.37-.68,1.04-1.01,2.2-1.01,3.46,0,1.95,.74,3.57,2.21,4.86,1.47,1.3,3.63,1.95,6.46,1.95s5.31-.61,7.5-1.84c2.19-1.23,3.8-2.91,4.82-5.04,.78-1.65,1.18-4.08,1.18-7.29v-2.68Z"/><path d="M380.31,1307.47l1.05,6.44c-2.05,.43-3.89,.65-5.51,.65-2.65,0-4.7-.42-6.16-1.26-1.46-.84-2.49-1.94-3.08-3.3-.59-1.36-.89-4.23-.89-8.61v-24.76h-5.35v-5.67h5.35v-10.66l7.25-4.38v15.04h7.34v5.67h-7.34v25.17c0,2.08,.13,3.42,.39,4.01,.26,.59,.67,1.07,1.26,1.42,.58,.35,1.41,.53,2.49,.53,.81,0,1.88-.09,3.2-.28Z"/><path d="M416.91,1300.14l7.54,.93c-1.19,4.4-3.39,7.82-6.61,10.25-3.22,2.43-7.32,3.65-12.32,3.65-6.3,0-11.29-1.94-14.98-5.82-3.69-3.88-5.53-9.31-5.53-16.31s1.86-12.86,5.59-16.86c3.73-4,8.56-6,14.51-6s10.46,1.96,14.1,5.88c3.65,3.92,5.47,9.43,5.47,16.54,0,.43-.01,1.08-.04,1.95h-32.1c.27,4.73,1.61,8.35,4.01,10.86,2.4,2.51,5.4,3.77,9,3.77,2.67,0,4.96-.7,6.85-2.11,1.89-1.4,3.39-3.65,4.5-6.73Zm-23.95-11.79h24.03c-.32-3.62-1.24-6.33-2.76-8.15-2.32-2.81-5.34-4.21-9.04-4.21-3.35,0-6.17,1.12-8.45,3.36-2.28,2.24-3.55,5.24-3.79,9Z"/></g></g><g style="clip-path:url(#clippath-10);"><g style="isolation:isolate;"><path d="M240.74,1448v-59.41h22.41c3.94,0,6.96,.19,9.04,.57,2.92,.49,5.36,1.41,7.34,2.78,1.97,1.36,3.56,3.28,4.76,5.73,1.2,2.46,1.8,5.16,1.8,8.11,0,5.05-1.61,9.33-4.82,12.83-3.22,3.5-9.02,5.25-17.43,5.25h-15.24v24.15h-7.86Zm7.86-31.17h15.36c5.08,0,8.69-.95,10.82-2.84,2.13-1.89,3.2-4.55,3.2-7.98,0-2.49-.63-4.61-1.88-6.38-1.26-1.77-2.91-2.94-4.96-3.51-1.32-.35-3.77-.53-7.34-.53h-15.2v21.24Z"/><path d="M292.45,1426.48c0-7.97,2.21-13.87,6.65-17.71,3.7-3.19,8.21-4.78,13.54-4.78,5.92,0,10.75,1.94,14.51,5.82,3.75,3.88,5.63,9.23,5.63,16.07,0,5.54-.83,9.9-2.49,13.07-1.66,3.17-4.08,5.64-7.25,7.4-3.18,1.76-6.64,2.63-10.4,2.63-6.03,0-10.9-1.93-14.61-5.79-3.71-3.86-5.57-9.43-5.57-16.7Zm7.5,0c0,5.51,1.2,9.64,3.61,12.38,2.4,2.74,5.43,4.11,9.08,4.11s6.63-1.38,9.04-4.13c2.4-2.76,3.61-6.96,3.61-12.6,0-5.32-1.21-9.35-3.63-12.1-2.42-2.74-5.42-4.11-9.02-4.11s-6.67,1.37-9.08,4.09c-2.41,2.73-3.61,6.85-3.61,12.36Z"/><path d="M338.41,1435.15l7.21-1.13c.41,2.89,1.53,5.11,3.38,6.65,1.85,1.54,4.44,2.31,7.76,2.31s5.84-.68,7.46-2.05c1.62-1.36,2.43-2.96,2.43-4.8,0-1.65-.72-2.94-2.15-3.89-1-.65-3.49-1.47-7.46-2.47-5.35-1.35-9.06-2.52-11.12-3.51-2.07-.99-3.63-2.35-4.7-4.09-1.07-1.74-1.6-3.67-1.6-5.78,0-1.92,.44-3.69,1.32-5.33s2.07-2.99,3.59-4.07c1.13-.84,2.68-1.55,4.64-2.13,1.96-.58,4.06-.87,6.3-.87,3.38,0,6.34,.49,8.9,1.46,2.55,.97,4.44,2.29,5.65,3.95,1.22,1.66,2.05,3.88,2.51,6.67l-7.13,.97c-.32-2.21-1.26-3.94-2.82-5.19-1.55-1.24-3.75-1.86-6.59-1.86-3.35,0-5.74,.55-7.17,1.66-1.43,1.11-2.15,2.41-2.15,3.89,0,.95,.3,1.8,.89,2.55,.59,.78,1.53,1.43,2.8,1.95,.73,.27,2.88,.89,6.44,1.86,5.16,1.38,8.76,2.51,10.8,3.38,2.04,.88,3.64,2.16,4.8,3.83,1.16,1.68,1.74,3.76,1.74,6.24s-.71,4.72-2.13,6.87c-1.42,2.15-3.47,3.81-6.14,4.99-2.67,1.17-5.7,1.76-9.08,1.76-5.59,0-9.85-1.16-12.79-3.49-2.93-2.32-4.8-5.77-5.61-10.33Z"/><path d="M398.75,1441.47l1.05,6.44c-2.05,.43-3.89,.65-5.51,.65-2.65,0-4.7-.42-6.16-1.26-1.46-.84-2.49-1.94-3.08-3.3-.59-1.36-.89-4.23-.89-8.61v-24.76h-5.35v-5.67h5.35v-10.66l7.25-4.38v15.04h7.34v5.67h-7.34v25.17c0,2.08,.13,3.42,.39,4.01,.26,.59,.67,1.07,1.26,1.42,.58,.35,1.41,.53,2.49,.53,.81,0,1.88-.09,3.2-.28Z"/><path d="M433.97,1442.69c-2.7,2.3-5.3,3.92-7.8,4.86-2.5,.95-5.18,1.42-8.04,1.42-4.73,0-8.36-1.16-10.9-3.46-2.54-2.31-3.81-5.26-3.81-8.86,0-2.11,.48-4.03,1.44-5.78,.96-1.74,2.22-3.14,3.77-4.19,1.55-1.05,3.3-1.85,5.25-2.39,1.43-.38,3.59-.74,6.48-1.09,5.89-.7,10.23-1.54,13.01-2.51,.03-1,.04-1.63,.04-1.91,0-2.97-.69-5.07-2.07-6.28-1.86-1.65-4.63-2.47-8.31-2.47-3.43,0-5.96,.6-7.6,1.8-1.64,1.2-2.84,3.33-3.63,6.38l-7.13-.97c.65-3.05,1.72-5.52,3.2-7.4,1.49-1.88,3.63-3.32,6.44-4.34,2.81-1.01,6.06-1.52,9.77-1.52s6.66,.43,8.96,1.3c2.3,.87,3.98,1.95,5.07,3.26,1.08,1.31,1.84,2.96,2.27,4.96,.24,1.24,.36,3.48,.36,6.73v9.73c0,6.78,.16,11.07,.47,12.87,.31,1.8,.92,3.52,1.84,5.17h-7.62c-.76-1.51-1.24-3.28-1.46-5.31Zm-.61-16.29c-2.65,1.08-6.62,2-11.92,2.76-3,.43-5.12,.92-6.36,1.46-1.24,.54-2.2,1.33-2.88,2.37-.68,1.04-1.01,2.2-1.01,3.46,0,1.95,.74,3.57,2.21,4.86,1.47,1.3,3.63,1.95,6.46,1.95s5.31-.61,7.5-1.84c2.19-1.23,3.8-2.91,4.82-5.04,.78-1.65,1.18-4.08,1.18-7.29v-2.68Z"/><path d="M451.88,1448v-59.41h7.29v59.41h-7.29Z"/><path d="M513.81,1427.17l7.86,1.99c-1.65,6.46-4.61,11.38-8.9,14.77-4.28,3.39-9.52,5.09-15.7,5.09s-11.61-1.3-15.62-3.91c-4.01-2.61-7.07-6.38-9.16-11.33-2.09-4.95-3.14-10.25-3.14-15.93,0-6.19,1.18-11.58,3.55-16.19s5.73-8.11,10.09-10.5c4.36-2.39,9.17-3.59,14.41-3.59,5.94,0,10.94,1.51,15,4.54,4.05,3.03,6.88,7.28,8.47,12.77l-7.74,1.82c-1.38-4.32-3.38-7.47-6-9.44-2.62-1.97-5.92-2.96-9.89-2.96-4.57,0-8.38,1.09-11.45,3.28s-5.22,5.13-6.46,8.81c-1.24,3.69-1.86,7.49-1.86,11.41,0,5.05,.74,9.46,2.21,13.23,1.47,3.77,3.76,6.59,6.87,8.45,3.11,1.86,6.47,2.8,10.09,2.8,4.4,0,8.13-1.27,11.19-3.81,3.05-2.54,5.12-6.31,6.2-11.31Z"/><path d="M527.71,1426.48c0-7.97,2.21-13.87,6.65-17.71,3.7-3.19,8.21-4.78,13.54-4.78,5.92,0,10.75,1.94,14.51,5.82,3.75,3.88,5.63,9.23,5.63,16.07,0,5.54-.83,9.9-2.49,13.07-1.66,3.17-4.08,5.64-7.25,7.4-3.18,1.76-6.64,2.63-10.4,2.63-6.03,0-10.9-1.93-14.61-5.79-3.71-3.86-5.57-9.43-5.57-16.7Zm7.5,0c0,5.51,1.2,9.64,3.61,12.38,2.4,2.74,5.43,4.11,9.08,4.11s6.63-1.38,9.04-4.13c2.4-2.76,3.61-6.96,3.61-12.6,0-5.32-1.21-9.35-3.63-12.1-2.42-2.74-5.42-4.11-9.02-4.11s-6.67,1.37-9.08,4.09c-2.41,2.73-3.61,6.85-3.61,12.36Z"/><path d="M604.51,1448v-5.43c-2.73,4.27-6.74,6.4-12.04,6.4-3.43,0-6.59-.95-9.46-2.84-2.88-1.89-5.11-4.53-6.69-7.92-1.58-3.39-2.37-7.29-2.37-11.69s.72-8.19,2.15-11.69c1.43-3.5,3.58-6.18,6.44-8.04,2.86-1.86,6.06-2.8,9.6-2.8,2.59,0,4.9,.55,6.93,1.64,2.03,1.09,3.67,2.52,4.94,4.28v-21.32h7.25v59.41h-6.77Zm-23.06-21.48c0,5.51,1.16,9.63,3.49,12.36,2.32,2.73,5.07,4.09,8.23,4.09s5.9-1.3,8.13-3.91c2.23-2.61,3.34-6.58,3.34-11.93,0-5.89-1.13-10.21-3.4-12.97s-5.07-4.13-8.39-4.13-5.95,1.32-8.13,3.97c-2.17,2.65-3.26,6.82-3.26,12.52Z"/><path d="M652.21,1434.14l7.54,.93c-1.19,4.4-3.39,7.82-6.61,10.25-3.22,2.43-7.32,3.65-12.32,3.65-6.3,0-11.29-1.94-14.98-5.82-3.69-3.88-5.53-9.31-5.53-16.31s1.86-12.86,5.59-16.86c3.73-4,8.56-6,14.51-6s10.46,1.96,14.1,5.88c3.65,3.92,5.47,9.43,5.47,16.54,0,.43-.01,1.08-.04,1.95h-32.1c.27,4.73,1.61,8.35,4.01,10.86,2.4,2.51,5.4,3.77,9,3.77,2.67,0,4.96-.7,6.85-2.11,1.89-1.4,3.39-3.65,4.5-6.73Zm-23.95-11.79h24.03c-.32-3.62-1.24-6.33-2.76-8.15-2.32-2.81-5.34-4.21-9.04-4.21-3.35,0-6.17,1.12-8.45,3.36-2.28,2.24-3.55,5.24-3.79,9Z"/></g></g><g style="clip-path:url(#clippath-11);"><g style="isolation:isolate;"><path d="M283.13,1561.17l7.86,1.99c-1.65,6.46-4.61,11.38-8.9,14.77-4.28,3.39-9.52,5.09-15.7,5.09s-11.61-1.3-15.62-3.91c-4.01-2.61-7.07-6.38-9.16-11.33-2.09-4.95-3.14-10.25-3.14-15.93,0-6.19,1.18-11.58,3.55-16.19s5.73-8.11,10.09-10.5c4.36-2.39,9.17-3.59,14.41-3.59,5.94,0,10.94,1.51,15,4.54,4.05,3.03,6.88,7.28,8.47,12.77l-7.74,1.82c-1.38-4.32-3.38-7.47-6-9.44-2.62-1.97-5.92-2.96-9.89-2.96-4.57,0-8.38,1.09-11.45,3.28s-5.22,5.13-6.46,8.81c-1.24,3.69-1.86,7.49-1.86,11.41,0,5.05,.74,9.46,2.21,13.23,1.47,3.77,3.76,6.59,6.87,8.45,3.11,1.86,6.47,2.8,10.09,2.8,4.4,0,8.13-1.27,11.19-3.81,3.05-2.54,5.12-6.31,6.2-11.31Z"/><path d="M297.03,1560.48c0-7.97,2.21-13.87,6.65-17.71,3.7-3.19,8.21-4.78,13.54-4.78,5.92,0,10.75,1.94,14.51,5.82,3.75,3.88,5.63,9.23,5.63,16.07,0,5.54-.83,9.9-2.49,13.07-1.66,3.17-4.08,5.64-7.25,7.4-3.18,1.76-6.64,2.63-10.4,2.63-6.03,0-10.9-1.93-14.61-5.79-3.71-3.86-5.57-9.43-5.57-16.7Zm7.5,0c0,5.51,1.2,9.64,3.61,12.38,2.4,2.74,5.43,4.11,9.08,4.11s6.63-1.38,9.04-4.13c2.4-2.76,3.61-6.96,3.61-12.6,0-5.32-1.21-9.35-3.63-12.1-2.42-2.74-5.42-4.11-9.02-4.11s-6.67,1.37-9.08,4.09c-2.41,2.73-3.61,6.85-3.61,12.36Z"/><path d="M374.11,1582v-6.32c-3.35,4.86-7.9,7.29-13.66,7.29-2.54,0-4.91-.49-7.11-1.46-2.2-.97-3.84-2.19-4.9-3.67-1.07-1.47-1.82-3.28-2.25-5.41-.3-1.43-.45-3.7-.45-6.81v-26.67h7.29v23.87c0,3.81,.15,6.38,.45,7.7,.46,1.92,1.43,3.42,2.92,4.52,1.49,1.09,3.32,1.64,5.51,1.64s4.24-.56,6.16-1.68c1.92-1.12,3.28-2.65,4.07-4.58,.8-1.93,1.2-4.74,1.2-8.41v-23.06h7.29v43.04h-6.52Z"/><path d="M392.07,1582v-43.04h6.57v6.12c3.16-4.73,7.73-7.09,13.7-7.09,2.59,0,4.98,.47,7.15,1.4,2.17,.93,3.8,2.15,4.88,3.67,1.08,1.51,1.84,3.31,2.27,5.39,.27,1.35,.41,3.71,.41,7.09v26.46h-7.29v-26.18c0-2.97-.28-5.19-.85-6.67-.57-1.47-1.57-2.65-3.02-3.53-1.45-.88-3.14-1.32-5.09-1.32-3.11,0-5.79,.99-8.04,2.96-2.26,1.97-3.38,5.71-3.38,11.23v23.51h-7.29Z"/><path d="M454.15,1575.47l1.05,6.44c-2.05,.43-3.89,.65-5.51,.65-2.65,0-4.7-.42-6.16-1.26-1.46-.84-2.49-1.94-3.08-3.3-.59-1.36-.89-4.23-.89-8.61v-24.76h-5.35v-5.67h5.35v-10.66l7.25-4.38v15.04h7.34v5.67h-7.34v25.17c0,2.08,.13,3.42,.39,4.01,.26,.59,.67,1.07,1.26,1.42,.58,.35,1.41,.53,2.49,.53,.81,0,1.88-.09,3.2-.28Z"/><path d="M461.21,1582v-43.04h6.57v6.52c1.67-3.05,3.22-5.07,4.64-6.04,1.42-.97,2.98-1.46,4.68-1.46,2.46,0,4.96,.78,7.5,2.35l-2.51,6.77c-1.78-1.05-3.57-1.58-5.35-1.58-1.59,0-3.03,.48-4.3,1.44-1.27,.96-2.18,2.29-2.72,3.99-.81,2.59-1.22,5.43-1.22,8.51v22.53h-7.29Z"/><path d="M488.6,1598.58l-.81-6.85c1.59,.43,2.98,.65,4.17,.65,1.62,0,2.92-.27,3.89-.81,.97-.54,1.77-1.3,2.39-2.27,.46-.73,1.2-2.54,2.23-5.43,.13-.41,.35-1,.65-1.78l-16.33-43.12h7.86l8.96,24.92c1.16,3.16,2.2,6.48,3.12,9.97,.84-3.35,1.84-6.62,3-9.81l9.2-25.09h7.29l-16.37,43.77c-1.76,4.73-3.12,7.98-4.09,9.77-1.3,2.41-2.78,4.17-4.46,5.29-1.68,1.12-3.67,1.68-6,1.68-1.41,0-2.97-.3-4.7-.89Z"/></g></g><g style="clip-path:url(#clippath-12);"><g style="isolation:isolate;"><path d="M240.74,1716v-59.41h22.41c3.94,0,6.96,.19,9.04,.57,2.92,.49,5.36,1.41,7.34,2.78,1.97,1.36,3.56,3.28,4.76,5.73,1.2,2.46,1.8,5.16,1.8,8.11,0,5.05-1.61,9.33-4.82,12.83-3.22,3.5-9.02,5.25-17.43,5.25h-15.24v24.15h-7.86Zm7.86-31.17h15.36c5.08,0,8.69-.95,10.82-2.84,2.13-1.89,3.2-4.55,3.2-7.98,0-2.49-.63-4.61-1.88-6.38-1.26-1.77-2.91-2.94-4.96-3.51-1.32-.35-3.77-.53-7.34-.53h-15.2v21.24Z"/><path d="M295.16,1716v-59.41h7.29v21.32c3.4-3.94,7.7-5.92,12.89-5.92,3.19,0,5.96,.63,8.31,1.88,2.35,1.26,4.03,2.99,5.05,5.21,1.01,2.21,1.52,5.43,1.52,9.64v27.28h-7.29v-27.28c0-3.65-.79-6.3-2.37-7.96-1.58-1.66-3.82-2.49-6.71-2.49-2.16,0-4.19,.56-6.1,1.68-1.9,1.12-3.26,2.64-4.07,4.56-.81,1.92-1.22,4.57-1.22,7.94v23.55h-7.29Z"/><path d="M338.61,1694.48c0-7.97,2.21-13.87,6.65-17.71,3.7-3.19,8.21-4.78,13.54-4.78,5.92,0,10.75,1.94,14.51,5.82,3.75,3.88,5.63,9.23,5.63,16.07,0,5.54-.83,9.9-2.49,13.07-1.66,3.17-4.08,5.64-7.25,7.4-3.18,1.76-6.64,2.63-10.4,2.63-6.03,0-10.9-1.93-14.61-5.79-3.71-3.86-5.57-9.43-5.57-16.7Zm7.5,0c0,5.51,1.2,9.64,3.61,12.38,2.4,2.74,5.43,4.11,9.08,4.11s6.63-1.38,9.04-4.13c2.4-2.76,3.61-6.96,3.61-12.6,0-5.32-1.21-9.35-3.63-12.1-2.42-2.74-5.42-4.11-9.02-4.11s-6.67,1.37-9.08,4.09c-2.41,2.73-3.61,6.85-3.61,12.36Z"/><path d="M387.49,1716v-43.04h6.57v6.12c3.16-4.73,7.73-7.09,13.7-7.09,2.59,0,4.98,.47,7.15,1.4,2.17,.93,3.8,2.15,4.88,3.67,1.08,1.51,1.84,3.31,2.27,5.39,.27,1.35,.41,3.71,.41,7.09v26.46h-7.29v-26.18c0-2.97-.28-5.19-.85-6.67-.57-1.47-1.57-2.65-3.02-3.53-1.45-.88-3.14-1.32-5.09-1.32-3.11,0-5.79,.99-8.04,2.96-2.26,1.97-3.38,5.71-3.38,11.23v23.51h-7.29Z"/><path d="M463.11,1702.14l7.54,.93c-1.19,4.4-3.39,7.82-6.61,10.25-3.22,2.43-7.32,3.65-12.32,3.65-6.3,0-11.29-1.94-14.98-5.82-3.69-3.88-5.53-9.31-5.53-16.31s1.86-12.86,5.59-16.86c3.73-4,8.56-6,14.51-6s10.46,1.96,14.1,5.88c3.65,3.92,5.47,9.43,5.47,16.54,0,.43-.01,1.08-.04,1.95h-32.1c.27,4.73,1.61,8.35,4.01,10.86,2.4,2.51,5.4,3.77,9,3.77,2.67,0,4.96-.7,6.85-2.11,1.89-1.4,3.39-3.65,4.5-6.73Zm-23.95-11.79h24.03c-.32-3.62-1.24-6.33-2.76-8.15-2.32-2.81-5.34-4.21-9.04-4.21-3.35,0-6.17,1.12-8.45,3.36-2.28,2.24-3.55,5.24-3.79,9Z"/></g></g><g style="clip-path:url(#clippath-13);"><g style="isolation:isolate;"><path d="M255.85,1849v-52.4h-19.57v-7.01h47.09v7.01h-19.66v52.4h-7.86Z"/><path d="M278.59,1827.48c0-7.97,2.21-13.87,6.65-17.71,3.7-3.19,8.21-4.78,13.54-4.78,5.92,0,10.75,1.94,14.51,5.82,3.75,3.88,5.63,9.23,5.63,16.07,0,5.54-.83,9.9-2.49,13.07-1.66,3.17-4.08,5.64-7.25,7.4-3.18,1.76-6.64,2.63-10.4,2.63-6.03,0-10.9-1.93-14.61-5.79-3.71-3.86-5.57-9.43-5.57-16.7Zm7.5,0c0,5.51,1.2,9.64,3.61,12.38,2.4,2.74,5.43,4.11,9.08,4.11s6.63-1.38,9.04-4.13c2.4-2.76,3.61-6.96,3.61-12.6,0-5.32-1.21-9.35-3.63-12.1-2.42-2.74-5.42-4.11-9.02-4.11s-6.67,1.37-9.08,4.09c-2.41,2.73-3.61,6.85-3.61,12.36Z"/><path d="M343.39,1842.47l1.05,6.44c-2.05,.43-3.89,.65-5.51,.65-2.65,0-4.7-.42-6.16-1.26-1.46-.84-2.49-1.94-3.08-3.3-.59-1.36-.89-4.23-.89-8.61v-24.76h-5.35v-5.67h5.35v-10.66l7.25-4.38v15.04h7.34v5.67h-7.34v25.17c0,2.08,.13,3.42,.39,4.01,.26,.59,.67,1.07,1.26,1.42,.58,.35,1.41,.53,2.49,.53,.81,0,1.88-.09,3.2-.28Z"/><path d="M378.61,1843.69c-2.7,2.3-5.3,3.92-7.8,4.86-2.5,.95-5.18,1.42-8.04,1.42-4.73,0-8.36-1.16-10.9-3.46-2.54-2.31-3.81-5.26-3.81-8.86,0-2.11,.48-4.03,1.44-5.78,.96-1.74,2.22-3.14,3.77-4.19,1.55-1.05,3.3-1.85,5.25-2.39,1.43-.38,3.59-.74,6.48-1.09,5.89-.7,10.23-1.54,13.01-2.51,.03-1,.04-1.63,.04-1.91,0-2.97-.69-5.07-2.07-6.28-1.86-1.65-4.63-2.47-8.31-2.47-3.43,0-5.96,.6-7.6,1.8-1.64,1.2-2.84,3.33-3.63,6.38l-7.13-.97c.65-3.05,1.72-5.52,3.2-7.4,1.49-1.88,3.63-3.32,6.44-4.34,2.81-1.01,6.06-1.52,9.77-1.52s6.66,.43,8.96,1.3c2.3,.87,3.98,1.95,5.07,3.26,1.08,1.31,1.84,2.96,2.27,4.96,.24,1.24,.36,3.48,.36,6.73v9.73c0,6.78,.16,11.07,.47,12.87,.31,1.8,.92,3.52,1.84,5.17h-7.62c-.76-1.51-1.24-3.28-1.46-5.31Zm-.61-16.29c-2.65,1.08-6.62,2-11.92,2.76-3,.43-5.12,.92-6.36,1.46-1.24,.54-2.2,1.33-2.88,2.37-.68,1.04-1.01,2.2-1.01,3.46,0,1.95,.74,3.57,2.21,4.86,1.47,1.3,3.63,1.95,6.46,1.95s5.31-.61,7.5-1.84c2.19-1.23,3.8-2.91,4.82-5.04,.78-1.65,1.18-4.08,1.18-7.29v-2.68Z"/><path d="M396.52,1849v-59.41h7.29v59.41h-7.29Z"/></g></g><path d="M1521.33,281h990v133.83h-990v-133.83Z" style="fill:#d2d2d2; fill-rule:evenodd;"/><path d="M1719.33,412.54v673.75" style="fill:none; stroke:#c7c7c7; stroke-linejoin:round; stroke-width:4.58px;"/><path d="M1519.04,414.84h994.58" style="fill:none; stroke:#c7c7c7; stroke-linejoin:round; stroke-width:4.58px;"/><path d="M1519.04,548.67h994.58" style="fill:none; stroke:#c7c7c7; stroke-linejoin:round; stroke-width:4.58px;"/><path d="M1519.04,682.5h994.58" style="fill:none; stroke:#c7c7c7; stroke-linejoin:round; stroke-width:4.58px;"/><path d="M1519.04,816.34h994.58" style="fill:none; stroke:#c7c7c7; stroke-linejoin:round; stroke-width:4.58px;"/><path d="M1519.04,950.17h994.58" style="fill:none; stroke:#c7c7c7; stroke-linejoin:round; stroke-width:4.58px;"/><path d="M1521.33,278.71v807.58" style="fill:none; stroke:#c7c7c7; stroke-linejoin:round; stroke-width:4.58px;"/><path d="M2511.33,278.71v807.58" style="fill:none; stroke:#c7c7c7; stroke-linejoin:round; stroke-width:4.58px;"/><path d="M1519.04,281h994.58" style="fill:none; stroke:#c7c7c7; stroke-linejoin:round; stroke-width:4.58px;"/><path d="M1519.04,1084h994.58" style="fill:none; stroke:#c7c7c7; stroke-linejoin:round; stroke-width:4.58px;"/><g style="clip-path:url(#clippath-14);"><g style="isolation:isolate;"><path d="M1557.94,346.66c0-6.05,.9-11.13,2.71-15.24,1.35-3.03,3.2-5.74,5.53-8.15,2.34-2.4,4.9-4.19,7.68-5.35,3.7-1.57,7.97-2.35,12.81-2.35,8.75,0,15.76,2.71,21.01,8.15s7.88,12.98,7.88,22.66-2.61,17.1-7.82,22.51c-5.21,5.42-12.19,8.13-20.91,8.13s-15.86-2.7-21.07-8.09c-5.21-5.39-7.82-12.81-7.82-22.27Zm12.36-.41c0,6.73,1.55,11.83,4.66,15.3,3.11,3.47,7.05,5.21,11.83,5.21s8.71-1.72,11.77-5.17c3.07-3.45,4.6-8.61,4.6-15.5s-1.49-11.89-4.48-15.24c-2.99-3.35-6.95-5.03-11.89-5.03s-8.93,1.7-11.96,5.09c-3.03,3.39-4.54,8.5-4.54,15.34Z"/><path d="M1635.75,376h-11.39v-43.04h10.58v6.12c1.81-2.89,3.44-4.8,4.88-5.71,1.45-.92,3.09-1.38,4.92-1.38,2.59,0,5.09,.72,7.5,2.15l-3.53,9.93c-1.92-1.24-3.7-1.86-5.35-1.86s-2.95,.44-4.05,1.32c-1.11,.88-1.98,2.47-2.62,4.76-.63,2.3-.95,7.11-.95,14.43v13.29Z"/><path d="M1696.62,376h-10.58v-6.32c-1.76,2.46-3.83,4.29-6.22,5.49-2.39,1.2-4.8,1.8-7.23,1.8-4.94,0-9.18-1.99-12.71-5.98-3.53-3.99-5.29-9.54-5.29-16.68s1.72-12.84,5.15-16.64c3.43-3.8,7.77-5.69,13.01-5.69,4.81,0,8.97,2,12.48,6v-21.4h11.39v59.41Zm-30.39-22.45c0,4.59,.63,7.92,1.9,9.97,1.84,2.97,4.4,4.46,7.7,4.46,2.62,0,4.85-1.11,6.69-3.34,1.84-2.23,2.76-5.56,2.76-9.99,0-4.95-.89-8.5-2.67-10.68-1.78-2.17-4.07-3.26-6.85-3.26s-4.96,1.07-6.79,3.22c-1.82,2.15-2.74,5.36-2.74,9.62Z"/><path d="M1732.77,362.3l11.35,1.91c-1.46,4.16-3.76,7.33-6.91,9.5-3.15,2.18-7.09,3.26-11.81,3.26-7.48,0-13.02-2.45-16.62-7.34-2.84-3.92-4.25-8.86-4.25-14.83,0-7.13,1.86-12.72,5.59-16.76,3.73-4.04,8.44-6.06,14.14-6.06,6.4,0,11.46,2.11,15.16,6.34s5.47,10.71,5.31,19.43h-28.53c.08,3.38,1,6,2.76,7.88,1.76,1.88,3.94,2.82,6.57,2.82,1.78,0,3.28-.49,4.5-1.46,1.22-.97,2.13-2.54,2.76-4.7Zm.65-11.51c-.08-3.3-.93-5.8-2.55-7.52s-3.59-2.57-5.92-2.57c-2.49,0-4.54,.91-6.16,2.71-1.62,1.81-2.42,4.27-2.39,7.38h17.02Z"/><path d="M1764.91,376h-11.39v-43.04h10.58v6.12c1.81-2.89,3.44-4.8,4.88-5.71,1.44-.92,3.09-1.38,4.92-1.38,2.59,0,5.09,.72,7.5,2.15l-3.53,9.93c-1.92-1.24-3.7-1.86-5.35-1.86s-2.95,.44-4.05,1.32c-1.11,.88-1.98,2.47-2.61,4.76-.63,2.3-.95,7.11-.95,14.43v13.29Z"/><path d="M1786.35,316.59h21.92c4.94,0,8.71,.38,11.31,1.13,3.48,1.03,6.47,2.85,8.96,5.47,2.49,2.62,4.38,5.83,5.67,9.62s1.95,8.48,1.95,14.04c0,4.89-.61,9.1-1.82,12.64-1.49,4.32-3.61,7.82-6.36,10.5-2.08,2.03-4.89,3.61-8.43,4.74-2.65,.84-6.19,1.26-10.62,1.26h-22.57v-59.41Zm12,10.05v39.35h8.96c3.35,0,5.77-.19,7.25-.57,1.95-.49,3.56-1.31,4.84-2.47,1.28-1.16,2.33-3.07,3.14-5.73s1.22-6.29,1.22-10.88-.41-8.12-1.22-10.58c-.81-2.46-1.95-4.38-3.4-5.75-1.46-1.38-3.31-2.31-5.55-2.8-1.68-.38-4.96-.57-9.85-.57h-5.39Z"/><path d="M1871.17,362.3l11.35,1.91c-1.46,4.16-3.76,7.33-6.91,9.5-3.15,2.18-7.09,3.26-11.81,3.26-7.48,0-13.02-2.45-16.62-7.34-2.84-3.92-4.25-8.86-4.25-14.83,0-7.13,1.86-12.72,5.59-16.76,3.73-4.04,8.44-6.06,14.14-6.06,6.4,0,11.46,2.11,15.16,6.34,3.7,4.23,5.47,10.71,5.31,19.43h-28.53c.08,3.38,1,6,2.76,7.88,1.76,1.88,3.94,2.82,6.56,2.82,1.78,0,3.28-.49,4.5-1.46s2.13-2.54,2.76-4.7Zm.65-11.51c-.08-3.3-.93-5.8-2.55-7.52s-3.59-2.57-5.92-2.57c-2.49,0-4.54,.91-6.16,2.71-1.62,1.81-2.42,4.27-2.39,7.38h17.02Z"/><path d="M1912.15,332.96v9.08h-7.78v17.35c0,3.51,.07,5.56,.22,6.14,.15,.58,.49,1.06,1.01,1.44,.53,.38,1.17,.57,1.92,.57,1.05,0,2.58-.36,4.58-1.09l.97,8.83c-2.65,1.13-5.65,1.7-9,1.7-2.05,0-3.91-.34-5.55-1.03-1.65-.69-2.86-1.58-3.63-2.67-.77-1.09-1.3-2.57-1.6-4.44-.24-1.32-.37-4-.37-8.02v-18.76h-5.23v-9.08h5.23v-8.55l11.43-6.65v15.2h7.78Z"/><path d="M1928.56,346.09l-10.33-1.86c1.16-4.16,3.16-7.24,6-9.24,2.84-2,7.05-3,12.64-3,5.08,0,8.86,.6,11.35,1.8s4.24,2.73,5.25,4.58c1.01,1.85,1.52,5.25,1.52,10.19l-.12,13.29c0,3.78,.18,6.57,.55,8.37,.37,1.8,1.05,3.72,2.05,5.78h-11.27c-.3-.76-.66-1.88-1.09-3.36-.19-.68-.32-1.12-.41-1.34-1.95,1.89-4.03,3.31-6.24,4.26-2.22,.95-4.58,1.42-7.09,1.42-4.43,0-7.92-1.2-10.48-3.61-2.55-2.4-3.83-5.44-3.83-9.12,0-2.43,.58-4.6,1.74-6.5,1.16-1.9,2.79-3.36,4.88-4.38,2.09-1.01,5.11-1.9,9.06-2.65,5.32-1,9.01-1.93,11.06-2.8v-1.13c0-2.19-.54-3.75-1.62-4.68-1.08-.93-3.12-1.4-6.12-1.4-2.03,0-3.61,.4-4.74,1.2s-2.05,2.2-2.76,4.19Zm15.24,9.24c-1.46,.49-3.77,1.07-6.93,1.74-3.16,.67-5.23,1.34-6.2,1.99-1.49,1.05-2.23,2.39-2.23,4.01s.59,2.97,1.78,4.13c1.19,1.16,2.7,1.74,4.54,1.74,2.05,0,4.01-.67,5.88-2.03,1.38-1.03,2.28-2.28,2.71-3.77,.3-.97,.45-2.82,.45-5.55v-2.27Z"/><path d="M1966.21,327.12v-10.54h11.39v10.54h-11.39Zm0,48.88v-43.04h11.39v43.04h-11.39Z"/><path d="M1989.27,376v-59.41h11.39v59.41h-11.39Z"/><path d="M2008.32,363.72l11.43-1.74c.49,2.22,1.47,3.9,2.96,5.05,1.48,1.15,3.57,1.72,6.24,1.72,2.95,0,5.16-.54,6.65-1.62,1-.76,1.5-1.77,1.5-3.04,0-.86-.27-1.58-.81-2.15-.57-.54-1.84-1.04-3.81-1.5-9.19-2.03-15.01-3.88-17.47-5.55-3.4-2.32-5.11-5.55-5.11-9.69,0-3.73,1.47-6.86,4.42-9.4,2.94-2.54,7.51-3.81,13.7-3.81s10.27,.96,13.13,2.88c2.86,1.92,4.84,4.75,5.92,8.51l-10.74,1.99c-.46-1.67-1.33-2.96-2.61-3.85-1.28-.89-3.11-1.34-5.49-1.34-3,0-5.15,.42-6.44,1.26-.87,.59-1.3,1.37-1.3,2.31,0,.81,.38,1.5,1.13,2.07,1.03,.76,4.57,1.82,10.64,3.2s10.3,3.07,12.71,5.07c2.38,2.03,3.57,4.85,3.57,8.47,0,3.95-1.65,7.34-4.94,10.17-3.3,2.84-8.17,4.26-14.63,4.26-5.86,0-10.5-1.19-13.92-3.57-3.42-2.38-5.65-5.61-6.71-9.69Z"/></g></g><g style="isolation:isolate;"><path d="M2122.61,382.51h-7.82c-4.13-6.24-7.28-12.72-9.44-19.45-2.16-6.73-3.24-13.24-3.24-19.53,0-7.81,1.34-15.2,4.01-22.17,2.32-6.05,5.27-11.63,8.83-16.74h7.78c-3.7,8.19-6.25,15.15-7.64,20.89s-2.09,11.83-2.09,18.26c0,4.43,.41,8.97,1.24,13.62,.82,4.65,1.95,9.06,3.38,13.25,.95,2.76,2.61,6.71,4.98,11.87Z"/></g><g style="isolation:isolate;"><path d="M2180.37,376h-10.58v-6.32c-1.76,2.46-3.83,4.29-6.22,5.49-2.39,1.2-4.8,1.8-7.23,1.8-4.94,0-9.18-1.99-12.71-5.98-3.53-3.99-5.29-9.54-5.29-16.68s1.71-12.84,5.15-16.64c3.43-3.8,7.77-5.69,13.01-5.69,4.81,0,8.97,2,12.48,6v-21.4h11.39v59.41Zm-30.4-22.45c0,4.59,.63,7.92,1.91,9.97,1.84,2.97,4.4,4.46,7.7,4.46,2.62,0,4.85-1.11,6.69-3.34,1.84-2.23,2.76-5.56,2.76-9.99,0-4.95-.89-8.5-2.67-10.68-1.78-2.17-4.07-3.26-6.85-3.26s-4.96,1.07-6.79,3.22c-1.82,2.15-2.74,5.36-2.74,9.62Z"/><path d="M2191.11,376v-59.41h11.39v21.4c3.51-4,7.67-6,12.48-6,5.24,0,9.58,1.9,13.01,5.69,3.43,3.8,5.15,9.25,5.15,16.35s-1.75,13.01-5.25,16.98c-3.5,3.97-7.75,5.96-12.75,5.96-2.46,0-4.88-.62-7.27-1.84-2.39-1.23-4.45-3.05-6.18-5.45v6.32h-10.58Zm11.31-22.45c0,4.46,.7,7.75,2.11,9.89,1.97,3.03,4.59,4.54,7.86,4.54,2.51,0,4.65-1.07,6.42-3.22,1.77-2.15,2.65-5.53,2.65-10.15,0-4.92-.89-8.46-2.67-10.64-1.78-2.17-4.07-3.26-6.85-3.26s-5,1.06-6.81,3.18c-1.81,2.12-2.72,5.34-2.72,9.67Z"/><path d="M2239.66,353.87c0-3.78,.93-7.44,2.8-10.98,1.86-3.54,4.5-6.24,7.92-8.11,3.42-1.86,7.23-2.8,11.45-2.8,6.51,0,11.85,2.11,16.01,6.34,4.16,4.23,6.24,9.57,6.24,16.03s-2.1,11.91-6.3,16.19c-4.2,4.28-9.49,6.42-15.87,6.42-3.95,0-7.71-.89-11.29-2.67-3.58-1.78-6.3-4.4-8.17-7.84-1.86-3.45-2.8-7.64-2.8-12.58Zm11.67,.61c0,4.27,1.01,7.54,3.04,9.81s4.53,3.4,7.5,3.4,5.46-1.13,7.48-3.4c2.01-2.27,3.02-5.57,3.02-9.89s-1.01-7.46-3.02-9.73c-2.01-2.27-4.51-3.4-7.48-3.4s-5.47,1.13-7.5,3.4-3.04,5.54-3.04,9.81Z"/></g><g style="isolation:isolate;"><path d="M2294.86,382.51c2.24-4.81,3.82-8.5,4.74-11.06,.92-2.57,1.77-5.53,2.55-8.88,.78-3.35,1.36-6.53,1.74-9.54,.38-3.01,.57-6.1,.57-9.26,0-6.43-.69-12.52-2.07-18.26s-3.92-12.71-7.62-20.89h7.74c4.08,5.81,7.25,11.97,9.5,18.48,2.25,6.51,3.38,13.12,3.38,19.82,0,5.65-.89,11.7-2.67,18.16-2.03,7.24-5.36,14.39-10.01,21.44h-7.86Z"/></g><g style="clip-path:url(#clippath-15);"><path d="M1629.39,440.09c3.16,0,6.13,.62,8.9,1.86,2.77,1.24,5.17,2.92,7.21,5.05,2.04,2.12,3.65,4.59,4.82,7.4,1.18,2.81,1.76,5.8,1.76,8.96s-.59,6.24-1.78,9.08c-1.19,2.84-2.82,5.31-4.9,7.42-2.08,2.11-4.53,3.78-7.34,5.01s-5.84,1.84-9.08,1.84c-2.97,0-5.85-.55-8.63-1.66l-10.42,10.42c-.3,.3-.63,.53-.99,.71-.36,.18-.75,.26-1.15,.26-.38,0-.74-.05-1.09-.14-.35-.09-.72-.14-1.09-.14-.62,0-1.24,.09-1.84,.28-.61,.19-1.14,.49-1.6,.89-.54,.46-.91,.95-1.11,1.46-.2,.51-.35,1.03-.45,1.54-.09,.51-.18,1.01-.26,1.48-.08,.47-.26,.89-.53,1.26-.27,.36-.69,.66-1.26,.87-.57,.22-1.39,.32-2.47,.32-.57,0-1.07,.15-1.52,.45-.45,.3-.82,.67-1.13,1.11-.31,.45-.54,.93-.69,1.46-.15,.53-.22,1.03-.22,1.52,0,.46,.07,.88,.2,1.28,.14,.39,.2,.8,.2,1.24,0,.73-.26,1.38-.77,1.95-.84,.92-1.77,1.88-2.8,2.88-1.03,1-2,1.93-2.92,2.8-.92,.86-1.92,1.53-3,2.01-1.08,.47-2.27,.71-3.57,.71s-2.43-.24-3.57-.71c-1.13-.47-2.13-1.11-2.98-1.93-.85-.81-1.53-1.77-2.03-2.88-.5-1.11-.75-2.3-.75-3.57s.26-2.56,.77-3.79c.51-1.23,1.23-2.3,2.15-3.22l33.8-33.84c-.57-1.46-1.01-2.86-1.32-4.21-.31-1.35-.47-2.8-.47-4.34,0-3.22,.66-6.23,1.97-9.04,1.31-2.81,3.07-5.26,5.27-7.34,2.2-2.08,4.74-3.72,7.62-4.9,2.88-1.19,5.9-1.78,9.06-1.78Zm3.32,15c0,.76,.14,1.47,.41,2.13,.27,.66,.65,1.24,1.13,1.72,.49,.49,1.06,.87,1.72,1.15,.66,.28,1.37,.43,2.13,.43s1.46-.14,2.11-.43c.65-.28,1.22-.68,1.7-1.18,.49-.5,.86-1.08,1.13-1.74,.27-.66,.41-1.36,.41-2.09s-.14-1.47-.43-2.13c-.28-.66-.67-1.24-1.15-1.72-.49-.49-1.05-.87-1.7-1.16s-1.35-.43-2.11-.43-1.46,.14-2.11,.43c-.65,.28-1.22,.67-1.7,1.16-.49,.49-.86,1.06-1.13,1.72-.27,.66-.41,1.37-.41,2.13Z" style="fill:#f9c23c;"/></g><g style="clip-path:url(#clippath-16);"><g style="isolation:isolate;"><path d="M1756.34,481.06c0-9.86,2.65-17.58,7.94-23.16s12.13-8.37,20.51-8.37c5.48,0,10.43,1.31,14.83,3.93,4.4,2.62,7.76,6.28,10.07,10.96,2.31,4.69,3.47,10,3.47,15.95s-1.22,11.42-3.65,16.17c-2.43,4.76-5.88,8.36-10.33,10.8s-9.27,3.67-14.43,3.67c-5.59,0-10.59-1.35-15-4.05-4.4-2.7-7.74-6.39-10.01-11.06-2.27-4.67-3.4-9.62-3.4-14.83Zm8.11,.12c0,7.16,1.93,12.8,5.78,16.92,3.85,4.12,8.68,6.18,14.49,6.18s10.79-2.08,14.61-6.24c3.82-4.16,5.74-10.06,5.74-17.71,0-4.84-.82-9.06-2.45-12.67-1.64-3.61-4.03-6.4-7.17-8.39-3.15-1.99-6.68-2.98-10.6-2.98-5.57,0-10.35,1.91-14.37,5.74-4.01,3.82-6.02,10.21-6.02,19.15Z"/><path d="M1822.28,510v-43.04h6.57v6.52c1.67-3.05,3.22-5.07,4.64-6.04s2.98-1.46,4.68-1.46c2.46,0,4.96,.78,7.5,2.35l-2.51,6.77c-1.78-1.05-3.57-1.58-5.35-1.58-1.6,0-3.03,.48-4.3,1.44-1.27,.96-2.17,2.29-2.71,3.99-.81,2.59-1.22,5.43-1.22,8.51v22.53h-7.29Z"/><path d="M1877.92,510v-5.43c-2.73,4.27-6.74,6.4-12.04,6.4-3.43,0-6.58-.95-9.46-2.84-2.88-1.89-5.11-4.53-6.69-7.92-1.58-3.39-2.37-7.29-2.37-11.69s.71-8.19,2.15-11.69c1.43-3.5,3.58-6.18,6.44-8.04,2.86-1.86,6.06-2.8,9.6-2.8,2.59,0,4.9,.55,6.93,1.64,2.03,1.09,3.67,2.52,4.94,4.28v-21.32h7.25v59.41h-6.77Zm-23.06-21.48c0,5.51,1.16,9.63,3.49,12.36,2.32,2.73,5.07,4.09,8.23,4.09s5.9-1.3,8.13-3.91c2.23-2.61,3.34-6.58,3.34-11.93,0-5.89-1.13-10.21-3.4-12.97s-5.07-4.13-8.39-4.13-5.95,1.32-8.12,3.97c-2.18,2.65-3.26,6.82-3.26,12.52Z"/><path d="M1925.62,496.14l7.54,.93c-1.19,4.4-3.39,7.82-6.61,10.25s-7.32,3.65-12.32,3.65c-6.29,0-11.29-1.94-14.97-5.82-3.69-3.88-5.53-9.31-5.53-16.31s1.86-12.86,5.59-16.86c3.73-4,8.56-6,14.51-6s10.46,1.96,14.1,5.88c3.65,3.92,5.47,9.43,5.47,16.54,0,.43-.01,1.08-.04,1.95h-32.1c.27,4.73,1.61,8.35,4.01,10.86,2.4,2.51,5.4,3.77,9,3.77,2.67,0,4.96-.7,6.85-2.11,1.89-1.4,3.39-3.65,4.5-6.73Zm-23.95-11.79h24.03c-.32-3.62-1.24-6.33-2.76-8.15-2.32-2.81-5.34-4.21-9.04-4.21-3.35,0-6.17,1.12-8.45,3.36-2.28,2.24-3.55,5.24-3.79,9Z"/><path d="M1942.24,510v-43.04h6.57v6.52c1.67-3.05,3.22-5.07,4.64-6.04s2.98-1.46,4.68-1.46c2.46,0,4.96,.78,7.5,2.35l-2.51,6.77c-1.78-1.05-3.57-1.58-5.35-1.58-1.6,0-3.03,.48-4.3,1.44-1.27,.96-2.17,2.29-2.71,3.99-.81,2.59-1.22,5.43-1.22,8.51v22.53h-7.29Z"/><path d="M1970.89,510v-59.41h20.47c4.62,0,8.15,.28,10.58,.85,3.4,.78,6.31,2.2,8.71,4.26,3.13,2.65,5.48,6.03,7.03,10.15,1.55,4.12,2.33,8.83,2.33,14.12,0,4.51-.53,8.51-1.58,12-1.05,3.49-2.41,6.37-4.05,8.65-1.65,2.28-3.45,4.08-5.41,5.39-1.96,1.31-4.32,2.3-7.09,2.98-2.77,.68-5.95,1.01-9.54,1.01h-21.44Zm7.86-7.01h12.69c3.92,0,6.99-.36,9.22-1.09,2.23-.73,4-1.76,5.33-3.08,1.87-1.86,3.32-4.37,4.36-7.52,1.04-3.15,1.56-6.96,1.56-11.45,0-6.21-1.02-10.99-3.06-14.33s-4.52-5.57-7.44-6.71c-2.11-.81-5.5-1.22-10.17-1.22h-12.48v45.39Z"/><path d="M2059.37,496.14l7.54,.93c-1.19,4.4-3.39,7.82-6.61,10.25s-7.32,3.65-12.32,3.65c-6.29,0-11.29-1.94-14.97-5.82-3.69-3.88-5.53-9.31-5.53-16.31s1.86-12.86,5.59-16.86c3.73-4,8.56-6,14.51-6s10.46,1.96,14.1,5.88c3.65,3.92,5.47,9.43,5.47,16.54,0,.43-.01,1.08-.04,1.95h-32.1c.27,4.73,1.61,8.35,4.01,10.86,2.4,2.51,5.4,3.77,9,3.77,2.67,0,4.96-.7,6.85-2.11,1.89-1.4,3.39-3.65,4.5-6.73Zm-23.95-11.79h24.03c-.32-3.62-1.24-6.33-2.76-8.15-2.32-2.81-5.34-4.21-9.04-4.21-3.35,0-6.17,1.12-8.45,3.36-2.28,2.24-3.55,5.24-3.79,9Z"/><path d="M2091.99,503.47l1.05,6.44c-2.05,.43-3.89,.65-5.51,.65-2.65,0-4.7-.42-6.16-1.26-1.46-.84-2.49-1.94-3.08-3.3-.59-1.36-.89-4.23-.89-8.61v-24.76h-5.35v-5.67h5.35v-10.66l7.25-4.38v15.04h7.34v5.67h-7.34v25.17c0,2.08,.13,3.42,.38,4.01,.26,.59,.68,1.07,1.26,1.42,.58,.35,1.41,.53,2.49,.53,.81,0,1.88-.09,3.2-.28Z"/><path d="M2127.21,504.69c-2.7,2.3-5.3,3.92-7.8,4.86-2.5,.95-5.18,1.42-8.04,1.42-4.73,0-8.36-1.16-10.9-3.46-2.54-2.31-3.81-5.26-3.81-8.86,0-2.11,.48-4.03,1.44-5.78,.96-1.74,2.22-3.14,3.77-4.19s3.3-1.85,5.25-2.39c1.43-.38,3.59-.74,6.48-1.09,5.89-.7,10.23-1.54,13.01-2.51,.03-1,.04-1.63,.04-1.91,0-2.97-.69-5.07-2.07-6.28-1.87-1.65-4.63-2.47-8.31-2.47-3.43,0-5.96,.6-7.6,1.8-1.64,1.2-2.84,3.33-3.63,6.38l-7.13-.97c.65-3.05,1.72-5.52,3.2-7.4,1.49-1.88,3.63-3.32,6.44-4.34,2.81-1.01,6.06-1.52,9.77-1.52s6.66,.43,8.96,1.3c2.3,.87,3.99,1.95,5.07,3.26,1.08,1.31,1.84,2.96,2.27,4.96,.24,1.24,.37,3.48,.37,6.73v9.73c0,6.78,.15,11.07,.47,12.87,.31,1.8,.92,3.52,1.84,5.17h-7.62c-.76-1.51-1.24-3.28-1.46-5.31Zm-.61-16.29c-2.65,1.08-6.62,2-11.91,2.76-3,.43-5.12,.92-6.36,1.46-1.24,.54-2.2,1.33-2.88,2.37-.68,1.04-1.01,2.2-1.01,3.46,0,1.95,.74,3.57,2.21,4.86s3.63,1.95,6.46,1.95,5.31-.61,7.5-1.84c2.19-1.23,3.8-2.91,4.82-5.04,.78-1.65,1.17-4.08,1.17-7.29v-2.68Z"/><path d="M2145.32,458.98v-8.39h7.29v8.39h-7.29Zm0,51.02v-43.04h7.29v43.04h-7.29Z"/><path d="M2163.56,510v-59.41h7.29v59.41h-7.29Z"/><path d="M2184.43,510v-59.41h7.86v59.41h-7.86Z"/><path d="M2206.16,510v-59.41h20.47c4.62,0,8.15,.28,10.58,.85,3.4,.78,6.31,2.2,8.71,4.26,3.13,2.65,5.48,6.03,7.03,10.15s2.33,8.83,2.33,14.12c0,4.51-.53,8.51-1.58,12-1.05,3.49-2.4,6.37-4.05,8.65s-3.45,4.08-5.41,5.39c-1.96,1.31-4.32,2.3-7.09,2.98-2.77,.68-5.95,1.01-9.54,1.01h-21.44Zm7.86-7.01h12.69c3.92,0,6.99-.36,9.22-1.09,2.23-.73,4-1.76,5.33-3.08,1.86-1.86,3.32-4.37,4.36-7.52s1.56-6.96,1.56-11.45c0-6.21-1.02-10.99-3.06-14.33-2.04-3.34-4.52-5.57-7.44-6.71-2.11-.81-5.5-1.22-10.17-1.22h-12.48v45.39Z"/></g></g><g style="clip-path:url(#clippath-17);"><g style="isolation:isolate;"><path d="M1756.34,615.06c0-9.86,2.65-17.58,7.94-23.16s12.13-8.37,20.51-8.37c5.48,0,10.43,1.31,14.83,3.93,4.4,2.62,7.76,6.28,10.07,10.96,2.31,4.69,3.47,10,3.47,15.95s-1.22,11.42-3.65,16.17c-2.43,4.76-5.88,8.36-10.33,10.8s-9.27,3.67-14.43,3.67c-5.59,0-10.59-1.35-15-4.05-4.4-2.7-7.74-6.39-10.01-11.06-2.27-4.67-3.4-9.62-3.4-14.83Zm8.11,.12c0,7.16,1.93,12.8,5.78,16.92,3.85,4.12,8.68,6.18,14.49,6.18s10.79-2.08,14.61-6.24c3.82-4.16,5.74-10.06,5.74-17.71,0-4.84-.82-9.06-2.45-12.67-1.64-3.61-4.03-6.4-7.17-8.39-3.15-1.99-6.68-2.98-10.6-2.98-5.57,0-10.35,1.91-14.37,5.74-4.01,3.82-6.02,10.21-6.02,19.15Z"/><path d="M1822.28,644v-43.04h6.57v6.52c1.67-3.05,3.22-5.07,4.64-6.04s2.98-1.46,4.68-1.46c2.46,0,4.96,.78,7.5,2.35l-2.51,6.77c-1.78-1.05-3.57-1.58-5.35-1.58-1.6,0-3.03,.48-4.3,1.44-1.27,.96-2.17,2.29-2.71,3.99-.81,2.59-1.22,5.43-1.22,8.51v22.53h-7.29Z"/><path d="M1877.92,644v-5.43c-2.73,4.27-6.74,6.4-12.04,6.4-3.43,0-6.58-.95-9.46-2.84-2.88-1.89-5.11-4.53-6.69-7.92-1.58-3.39-2.37-7.29-2.37-11.69s.71-8.19,2.15-11.69c1.43-3.5,3.58-6.18,6.44-8.04,2.86-1.86,6.06-2.8,9.6-2.8,2.59,0,4.9,.55,6.93,1.64,2.03,1.09,3.67,2.52,4.94,4.28v-21.32h7.25v59.41h-6.77Zm-23.06-21.48c0,5.51,1.16,9.63,3.49,12.36,2.32,2.73,5.07,4.09,8.23,4.09s5.9-1.3,8.13-3.91c2.23-2.61,3.34-6.58,3.34-11.93,0-5.89-1.13-10.21-3.4-12.97s-5.07-4.13-8.39-4.13-5.95,1.32-8.12,3.97c-2.18,2.65-3.26,6.82-3.26,12.52Z"/><path d="M1925.62,630.14l7.54,.93c-1.19,4.4-3.39,7.82-6.61,10.25s-7.32,3.65-12.32,3.65c-6.29,0-11.29-1.94-14.97-5.82-3.69-3.88-5.53-9.31-5.53-16.31s1.86-12.86,5.59-16.86c3.73-4,8.56-6,14.51-6s10.46,1.96,14.1,5.88c3.65,3.92,5.47,9.43,5.47,16.54,0,.43-.01,1.08-.04,1.95h-32.1c.27,4.73,1.61,8.35,4.01,10.86,2.4,2.51,5.4,3.77,9,3.77,2.67,0,4.96-.7,6.85-2.11,1.89-1.4,3.39-3.65,4.5-6.73Zm-23.95-11.79h24.03c-.32-3.62-1.24-6.33-2.76-8.15-2.32-2.81-5.34-4.21-9.04-4.21-3.35,0-6.17,1.12-8.45,3.36-2.28,2.24-3.55,5.24-3.79,9Z"/><path d="M1942.24,644v-43.04h6.57v6.52c1.67-3.05,3.22-5.07,4.64-6.04s2.98-1.46,4.68-1.46c2.46,0,4.96,.78,7.5,2.35l-2.51,6.77c-1.78-1.05-3.57-1.58-5.35-1.58-1.6,0-3.03,.48-4.3,1.44-1.27,.96-2.17,2.29-2.71,3.99-.81,2.59-1.22,5.43-1.22,8.51v22.53h-7.29Z"/><path d="M1972.23,644v-59.41h7.86v59.41h-7.86Z"/><path d="M1993.95,644v-59.41h20.47c4.62,0,8.15,.28,10.58,.85,3.4,.78,6.31,2.2,8.71,4.26,3.13,2.65,5.48,6.03,7.03,10.15s2.33,8.83,2.33,14.12c0,4.51-.53,8.51-1.58,12-1.05,3.49-2.4,6.37-4.05,8.65s-3.45,4.08-5.41,5.39c-1.96,1.31-4.32,2.3-7.09,2.98-2.77,.68-5.95,1.01-9.54,1.01h-21.44Zm7.86-7.01h12.69c3.92,0,6.99-.36,9.22-1.09,2.23-.73,4-1.76,5.33-3.08,1.86-1.86,3.32-4.37,4.36-7.52s1.56-6.96,1.56-11.45c0-6.21-1.02-10.99-3.06-14.33-2.04-3.34-4.52-5.57-7.44-6.71-2.11-.81-5.5-1.22-10.17-1.22h-12.48v45.39Z"/></g></g><g style="clip-path:url(#clippath-18);"><g style="isolation:isolate;"><path d="M1758.73,778v-59.41h22.41c3.95,0,6.96,.19,9.04,.57,2.92,.49,5.36,1.41,7.33,2.78s3.56,3.28,4.76,5.73c1.2,2.46,1.8,5.16,1.8,8.11,0,5.05-1.61,9.33-4.82,12.83-3.22,3.5-9.02,5.25-17.43,5.25h-15.24v24.15h-7.86Zm7.86-31.17h15.36c5.08,0,8.69-.95,10.82-2.84,2.13-1.89,3.2-4.55,3.2-7.98,0-2.49-.63-4.61-1.88-6.38-1.26-1.77-2.91-2.94-4.96-3.51-1.32-.35-3.77-.53-7.34-.53h-15.2v21.24Z"/><path d="M1813.08,778v-43.04h6.57v6.52c1.67-3.05,3.22-5.07,4.64-6.04,1.42-.97,2.98-1.46,4.68-1.46,2.46,0,4.96,.78,7.5,2.35l-2.51,6.77c-1.78-1.05-3.57-1.58-5.35-1.58-1.59,0-3.03,.48-4.3,1.44-1.27,.96-2.18,2.29-2.71,3.99-.81,2.59-1.22,5.43-1.22,8.51v22.53h-7.29Z"/><path d="M1838.09,756.48c0-7.97,2.21-13.87,6.65-17.71,3.7-3.19,8.21-4.78,13.54-4.78,5.92,0,10.75,1.94,14.51,5.82,3.75,3.88,5.63,9.23,5.63,16.07,0,5.54-.83,9.9-2.49,13.07-1.66,3.17-4.08,5.64-7.25,7.4-3.18,1.76-6.64,2.63-10.4,2.63-6.03,0-10.9-1.93-14.61-5.79-3.71-3.86-5.57-9.43-5.57-16.7Zm7.5,0c0,5.51,1.2,9.64,3.61,12.38,2.4,2.74,5.43,4.11,9.08,4.11s6.63-1.38,9.04-4.13c2.4-2.76,3.61-6.96,3.61-12.6,0-5.32-1.21-9.35-3.63-12.1-2.42-2.74-5.42-4.11-9.02-4.11s-6.67,1.37-9.08,4.09c-2.41,2.73-3.61,6.85-3.61,12.36Z"/><path d="M1914.88,778v-5.43c-2.73,4.27-6.74,6.4-12.04,6.4-3.43,0-6.58-.95-9.46-2.84-2.88-1.89-5.11-4.53-6.69-7.92-1.58-3.39-2.37-7.29-2.37-11.69s.71-8.19,2.15-11.69c1.43-3.5,3.58-6.18,6.44-8.04,2.86-1.86,6.06-2.8,9.6-2.8,2.59,0,4.9,.55,6.93,1.64,2.03,1.09,3.67,2.52,4.94,4.28v-21.32h7.25v59.41h-6.77Zm-23.06-21.48c0,5.51,1.16,9.63,3.49,12.36,2.32,2.73,5.07,4.09,8.23,4.09s5.9-1.3,8.13-3.91c2.23-2.61,3.34-6.58,3.34-11.93,0-5.89-1.13-10.21-3.4-12.97s-5.07-4.13-8.39-4.13-5.95,1.32-8.12,3.97c-2.18,2.65-3.26,6.82-3.26,12.52Z"/><path d="M1961.33,778v-6.32c-3.35,4.86-7.9,7.29-13.66,7.29-2.54,0-4.91-.49-7.11-1.46s-3.84-2.19-4.9-3.67c-1.07-1.47-1.82-3.28-2.25-5.41-.3-1.43-.45-3.7-.45-6.81v-26.67h7.29v23.87c0,3.81,.15,6.38,.45,7.7,.46,1.92,1.43,3.42,2.92,4.52,1.49,1.09,3.32,1.64,5.51,1.64s4.24-.56,6.16-1.68c1.92-1.12,3.28-2.65,4.07-4.58,.8-1.93,1.2-4.74,1.2-8.41v-23.06h7.29v43.04h-6.52Z"/><path d="M2007.37,762.23l7.17,.93c-.78,4.94-2.79,8.81-6.02,11.61-3.23,2.8-7.19,4.19-11.89,4.19-5.89,0-10.62-1.92-14.21-5.78-3.58-3.85-5.37-9.37-5.37-16.55,0-4.65,.77-8.71,2.31-12.2s3.88-6.1,7.03-7.84c3.15-1.74,6.57-2.61,10.27-2.61,4.67,0,8.5,1.18,11.47,3.55,2.97,2.37,4.88,5.72,5.71,10.07l-7.09,1.09c-.68-2.89-1.87-5.07-3.59-6.53s-3.79-2.19-6.22-2.19c-3.67,0-6.66,1.32-8.96,3.95-2.3,2.63-3.44,6.8-3.44,12.5s1.11,9.98,3.32,12.6c2.21,2.62,5.11,3.93,8.67,3.93,2.86,0,5.25-.88,7.17-2.63,1.92-1.76,3.13-4.46,3.65-8.11Z"/><path d="M2036.71,771.47l1.05,6.44c-2.05,.43-3.89,.65-5.51,.65-2.65,0-4.7-.42-6.16-1.26-1.46-.84-2.49-1.94-3.08-3.3-.59-1.36-.89-4.23-.89-8.61v-24.76h-5.35v-5.67h5.35v-10.66l7.25-4.38v15.04h7.34v5.67h-7.34v25.17c0,2.08,.13,3.42,.38,4.01,.26,.59,.68,1.07,1.26,1.42,.58,.35,1.41,.53,2.49,.53,.81,0,1.88-.09,3.2-.28Z"/><path d="M2046.11,778v-59.41h7.86v59.41h-7.86Z"/><path d="M2067.84,778v-59.41h20.47c4.62,0,8.15,.28,10.58,.85,3.4,.78,6.31,2.2,8.71,4.26,3.13,2.65,5.48,6.03,7.03,10.15,1.55,4.12,2.33,8.83,2.33,14.12,0,4.51-.53,8.51-1.58,12-1.05,3.49-2.41,6.37-4.05,8.65-1.65,2.28-3.45,4.08-5.41,5.39-1.96,1.31-4.32,2.3-7.09,2.98-2.77,.68-5.95,1.01-9.54,1.01h-21.44Zm7.86-7.01h12.69c3.92,0,6.99-.36,9.22-1.09,2.23-.73,4-1.76,5.33-3.08,1.87-1.86,3.32-4.37,4.36-7.52,1.04-3.15,1.56-6.96,1.56-11.45,0-6.21-1.02-10.99-3.06-14.33s-4.52-5.57-7.44-6.71c-2.11-.81-5.5-1.22-10.17-1.22h-12.48v45.39Z"/></g></g><g style="clip-path:url(#clippath-19);"><g style="isolation:isolate;"><path d="M1797.72,852.59h7.86v34.33c0,5.97-.68,10.71-2.03,14.22-1.35,3.51-3.79,6.37-7.32,8.57-3.53,2.2-8.15,3.3-13.88,3.3s-10.12-.96-13.66-2.88c-3.54-1.92-6.07-4.69-7.58-8.33-1.51-3.63-2.27-8.6-2.27-14.89v-34.33h7.86v34.29c0,5.16,.48,8.96,1.44,11.41,.96,2.45,2.61,4.33,4.94,5.65,2.34,1.32,5.19,1.99,8.57,1.99,5.78,0,9.9-1.31,12.36-3.93,2.46-2.62,3.69-7.66,3.69-15.12v-34.29Z"/><path d="M1817.74,912v-43.04h6.57v6.12c3.16-4.73,7.73-7.09,13.7-7.09,2.59,0,4.98,.47,7.15,1.4,2.17,.93,3.8,2.15,4.88,3.67,1.08,1.51,1.84,3.31,2.27,5.39,.27,1.35,.41,3.71,.41,7.09v26.46h-7.29v-26.18c0-2.97-.28-5.19-.85-6.67-.57-1.47-1.57-2.65-3.02-3.53s-3.14-1.32-5.09-1.32c-3.11,0-5.79,.99-8.04,2.96-2.26,1.97-3.38,5.71-3.38,11.23v23.51h-7.29Z"/><path d="M1863.94,860.98v-8.39h7.29v8.39h-7.29Zm0,51.02v-43.04h7.29v43.04h-7.29Z"/><path d="M1898.27,905.47l1.05,6.44c-2.05,.43-3.89,.65-5.51,.65-2.65,0-4.7-.42-6.16-1.26-1.46-.84-2.49-1.94-3.08-3.3-.59-1.36-.89-4.23-.89-8.61v-24.76h-5.35v-5.67h5.35v-10.66l7.25-4.38v15.04h7.34v5.67h-7.34v25.17c0,2.08,.13,3.42,.38,4.01,.26,.59,.68,1.07,1.26,1.42,.58,.35,1.41,.53,2.49,.53,.81,0,1.88-.09,3.2-.28Z"/><path d="M1906.33,912v-59.41h22.41c3.94,0,6.96,.19,9.04,.57,2.92,.49,5.36,1.41,7.34,2.78,1.97,1.36,3.56,3.28,4.76,5.73,1.2,2.46,1.8,5.16,1.8,8.11,0,5.05-1.61,9.33-4.82,12.83-3.22,3.5-9.02,5.25-17.43,5.25h-15.24v24.15h-7.86Zm7.86-31.17h15.36c5.08,0,8.69-.95,10.82-2.84,2.13-1.89,3.2-4.55,3.2-7.98,0-2.49-.63-4.61-1.88-6.38-1.26-1.77-2.91-2.94-4.96-3.51-1.32-.35-3.77-.53-7.33-.53h-15.2v21.24Z"/><path d="M1960.68,912v-43.04h6.56v6.52c1.68-3.05,3.22-5.07,4.64-6.04,1.42-.97,2.98-1.46,4.68-1.46,2.46,0,4.96,.78,7.5,2.35l-2.51,6.77c-1.78-1.05-3.57-1.58-5.35-1.58-1.59,0-3.03,.48-4.3,1.44-1.27,.96-2.17,2.29-2.72,3.99-.81,2.59-1.21,5.43-1.21,8.51v22.53h-7.29Z"/><path d="M1988.44,860.98v-8.39h7.29v8.39h-7.29Zm0,51.02v-43.04h7.29v43.04h-7.29Z"/><path d="M2034.93,896.23l7.17,.93c-.78,4.94-2.79,8.81-6.02,11.61-3.23,2.8-7.19,4.19-11.89,4.19-5.89,0-10.62-1.92-14.21-5.78-3.58-3.85-5.37-9.37-5.37-16.55,0-4.65,.77-8.71,2.31-12.2s3.88-6.1,7.03-7.84c3.15-1.74,6.57-2.61,10.27-2.61,4.67,0,8.5,1.18,11.47,3.55,2.97,2.37,4.88,5.72,5.71,10.07l-7.09,1.09c-.68-2.89-1.87-5.07-3.59-6.53s-3.79-2.19-6.22-2.19c-3.67,0-6.66,1.32-8.96,3.95-2.3,2.63-3.44,6.8-3.44,12.5s1.11,9.98,3.32,12.6c2.21,2.62,5.11,3.93,8.67,3.93,2.86,0,5.25-.88,7.17-2.63,1.92-1.76,3.13-4.46,3.65-8.11Z"/><path d="M2077.8,898.14l7.54,.93c-1.19,4.4-3.39,7.82-6.61,10.25-3.22,2.43-7.32,3.65-12.32,3.65-6.3,0-11.29-1.94-14.98-5.82-3.69-3.88-5.53-9.31-5.53-16.31s1.86-12.86,5.59-16.86c3.73-4,8.56-6,14.51-6s10.46,1.96,14.1,5.88c3.65,3.92,5.47,9.43,5.47,16.54,0,.43-.01,1.08-.04,1.95h-32.1c.27,4.73,1.61,8.35,4.01,10.86,2.4,2.51,5.4,3.77,9,3.77,2.68,0,4.96-.7,6.85-2.11,1.89-1.4,3.39-3.65,4.5-6.73Zm-23.95-11.79h24.03c-.32-3.62-1.24-6.33-2.76-8.15-2.32-2.81-5.34-4.21-9.04-4.21-3.35,0-6.17,1.12-8.45,3.36-2.28,2.24-3.55,5.24-3.79,9Z"/></g></g><g style="clip-path:url(#clippath-20);"><g style="isolation:isolate;"><path d="M1803.76,1039.64c3.65,2.51,7.01,4.35,10.09,5.51l-2.31,5.47c-4.27-1.54-8.53-3.97-12.77-7.29-4.4,2.46-9.27,3.69-14.59,3.69s-10.25-1.3-14.63-3.89-7.75-6.24-10.11-10.94-3.55-10-3.55-15.89,1.19-11.2,3.57-16.01c2.38-4.81,5.76-8.47,10.15-10.98,4.39-2.51,9.3-3.77,14.73-3.77s10.43,1.3,14.83,3.91c4.4,2.61,7.76,6.25,10.07,10.94,2.31,4.69,3.46,9.98,3.46,15.87,0,4.89-.74,9.29-2.23,13.19-1.49,3.91-3.73,7.3-6.73,10.19Zm-17.31-10.05c4.54,1.27,8.28,3.16,11.23,5.67,4.62-4.21,6.93-10.55,6.93-19.01,0-4.81-.82-9.01-2.45-12.6-1.63-3.59-4.03-6.38-7.17-8.37-3.15-1.99-6.68-2.98-10.6-2.98-5.86,0-10.73,2.01-14.59,6.02-3.86,4.01-5.79,10-5.79,17.97s1.91,13.66,5.73,17.79,8.71,6.2,14.65,6.2c2.81,0,5.46-.53,7.94-1.58-2.46-1.59-5.05-2.73-7.78-3.4l1.91-5.71Z"/><path d="M1850.57,1046v-6.32c-3.35,4.86-7.9,7.29-13.66,7.29-2.54,0-4.91-.49-7.11-1.46-2.2-.97-3.84-2.19-4.9-3.67-1.07-1.47-1.82-3.28-2.25-5.41-.3-1.43-.45-3.7-.45-6.81v-26.67h7.29v23.87c0,3.81,.15,6.38,.45,7.7,.46,1.92,1.43,3.42,2.92,4.52,1.49,1.09,3.32,1.64,5.51,1.64s4.24-.56,6.16-1.68c1.92-1.12,3.28-2.65,4.07-4.58,.8-1.93,1.2-4.74,1.2-8.41v-23.06h7.29v43.04h-6.53Z"/><path d="M1896.61,1040.69c-2.7,2.3-5.3,3.92-7.8,4.86-2.5,.95-5.18,1.42-8.04,1.42-4.73,0-8.36-1.16-10.9-3.46-2.54-2.31-3.81-5.26-3.81-8.86,0-2.11,.48-4.03,1.44-5.78,.96-1.74,2.21-3.14,3.77-4.19,1.55-1.05,3.3-1.85,5.25-2.39,1.43-.38,3.59-.74,6.48-1.09,5.89-.7,10.23-1.54,13.01-2.51,.03-1,.04-1.63,.04-1.91,0-2.97-.69-5.07-2.07-6.28-1.86-1.65-4.63-2.47-8.31-2.47-3.43,0-5.96,.6-7.6,1.8-1.63,1.2-2.84,3.33-3.63,6.38l-7.13-.97c.65-3.05,1.71-5.52,3.2-7.4,1.49-1.88,3.63-3.32,6.44-4.34,2.81-1.01,6.07-1.52,9.77-1.52s6.66,.43,8.96,1.3c2.29,.87,3.98,1.95,5.07,3.26,1.08,1.31,1.84,2.96,2.27,4.96,.24,1.24,.36,3.48,.36,6.73v9.73c0,6.78,.16,11.07,.47,12.87s.92,3.52,1.84,5.17h-7.62c-.76-1.51-1.24-3.28-1.46-5.31Zm-.61-16.29c-2.65,1.08-6.62,2-11.92,2.76-3,.43-5.12,.92-6.36,1.46-1.24,.54-2.2,1.33-2.88,2.37-.68,1.04-1.01,2.2-1.01,3.46,0,1.95,.74,3.57,2.21,4.86,1.47,1.3,3.63,1.95,6.46,1.95s5.31-.61,7.5-1.84c2.19-1.23,3.79-2.91,4.82-5.04,.78-1.65,1.18-4.08,1.18-7.29v-2.68Z"/><path d="M1914.68,1046v-43.04h6.57v6.12c3.16-4.73,7.73-7.09,13.7-7.09,2.59,0,4.98,.47,7.15,1.4,2.17,.93,3.8,2.15,4.88,3.67,1.08,1.51,1.84,3.31,2.27,5.39,.27,1.35,.41,3.71,.41,7.09v26.46h-7.29v-26.18c0-2.97-.28-5.19-.85-6.67-.57-1.47-1.57-2.65-3.02-3.53s-3.14-1.32-5.09-1.32c-3.11,0-5.79,.99-8.04,2.96-2.26,1.97-3.38,5.71-3.38,11.23v23.51h-7.29Z"/><path d="M1976.77,1039.47l1.05,6.44c-2.05,.43-3.89,.65-5.51,.65-2.65,0-4.7-.42-6.16-1.26-1.46-.84-2.49-1.94-3.08-3.3-.59-1.36-.89-4.23-.89-8.61v-24.76h-5.35v-5.67h5.35v-10.66l7.25-4.38v15.04h7.33v5.67h-7.33v25.17c0,2.08,.13,3.42,.38,4.01,.26,.59,.67,1.07,1.26,1.42,.58,.35,1.41,.53,2.49,.53,.81,0,1.88-.09,3.2-.28Z"/><path d="M1983.94,994.98v-8.39h7.29v8.39h-7.29Zm0,51.02v-43.04h7.29v43.04h-7.29Z"/><path d="M2018.27,1039.47l1.05,6.44c-2.05,.43-3.89,.65-5.51,.65-2.65,0-4.7-.42-6.16-1.26-1.46-.84-2.49-1.94-3.08-3.3-.59-1.36-.89-4.23-.89-8.61v-24.76h-5.35v-5.67h5.35v-10.66l7.25-4.38v15.04h7.33v5.67h-7.33v25.17c0,2.08,.13,3.42,.38,4.01,.26,.59,.67,1.07,1.26,1.42,.58,.35,1.41,.53,2.49,.53,.81,0,1.88-.09,3.2-.28Z"/><path d="M2025.08,1062.58l-.81-6.85c1.59,.43,2.99,.65,4.17,.65,1.62,0,2.92-.27,3.89-.81,.97-.54,1.77-1.3,2.39-2.27,.46-.73,1.2-2.54,2.23-5.43,.13-.41,.35-1,.65-1.78l-16.33-43.12h7.86l8.96,24.92c1.16,3.16,2.2,6.48,3.12,9.97,.84-3.35,1.84-6.62,3-9.81l9.2-25.09h7.29l-16.37,43.77c-1.76,4.73-3.12,7.98-4.09,9.77-1.3,2.41-2.78,4.17-4.46,5.29-1.68,1.12-3.67,1.68-6,1.68-1.41,0-2.97-.3-4.7-.89Z"/></g></g></g></svg>