<?xml version="1.0" encoding="UTF-8"?><svg id="Layer_1" xmlns="http://www.w3.org/2000/svg" xmlns:xlink="http://www.w3.org/1999/xlink" viewBox="0 0 4365.73 1050"><defs><clipPath id="clippath"><rect x="180.87" y="43.5" width="4004" height="963" style="fill:none;"/></clipPath></defs><rect width="4365.73" height="1050" style="fill:#fff;"/><g style="clip-path:url(#clippath);"><path d="M236.87,398.5H913.87l169,169-169,169H236.87l169-169-169-169Z" style="fill:#008575; fill-rule:evenodd; stroke:#fff; stroke-miterlimit:8; stroke-width:3.9px;"/><g style="isolation:isolate;"><path d="M498.39,600.5v-68.72h49.69v8.11h-40.59v21.05h38.02v8.06h-38.02v23.39h42.19v8.11h-51.28Z" style="fill:#fff;"/><path d="M574.99,600.5l-18.94-49.78h8.91l10.69,29.81c1.16,3.22,2.22,6.56,3.19,10.03,.75-2.62,1.8-5.78,3.14-9.47l11.06-30.38h8.67l-18.84,49.78h-7.88Z" style="fill:#fff;"/><path d="M643.24,584.47l8.72,1.08c-1.38,5.09-3.92,9.05-7.64,11.86-3.72,2.81-8.47,4.22-14.25,4.22-7.28,0-13.05-2.24-17.32-6.73s-6.4-10.77-6.4-18.87,2.16-14.88,6.47-19.5,9.91-6.94,16.78-6.94,12.09,2.27,16.31,6.8,6.33,10.91,6.33,19.12c0,.5-.02,1.25-.05,2.25h-37.12c.31,5.47,1.86,9.66,4.64,12.56,2.78,2.91,6.25,4.36,10.41,4.36,3.09,0,5.73-.81,7.92-2.44,2.19-1.62,3.92-4.22,5.2-7.78Zm-27.7-13.64h27.8c-.38-4.19-1.44-7.33-3.19-9.42-2.69-3.25-6.17-4.88-10.45-4.88-3.88,0-7.13,1.3-9.77,3.89-2.64,2.59-4.1,6.06-4.38,10.41Z" style="fill:#fff;"/><path d="M662.55,600.5v-49.78h7.59v7.08c3.66-5.47,8.94-8.2,15.84-8.2,3,0,5.76,.54,8.27,1.62,2.52,1.08,4.4,2.49,5.65,4.24,1.25,1.75,2.12,3.83,2.62,6.23,.31,1.56,.47,4.3,.47,8.2v30.61h-8.44v-30.28c0-3.44-.33-6.01-.98-7.71s-1.82-3.06-3.49-4.08c-1.67-1.02-3.63-1.52-5.88-1.52-3.59,0-6.7,1.14-9.3,3.42-2.61,2.28-3.91,6.61-3.91,12.98v27.19h-8.44Z" style="fill:#fff;"/><path d="M734.36,592.95l1.22,7.45c-2.38,.5-4.5,.75-6.38,.75-3.06,0-5.44-.48-7.12-1.45s-2.88-2.24-3.56-3.82c-.69-1.58-1.03-4.9-1.03-9.96v-28.64h-6.19v-6.56h6.19v-12.33l8.39-5.06v17.39h8.48v6.56h-8.48v29.11c0,2.41,.15,3.95,.45,4.64,.3,.69,.78,1.23,1.45,1.64,.67,.41,1.63,.61,2.88,.61,.94,0,2.17-.11,3.7-.33Z" style="fill:#fff;"/><path d="M775.24,600.5v-7.31c-3.88,5.62-9.14,8.44-15.8,8.44-2.94,0-5.68-.56-8.23-1.69-2.55-1.12-4.44-2.54-5.67-4.24-1.23-1.7-2.1-3.79-2.6-6.26-.34-1.66-.52-4.28-.52-7.88v-30.84h8.44v27.61c0,4.41,.17,7.38,.52,8.91,.53,2.22,1.66,3.96,3.38,5.23,1.72,1.27,3.84,1.9,6.38,1.9s4.91-.65,7.12-1.95c2.22-1.3,3.79-3.06,4.71-5.3,.92-2.23,1.38-5.48,1.38-9.73v-26.67h8.44v49.78h-7.55Z" style="fill:#fff;"/><path d="M828.49,594.36c-3.12,2.66-6.13,4.53-9.02,5.62-2.89,1.09-5.99,1.64-9.3,1.64-5.47,0-9.67-1.34-12.61-4.01-2.94-2.67-4.41-6.09-4.41-10.24,0-2.44,.55-4.66,1.66-6.68,1.11-2.02,2.56-3.63,4.36-4.85,1.8-1.22,3.82-2.14,6.07-2.77,1.66-.44,4.16-.86,7.5-1.27,6.81-.81,11.83-1.78,15.05-2.91,.03-1.16,.05-1.89,.05-2.2,0-3.44-.8-5.86-2.39-7.27-2.16-1.91-5.36-2.86-9.61-2.86-3.97,0-6.9,.7-8.79,2.09-1.89,1.39-3.29,3.85-4.2,7.38l-8.25-1.12c.75-3.53,1.98-6.38,3.7-8.55,1.72-2.17,4.2-3.84,7.45-5.02,3.25-1.17,7.02-1.76,11.3-1.76s7.7,.5,10.36,1.5c2.66,1,4.61,2.26,5.86,3.77,1.25,1.52,2.12,3.43,2.62,5.74,.28,1.44,.42,4.03,.42,7.78v11.25c0,7.84,.18,12.8,.54,14.88,.36,2.08,1.07,4.07,2.13,5.98h-8.81c-.88-1.75-1.44-3.8-1.69-6.14Zm-.7-18.84c-3.06,1.25-7.66,2.31-13.78,3.19-3.47,.5-5.92,1.06-7.36,1.69-1.44,.62-2.55,1.54-3.33,2.74-.78,1.2-1.17,2.54-1.17,4.01,0,2.25,.85,4.12,2.55,5.62,1.7,1.5,4.2,2.25,7.48,2.25s6.14-.71,8.67-2.13,4.39-3.37,5.58-5.84c.91-1.91,1.36-4.72,1.36-8.44v-3.09Z" style="fill:#fff;"/><path d="M849.21,600.5v-68.72h8.44v68.72h-8.44Z" style="fill:#fff;"/></g><path d="M997.87,398.5h678l169,169-169,169H997.87l169-169-169-169Z" style="fill:#008575; fill-rule:evenodd; stroke:#fff; stroke-miterlimit:8; stroke-width:3.9px;"/><g style="isolation:isolate;"><path d="M1265.57,519.41l9.09,2.3c-1.91,7.47-5.34,13.16-10.29,17.09-4.95,3.92-11.01,5.88-18.16,5.88s-13.43-1.51-18.07-4.52-8.17-7.38-10.59-13.1c-2.42-5.72-3.63-11.86-3.63-18.42,0-7.16,1.37-13.4,4.1-18.73,2.73-5.33,6.62-9.38,11.67-12.14,5.05-2.77,10.6-4.15,16.66-4.15,6.87,0,12.66,1.75,17.34,5.25s7.95,8.42,9.8,14.77l-8.95,2.11c-1.59-5-3.91-8.64-6.94-10.92-3.03-2.28-6.84-3.42-11.44-3.42-5.28,0-9.7,1.27-13.24,3.8-3.55,2.53-6.04,5.93-7.48,10.2-1.44,4.27-2.16,8.66-2.16,13.2,0,5.84,.85,10.95,2.55,15.3,1.7,4.36,4.35,7.62,7.95,9.77,3.59,2.16,7.48,3.23,11.67,3.23,5.09,0,9.41-1.47,12.94-4.41,3.53-2.94,5.92-7.3,7.17-13.08Z" style="fill:#fff;"/><path d="M1281.65,518.61c0-9.22,2.56-16.05,7.69-20.48,4.28-3.69,9.5-5.53,15.66-5.53,6.84,0,12.44,2.24,16.78,6.73,4.34,4.48,6.52,10.68,6.52,18.59,0,6.41-.96,11.45-2.88,15.12s-4.72,6.52-8.39,8.55c-3.67,2.03-7.68,3.05-12.02,3.05-6.97,0-12.6-2.23-16.9-6.7-4.3-4.47-6.45-10.91-6.45-19.31Zm8.67,0c0,6.38,1.39,11.15,4.17,14.32,2.78,3.17,6.28,4.76,10.5,4.76s7.67-1.59,10.45-4.78c2.78-3.19,4.17-8.05,4.17-14.58,0-6.16-1.4-10.82-4.2-13.99-2.8-3.17-6.27-4.76-10.43-4.76s-7.72,1.58-10.5,4.73c-2.78,3.16-4.17,7.92-4.17,14.3Z" style="fill:#fff;"/><path d="M1338.18,543.5v-49.78h7.59v7.08c3.66-5.47,8.94-8.2,15.84-8.2,3,0,5.76,.54,8.27,1.62,2.52,1.08,4.4,2.49,5.65,4.24,1.25,1.75,2.12,3.83,2.62,6.23,.31,1.56,.47,4.3,.47,8.2v30.61h-8.44v-30.28c0-3.44-.33-6.01-.98-7.71s-1.82-3.06-3.49-4.08c-1.67-1.02-3.63-1.52-5.88-1.52-3.59,0-6.7,1.14-9.3,3.42-2.61,2.28-3.91,6.61-3.91,12.98v27.19h-8.44Z" style="fill:#fff;"/><path d="M1388.2,528.64l8.34-1.31c.47,3.34,1.77,5.91,3.91,7.69,2.14,1.78,5.13,2.67,8.98,2.67s6.75-.79,8.62-2.37,2.81-3.43,2.81-5.55c0-1.91-.83-3.41-2.48-4.5-1.16-.75-4.03-1.7-8.62-2.86-6.19-1.56-10.48-2.91-12.87-4.05s-4.2-2.72-5.44-4.73c-1.23-2.02-1.85-4.24-1.85-6.68,0-2.22,.51-4.27,1.52-6.16,1.02-1.89,2.4-3.46,4.15-4.71,1.31-.97,3.1-1.79,5.37-2.46,2.27-.67,4.69-1.01,7.29-1.01,3.91,0,7.34,.56,10.29,1.69s5.13,2.65,6.54,4.57,2.37,4.49,2.91,7.71l-8.25,1.12c-.38-2.56-1.46-4.56-3.26-6-1.8-1.44-4.34-2.16-7.62-2.16-3.88,0-6.64,.64-8.3,1.92-1.66,1.28-2.48,2.78-2.48,4.5,0,1.09,.34,2.08,1.03,2.95,.69,.91,1.77,1.66,3.23,2.25,.84,.31,3.33,1.03,7.45,2.16,5.97,1.59,10.13,2.9,12.49,3.91,2.36,1.02,4.21,2.49,5.55,4.43,1.34,1.94,2.02,4.34,2.02,7.22s-.82,5.46-2.46,7.95-4.01,4.41-7.1,5.77-6.59,2.04-10.5,2.04c-6.47,0-11.4-1.34-14.79-4.03-3.39-2.69-5.55-6.67-6.49-11.95Z" style="fill:#fff;"/><path d="M1439.62,484.48v-9.7h8.44v9.7h-8.44Zm0,59.02v-49.78h8.44v49.78h-8.44Z" style="fill:#fff;"/><path d="M1457.53,528.64l8.34-1.31c.47,3.34,1.77,5.91,3.91,7.69,2.14,1.78,5.13,2.67,8.98,2.67s6.75-.79,8.62-2.37,2.81-3.43,2.81-5.55c0-1.91-.83-3.41-2.48-4.5-1.16-.75-4.03-1.7-8.62-2.86-6.19-1.56-10.48-2.91-12.87-4.05s-4.2-2.72-5.44-4.73c-1.23-2.02-1.85-4.24-1.85-6.68,0-2.22,.51-4.27,1.52-6.16,1.02-1.89,2.4-3.46,4.15-4.71,1.31-.97,3.1-1.79,5.37-2.46,2.27-.67,4.69-1.01,7.29-1.01,3.91,0,7.34,.56,10.29,1.69s5.13,2.65,6.54,4.57,2.37,4.49,2.91,7.71l-8.25,1.12c-.38-2.56-1.46-4.56-3.26-6-1.8-1.44-4.34-2.16-7.62-2.16-3.88,0-6.64,.64-8.3,1.92-1.66,1.28-2.48,2.78-2.48,4.5,0,1.09,.34,2.08,1.03,2.95,.69,.91,1.77,1.66,3.23,2.25,.84,.31,3.33,1.03,7.45,2.16,5.97,1.59,10.13,2.9,12.49,3.91,2.36,1.02,4.21,2.49,5.55,4.43,1.34,1.94,2.02,4.34,2.02,7.22s-.82,5.46-2.46,7.95-4.01,4.41-7.1,5.77-6.59,2.04-10.5,2.04c-6.47,0-11.4-1.34-14.79-4.03-3.39-2.69-5.55-6.67-6.49-11.95Z" style="fill:#fff;"/><path d="M1527.32,535.95l1.22,7.45c-2.38,.5-4.5,.75-6.38,.75-3.06,0-5.44-.48-7.12-1.45s-2.88-2.24-3.56-3.82c-.69-1.58-1.03-4.9-1.03-9.96v-28.64h-6.19v-6.56h6.19v-12.33l8.39-5.06v17.39h8.48v6.56h-8.48v29.11c0,2.41,.15,3.95,.45,4.64,.3,.69,.78,1.23,1.45,1.64,.67,.41,1.63,.61,2.88,.61,.94,0,2.17-.11,3.7-.33Z" style="fill:#fff;"/><path d="M1569.65,527.47l8.72,1.08c-1.38,5.09-3.92,9.05-7.64,11.86-3.72,2.81-8.47,4.22-14.25,4.22-7.28,0-13.05-2.24-17.32-6.73s-6.4-10.77-6.4-18.87,2.16-14.88,6.47-19.5,9.91-6.94,16.78-6.94,12.09,2.27,16.31,6.8,6.33,10.91,6.33,19.12c0,.5-.02,1.25-.05,2.25h-37.12c.31,5.47,1.86,9.66,4.64,12.56,2.78,2.91,6.25,4.36,10.41,4.36,3.09,0,5.73-.81,7.92-2.44,2.19-1.62,3.92-4.22,5.2-7.78Zm-27.7-13.64h27.8c-.38-4.19-1.44-7.33-3.19-9.42-2.69-3.25-6.17-4.88-10.45-4.88-3.88,0-7.13,1.3-9.77,3.89-2.64,2.59-4.1,6.06-4.38,10.41Z" style="fill:#fff;"/><path d="M1588.96,543.5v-49.78h7.59v7.08c3.66-5.47,8.94-8.2,15.84-8.2,3,0,5.76,.54,8.27,1.62,2.52,1.08,4.4,2.49,5.65,4.24,1.25,1.75,2.12,3.83,2.62,6.23,.31,1.56,.47,4.3,.47,8.2v30.61h-8.44v-30.28c0-3.44-.33-6.01-.98-7.71s-1.82-3.06-3.49-4.08c-1.67-1.02-3.63-1.52-5.88-1.52-3.59,0-6.7,1.14-9.3,3.42-2.61,2.28-3.91,6.61-3.91,12.98v27.19h-8.44Z" style="fill:#fff;"/><path d="M1660.78,535.95l1.22,7.45c-2.38,.5-4.5,.75-6.38,.75-3.06,0-5.44-.48-7.12-1.45s-2.88-2.24-3.56-3.82c-.69-1.58-1.03-4.9-1.03-9.96v-28.64h-6.19v-6.56h6.19v-12.33l8.39-5.06v17.39h8.48v6.56h-8.48v29.11c0,2.41,.15,3.95,.45,4.64,.3,.69,.78,1.23,1.45,1.64,.67,.41,1.63,.61,2.88,.61,.94,0,2.17-.11,3.7-.33Z" style="fill:#fff;"/></g><g style="isolation:isolate;"><path d="M1321.87,658.5v-68.72h25.92c4.56,0,8.05,.22,10.45,.66,3.38,.56,6.2,1.63,8.48,3.21s4.12,3.79,5.51,6.63,2.09,5.97,2.09,9.38c0,5.84-1.86,10.79-5.58,14.84s-10.44,6.07-20.16,6.07h-17.62v27.94h-9.09Zm9.09-36.05h17.77c5.88,0,10.05-1.09,12.52-3.28s3.7-5.27,3.7-9.23c0-2.88-.73-5.34-2.18-7.38s-3.37-3.4-5.74-4.05c-1.53-.41-4.36-.61-8.48-.61h-17.58v24.56Z" style="fill:#fff;"/><path d="M1384.73,658.5v-49.78h7.59v7.55c1.94-3.53,3.73-5.86,5.37-6.98s3.45-1.69,5.41-1.69c2.84,0,5.73,.91,8.67,2.72l-2.91,7.83c-2.06-1.22-4.12-1.83-6.19-1.83-1.84,0-3.5,.55-4.97,1.66s-2.52,2.65-3.14,4.62c-.94,3-1.41,6.28-1.41,9.84v26.06h-8.44Z" style="fill:#fff;"/><path d="M1450.87,642.47l8.72,1.08c-1.38,5.09-3.92,9.05-7.64,11.86s-8.47,4.22-14.25,4.22c-7.28,0-13.05-2.24-17.32-6.73s-6.4-10.77-6.4-18.87,2.16-14.88,6.47-19.5,9.91-6.94,16.78-6.94,12.09,2.27,16.31,6.8,6.33,10.91,6.33,19.12c0,.5-.02,1.25-.05,2.25h-37.12c.31,5.47,1.86,9.66,4.64,12.56s6.25,4.36,10.41,4.36c3.09,0,5.73-.81,7.92-2.44s3.92-4.22,5.2-7.78Zm-27.7-13.64h27.8c-.38-4.19-1.44-7.33-3.19-9.42-2.69-3.25-6.17-4.88-10.45-4.88-3.88,0-7.13,1.3-9.77,3.89s-4.1,6.06-4.38,10.41Z" style="fill:#fff;"/><path d="M1472.2,658.5v-43.22h-7.45v-6.56h7.45v-5.3c0-3.34,.3-5.83,.89-7.45,.81-2.19,2.24-3.96,4.29-5.32s4.91-2.04,8.6-2.04c2.38,0,5,.28,7.88,.84l-1.27,7.36c-1.75-.31-3.41-.47-4.97-.47-2.56,0-4.38,.55-5.44,1.64s-1.59,3.14-1.59,6.14v4.59h9.7v6.56h-9.7v43.22h-8.39Z" style="fill:#fff;"/><path d="M1496.9,599.48v-9.7h8.44v9.7h-8.44Zm0,59.02v-49.78h8.44v49.78h-8.44Z" style="fill:#fff;"/><path d="M1512.55,658.5l18.19-25.88-16.83-23.91h10.55l7.64,11.67c1.44,2.22,2.59,4.08,3.47,5.58,1.38-2.06,2.64-3.89,3.8-5.48l8.39-11.77h10.08l-17.2,23.44,18.52,26.34h-10.36l-10.22-15.47-2.72-4.17-13.08,19.64h-10.22Z" style="fill:#fff;"/></g><path d="M1759.87,398.5h677l169,169-169,169h-677l169-169-169-169Z" style="fill:#008575; fill-rule:evenodd; stroke:#fff; stroke-miterlimit:8; stroke-width:3.9px;"/><g style="isolation:isolate;"><path d="M2038.63,578.42l8.58-.75c.41,3.44,1.35,6.26,2.84,8.46,1.48,2.2,3.79,3.98,6.91,5.34,3.12,1.36,6.64,2.04,10.55,2.04,3.47,0,6.53-.52,9.19-1.55,2.66-1.03,4.63-2.45,5.93-4.24,1.3-1.8,1.95-3.76,1.95-5.88s-.63-4.04-1.88-5.65c-1.25-1.61-3.31-2.96-6.19-4.05-1.84-.72-5.92-1.84-12.23-3.35-6.31-1.52-10.73-2.95-13.27-4.29-3.28-1.72-5.73-3.85-7.34-6.4-1.61-2.55-2.41-5.4-2.41-8.55,0-3.47,.98-6.71,2.95-9.73s4.84-5.3,8.62-6.87c3.78-1.56,7.98-2.34,12.61-2.34,5.09,0,9.59,.82,13.48,2.46s6.88,4.05,8.98,7.24c2.09,3.19,3.22,6.8,3.38,10.83l-8.72,.66c-.47-4.34-2.06-7.62-4.76-9.84-2.7-2.22-6.7-3.33-11.98-3.33s-9.51,1.01-12.02,3.02c-2.52,2.02-3.77,4.45-3.77,7.29,0,2.47,.89,4.5,2.67,6.09,1.75,1.59,6.32,3.23,13.71,4.9,7.39,1.67,12.46,3.13,15.21,4.38,4,1.84,6.95,4.18,8.86,7.01,1.91,2.83,2.86,6.09,2.86,9.77s-1.05,7.1-3.14,10.34c-2.09,3.23-5.1,5.75-9.02,7.55-3.92,1.8-8.34,2.7-13.24,2.7-6.22,0-11.43-.91-15.63-2.72-4.2-1.81-7.5-4.54-9.89-8.18s-3.65-7.76-3.77-12.35Z" style="fill:#fff;"/><path d="M2138.75,584.47l8.72,1.08c-1.38,5.09-3.92,9.05-7.64,11.86-3.72,2.81-8.47,4.22-14.25,4.22-7.28,0-13.05-2.24-17.32-6.73s-6.4-10.77-6.4-18.87,2.16-14.88,6.47-19.5,9.91-6.94,16.78-6.94,12.09,2.27,16.31,6.8,6.33,10.91,6.33,19.12c0,.5-.02,1.25-.05,2.25h-37.12c.31,5.47,1.86,9.66,4.64,12.56,2.78,2.91,6.25,4.36,10.41,4.36,3.09,0,5.73-.81,7.92-2.44,2.19-1.62,3.92-4.22,5.2-7.78Zm-27.7-13.64h27.8c-.38-4.19-1.44-7.33-3.19-9.42-2.69-3.25-6.17-4.88-10.45-4.88-3.88,0-7.13,1.3-9.77,3.89-2.64,2.59-4.1,6.06-4.38,10.41Z" style="fill:#fff;"/><path d="M2154.69,585.64l8.34-1.31c.47,3.34,1.77,5.91,3.91,7.69,2.14,1.78,5.13,2.67,8.98,2.67s6.75-.79,8.62-2.37,2.81-3.43,2.81-5.55c0-1.91-.83-3.41-2.48-4.5-1.16-.75-4.03-1.7-8.62-2.86-6.19-1.56-10.48-2.91-12.87-4.05s-4.2-2.72-5.44-4.73c-1.24-2.02-1.85-4.24-1.85-6.68,0-2.22,.51-4.27,1.52-6.16,1.01-1.89,2.4-3.46,4.15-4.71,1.31-.97,3.1-1.79,5.37-2.46,2.27-.67,4.69-1.01,7.29-1.01,3.91,0,7.34,.56,10.29,1.69s5.13,2.65,6.54,4.57,2.37,4.49,2.91,7.71l-8.25,1.12c-.38-2.56-1.46-4.56-3.26-6-1.8-1.44-4.34-2.16-7.62-2.16-3.88,0-6.64,.64-8.3,1.92-1.66,1.28-2.48,2.78-2.48,4.5,0,1.09,.34,2.08,1.03,2.95,.69,.91,1.76,1.66,3.23,2.25,.84,.31,3.33,1.03,7.45,2.16,5.97,1.59,10.13,2.9,12.49,3.91,2.36,1.02,4.21,2.49,5.55,4.43,1.34,1.94,2.02,4.34,2.02,7.22s-.82,5.46-2.46,7.95-4.01,4.41-7.1,5.77-6.59,2.04-10.5,2.04c-6.47,0-11.4-1.34-14.79-4.03-3.39-2.69-5.55-6.67-6.49-11.95Z" style="fill:#fff;"/><path d="M2202.69,585.64l8.34-1.31c.47,3.34,1.77,5.91,3.91,7.69,2.14,1.78,5.13,2.67,8.98,2.67s6.75-.79,8.62-2.37,2.81-3.43,2.81-5.55c0-1.91-.83-3.41-2.48-4.5-1.16-.75-4.03-1.7-8.62-2.86-6.19-1.56-10.48-2.91-12.87-4.05s-4.2-2.72-5.44-4.73c-1.24-2.02-1.85-4.24-1.85-6.68,0-2.22,.51-4.27,1.52-6.16,1.01-1.89,2.4-3.46,4.15-4.71,1.31-.97,3.1-1.79,5.37-2.46,2.27-.67,4.69-1.01,7.29-1.01,3.91,0,7.34,.56,10.29,1.69s5.13,2.65,6.54,4.57,2.37,4.49,2.91,7.71l-8.25,1.12c-.38-2.56-1.46-4.56-3.26-6-1.8-1.44-4.34-2.16-7.62-2.16-3.88,0-6.64,.64-8.3,1.92-1.66,1.28-2.48,2.78-2.48,4.5,0,1.09,.34,2.08,1.03,2.95,.69,.91,1.76,1.66,3.23,2.25,.84,.31,3.33,1.03,7.45,2.16,5.97,1.59,10.13,2.9,12.49,3.91,2.36,1.02,4.21,2.49,5.55,4.43,1.34,1.94,2.02,4.34,2.02,7.22s-.82,5.46-2.46,7.95-4.01,4.41-7.1,5.77-6.59,2.04-10.5,2.04c-6.47,0-11.4-1.34-14.79-4.03-3.39-2.69-5.55-6.67-6.49-11.95Z" style="fill:#fff;"/><path d="M2254.11,541.48v-9.7h8.44v9.7h-8.44Zm0,59.02v-49.78h8.44v49.78h-8.44Z" style="fill:#fff;"/><path d="M2272.25,575.61c0-9.22,2.56-16.05,7.69-20.48,4.28-3.69,9.5-5.53,15.66-5.53,6.84,0,12.44,2.24,16.78,6.73,4.34,4.48,6.52,10.68,6.52,18.59,0,6.41-.96,11.45-2.88,15.12s-4.72,6.52-8.39,8.55c-3.67,2.03-7.68,3.05-12.02,3.05-6.97,0-12.6-2.23-16.9-6.7-4.3-4.47-6.45-10.91-6.45-19.31Zm8.67,0c0,6.38,1.39,11.15,4.17,14.32,2.78,3.17,6.28,4.76,10.5,4.76s7.67-1.59,10.45-4.78c2.78-3.19,4.17-8.05,4.17-14.58,0-6.16-1.4-10.82-4.2-13.99-2.8-3.17-6.27-4.76-10.43-4.76s-7.72,1.58-10.5,4.73c-2.78,3.16-4.17,7.92-4.17,14.3Z" style="fill:#fff;"/><path d="M2328.78,600.5v-49.78h7.59v7.08c3.66-5.47,8.94-8.2,15.84-8.2,3,0,5.76,.54,8.27,1.62,2.51,1.08,4.4,2.49,5.65,4.24,1.25,1.75,2.12,3.83,2.62,6.23,.31,1.56,.47,4.3,.47,8.2v30.61h-8.44v-30.28c0-3.44-.33-6.01-.98-7.71s-1.82-3.06-3.49-4.08c-1.67-1.02-3.63-1.52-5.88-1.52-3.59,0-6.7,1.14-9.3,3.42-2.61,2.28-3.91,6.61-3.91,12.98v27.19h-8.44Z" style="fill:#fff;"/></g><path d="M2520.87,398.5h678l169,169-169,169h-678l169-169-169-169Z" style="fill:#008575; fill-rule:evenodd; stroke:#fff; stroke-miterlimit:8; stroke-width:3.9px;"/><g style="isolation:isolate;"><path d="M2769.39,543.5v-68.72h25.78c5.25,0,9.46,.7,12.63,2.09,3.17,1.39,5.66,3.53,7.45,6.42,1.8,2.89,2.7,5.91,2.7,9.07,0,2.94-.8,5.7-2.39,8.3s-4,4.69-7.22,6.28c4.16,1.22,7.35,3.3,9.59,6.23,2.23,2.94,3.35,6.41,3.35,10.41,0,3.22-.68,6.21-2.04,8.98s-3.04,4.9-5.04,6.4c-2,1.5-4.51,2.63-7.52,3.4-3.02,.77-6.71,1.15-11.09,1.15h-26.2Zm9.09-39.84h14.86c4.03,0,6.92-.27,8.67-.8,2.31-.69,4.05-1.83,5.23-3.42s1.76-3.59,1.76-6c0-2.28-.55-4.29-1.64-6.02-1.09-1.73-2.66-2.92-4.69-3.56-2.03-.64-5.52-.96-10.45-.96h-13.73v20.77Zm0,31.73h17.11c2.94,0,5-.11,6.19-.33,2.09-.38,3.84-1,5.25-1.88s2.56-2.15,3.47-3.82c.91-1.67,1.36-3.6,1.36-5.79,0-2.56-.66-4.79-1.97-6.68s-3.13-3.22-5.46-3.98c-2.33-.77-5.68-1.15-10.05-1.15h-15.89v23.62Z" style="fill:#fff;"/><path d="M2829.58,518.61c0-9.22,2.56-16.05,7.69-20.48,4.28-3.69,9.5-5.53,15.66-5.53,6.84,0,12.44,2.24,16.78,6.73,4.34,4.48,6.52,10.68,6.52,18.59,0,6.41-.96,11.45-2.88,15.12s-4.72,6.52-8.39,8.55c-3.67,2.03-7.68,3.05-12.02,3.05-6.97,0-12.6-2.23-16.9-6.7-4.3-4.47-6.45-10.91-6.45-19.31Zm8.67,0c0,6.38,1.39,11.15,4.17,14.32,2.78,3.17,6.28,4.76,10.5,4.76s7.67-1.59,10.45-4.78c2.78-3.19,4.17-8.05,4.17-14.58,0-6.16-1.4-10.82-4.2-13.99-2.8-3.17-6.27-4.76-10.43-4.76s-7.72,1.58-10.5,4.73c-2.78,3.16-4.17,7.92-4.17,14.3Z" style="fill:#fff;"/><path d="M2918.73,543.5v-7.31c-3.88,5.62-9.14,8.44-15.8,8.44-2.94,0-5.68-.56-8.23-1.69-2.55-1.12-4.44-2.54-5.67-4.24-1.24-1.7-2.1-3.79-2.6-6.26-.34-1.66-.52-4.28-.52-7.88v-30.84h8.44v27.61c0,4.41,.17,7.38,.52,8.91,.53,2.22,1.66,3.96,3.38,5.23,1.72,1.27,3.84,1.9,6.38,1.9s4.91-.65,7.12-1.95c2.22-1.3,3.79-3.06,4.71-5.3,.92-2.23,1.38-5.48,1.38-9.73v-26.67h8.44v49.78h-7.55Z" style="fill:#fff;"/><path d="M2939.5,543.5v-49.78h7.59v7.08c3.66-5.47,8.94-8.2,15.84-8.2,3,0,5.76,.54,8.27,1.62,2.51,1.08,4.4,2.49,5.65,4.24,1.25,1.75,2.12,3.83,2.62,6.23,.31,1.56,.47,4.3,.47,8.2v30.61h-8.44v-30.28c0-3.44-.33-6.01-.98-7.71s-1.82-3.06-3.49-4.08c-1.67-1.02-3.63-1.52-5.88-1.52-3.59,0-6.7,1.14-9.3,3.42-2.61,2.28-3.91,6.61-3.91,12.98v27.19h-8.44Z" style="fill:#fff;"/><path d="M3025.18,543.5v-6.28c-3.16,4.94-7.8,7.41-13.92,7.41-3.97,0-7.62-1.09-10.95-3.28s-5.91-5.24-7.73-9.16-2.74-8.43-2.74-13.52,.83-9.48,2.48-13.52c1.66-4.05,4.14-7.15,7.45-9.3,3.31-2.16,7.01-3.23,11.11-3.23,3,0,5.67,.63,8.02,1.9s4.25,2.91,5.72,4.95v-24.66h8.39v68.72h-7.83Zm-26.67-24.84c0,6.38,1.34,11.14,4.03,14.3,2.69,3.16,5.86,4.73,9.52,4.73s6.82-1.51,9.4-4.52,3.87-7.62,3.87-13.8c0-6.81-1.31-11.81-3.94-15s-5.86-4.78-9.7-4.78-6.88,1.53-9.4,4.59c-2.52,3.06-3.77,7.89-3.77,14.48Z" style="fill:#fff;"/><path d="M3080.36,527.47l8.72,1.08c-1.38,5.09-3.92,9.05-7.64,11.86-3.72,2.81-8.47,4.22-14.25,4.22-7.28,0-13.05-2.24-17.32-6.73s-6.4-10.77-6.4-18.87,2.16-14.88,6.47-19.5,9.91-6.94,16.78-6.94,12.09,2.27,16.31,6.8,6.33,10.91,6.33,19.12c0,.5-.02,1.25-.05,2.25h-37.12c.31,5.47,1.86,9.66,4.64,12.56,2.78,2.91,6.25,4.36,10.41,4.36,3.09,0,5.73-.81,7.92-2.44,2.19-1.62,3.92-4.22,5.2-7.78Zm-27.7-13.64h27.8c-.38-4.19-1.44-7.33-3.19-9.42-2.69-3.25-6.17-4.88-10.45-4.88-3.88,0-7.13,1.3-9.77,3.89-2.64,2.59-4.1,6.06-4.38,10.41Z" style="fill:#fff;"/><path d="M3131.97,543.5v-6.28c-3.16,4.94-7.8,7.41-13.92,7.41-3.97,0-7.62-1.09-10.95-3.28s-5.91-5.24-7.73-9.16-2.74-8.43-2.74-13.52,.83-9.48,2.48-13.52c1.66-4.05,4.14-7.15,7.45-9.3,3.31-2.16,7.01-3.23,11.11-3.23,3,0,5.67,.63,8.02,1.9s4.25,2.91,5.72,4.95v-24.66h8.39v68.72h-7.83Zm-26.67-24.84c0,6.38,1.34,11.14,4.03,14.3,2.69,3.16,5.86,4.73,9.52,4.73s6.82-1.51,9.4-4.52,3.87-7.62,3.87-13.8c0-6.81-1.31-11.81-3.94-15s-5.86-4.78-9.7-4.78-6.88,1.53-9.4,4.59c-2.52,3.06-3.77,7.89-3.77,14.48Z" style="fill:#fff;"/></g><g style="isolation:isolate;"><path d="M2762.36,636.42l8.58-.75c.41,3.44,1.35,6.26,2.84,8.46s3.79,3.98,6.91,5.34,6.64,2.04,10.55,2.04c3.47,0,6.53-.52,9.19-1.55s4.63-2.45,5.93-4.24,1.95-3.76,1.95-5.88-.62-4.04-1.88-5.65-3.31-2.96-6.19-4.05c-1.84-.72-5.92-1.84-12.23-3.35s-10.73-2.95-13.27-4.29c-3.28-1.72-5.73-3.85-7.34-6.4s-2.41-5.4-2.41-8.55c0-3.47,.98-6.71,2.95-9.73s4.84-5.3,8.62-6.87,7.98-2.34,12.61-2.34c5.09,0,9.59,.82,13.48,2.46s6.88,4.05,8.98,7.24,3.22,6.8,3.38,10.83l-8.72,.66c-.47-4.34-2.05-7.62-4.76-9.84s-6.7-3.33-11.98-3.33-9.51,1.01-12.02,3.02-3.77,4.45-3.77,7.29c0,2.47,.89,4.5,2.67,6.09,1.75,1.59,6.32,3.23,13.71,4.9s12.46,3.13,15.21,4.38c4,1.84,6.95,4.18,8.86,7.01s2.86,6.09,2.86,9.77-1.05,7.1-3.14,10.34-5.1,5.75-9.02,7.55-8.34,2.7-13.24,2.7c-6.22,0-11.43-.91-15.63-2.72s-7.5-4.54-9.89-8.18-3.65-7.76-3.77-12.35Z" style="fill:#fff;"/><path d="M2846.83,650.95l1.22,7.45c-2.38,.5-4.5,.75-6.38,.75-3.06,0-5.44-.48-7.12-1.45s-2.88-2.24-3.56-3.82-1.03-4.9-1.03-9.96v-28.64h-6.19v-6.56h6.19v-12.33l8.39-5.06v17.39h8.48v6.56h-8.48v29.11c0,2.41,.15,3.95,.45,4.64s.78,1.23,1.45,1.64,1.63,.61,2.88,.61c.94,0,2.17-.11,3.7-.33Z" style="fill:#fff;"/><path d="M2887.56,652.36c-3.12,2.66-6.13,4.53-9.02,5.62s-5.99,1.64-9.3,1.64c-5.47,0-9.67-1.34-12.61-4.01s-4.41-6.09-4.41-10.24c0-2.44,.55-4.66,1.66-6.68s2.56-3.63,4.36-4.85,3.82-2.14,6.07-2.77c1.66-.44,4.16-.86,7.5-1.27,6.81-.81,11.83-1.78,15.05-2.91,.03-1.16,.05-1.89,.05-2.2,0-3.44-.8-5.86-2.39-7.27-2.16-1.91-5.36-2.86-9.61-2.86-3.97,0-6.9,.7-8.79,2.09s-3.29,3.85-4.2,7.38l-8.25-1.12c.75-3.53,1.98-6.38,3.7-8.55s4.2-3.84,7.45-5.02,7.02-1.76,11.3-1.76,7.7,.5,10.36,1.5,4.61,2.26,5.86,3.77,2.12,3.43,2.62,5.74c.28,1.44,.42,4.03,.42,7.78v11.25c0,7.84,.18,12.8,.54,14.88s1.07,4.07,2.13,5.98h-8.81c-.88-1.75-1.44-3.8-1.69-6.14Zm-.7-18.84c-3.06,1.25-7.66,2.31-13.78,3.19-3.47,.5-5.92,1.06-7.36,1.69s-2.55,1.54-3.33,2.74-1.17,2.54-1.17,4.01c0,2.25,.85,4.12,2.55,5.62s4.2,2.25,7.48,2.25,6.14-.71,8.67-2.13,4.39-3.37,5.58-5.84c.91-1.91,1.36-4.72,1.36-8.44v-3.09Z" style="fill:#fff;"/><path d="M2908.28,658.5v-68.72h8.44v68.72h-8.44Z" style="fill:#fff;"/><path d="M2963.88,642.47l8.72,1.08c-1.38,5.09-3.92,9.05-7.64,11.86s-8.47,4.22-14.25,4.22c-7.28,0-13.05-2.24-17.32-6.73s-6.4-10.77-6.4-18.87,2.16-14.88,6.47-19.5,9.91-6.94,16.78-6.94,12.09,2.27,16.31,6.8,6.33,10.91,6.33,19.12c0,.5-.02,1.25-.05,2.25h-37.12c.31,5.47,1.86,9.66,4.64,12.56s6.25,4.36,10.41,4.36c3.09,0,5.73-.81,7.92-2.44s3.92-4.22,5.2-7.78Zm-27.7-13.64h27.8c-.38-4.19-1.44-7.33-3.19-9.42-2.69-3.25-6.17-4.88-10.45-4.88-3.88,0-7.13,1.3-9.77,3.89s-4.1,6.06-4.38,10.41Z" style="fill:#fff;"/><path d="M2983.19,658.5v-49.78h7.59v7.08c3.66-5.47,8.94-8.2,15.84-8.2,3,0,5.76,.54,8.27,1.62s4.4,2.49,5.65,4.24,2.12,3.83,2.62,6.23c.31,1.56,.47,4.3,.47,8.2v30.61h-8.44v-30.28c0-3.44-.33-6.01-.98-7.71s-1.82-3.06-3.49-4.08-3.63-1.52-5.88-1.52c-3.59,0-6.7,1.14-9.3,3.42s-3.91,6.61-3.91,12.98v27.19h-8.44Z" style="fill:#fff;"/><path d="M3070.66,642.47l8.72,1.08c-1.38,5.09-3.92,9.05-7.64,11.86s-8.47,4.22-14.25,4.22c-7.28,0-13.05-2.24-17.32-6.73s-6.4-10.77-6.4-18.87,2.16-14.88,6.47-19.5,9.91-6.94,16.78-6.94,12.09,2.27,16.31,6.8,6.33,10.91,6.33,19.12c0,.5-.02,1.25-.05,2.25h-37.12c.31,5.47,1.86,9.66,4.64,12.56s6.25,4.36,10.41,4.36c3.09,0,5.73-.81,7.92-2.44s3.92-4.22,5.2-7.78Zm-27.7-13.64h27.8c-.38-4.19-1.44-7.33-3.19-9.42-2.69-3.25-6.17-4.88-10.45-4.88-3.88,0-7.13,1.3-9.77,3.89s-4.1,6.06-4.38,10.41Z" style="fill:#fff;"/><path d="M3086.59,643.64l8.34-1.31c.47,3.34,1.77,5.91,3.91,7.69s5.13,2.67,8.98,2.67,6.75-.79,8.62-2.37,2.81-3.43,2.81-5.55c0-1.91-.83-3.41-2.48-4.5-1.16-.75-4.03-1.7-8.62-2.86-6.19-1.56-10.48-2.91-12.87-4.05s-4.2-2.72-5.44-4.73-1.85-4.24-1.85-6.68c0-2.22,.51-4.27,1.52-6.16s2.4-3.46,4.15-4.71c1.31-.97,3.1-1.79,5.37-2.46s4.7-1.01,7.29-1.01c3.91,0,7.34,.56,10.29,1.69s5.13,2.65,6.54,4.57,2.38,4.49,2.91,7.71l-8.25,1.12c-.38-2.56-1.46-4.56-3.26-6s-4.34-2.16-7.62-2.16c-3.88,0-6.64,.64-8.3,1.92s-2.48,2.78-2.48,4.5c0,1.09,.34,2.08,1.03,2.95,.69,.91,1.77,1.66,3.23,2.25,.84,.31,3.33,1.03,7.45,2.16,5.97,1.59,10.13,2.9,12.49,3.91s4.21,2.49,5.55,4.43,2.02,4.34,2.02,7.22-.82,5.46-2.46,7.95-4.01,4.41-7.1,5.77-6.59,2.04-10.5,2.04c-6.47,0-11.4-1.34-14.79-4.03s-5.55-6.67-6.49-11.95Z" style="fill:#fff;"/><path d="M3134.59,643.64l8.34-1.31c.47,3.34,1.77,5.91,3.91,7.69s5.13,2.67,8.98,2.67,6.75-.79,8.62-2.37,2.81-3.43,2.81-5.55c0-1.91-.83-3.41-2.48-4.5-1.16-.75-4.03-1.7-8.62-2.86-6.19-1.56-10.48-2.91-12.87-4.05s-4.2-2.72-5.44-4.73-1.85-4.24-1.85-6.68c0-2.22,.51-4.27,1.52-6.16s2.4-3.46,4.15-4.71c1.31-.97,3.1-1.79,5.37-2.46s4.7-1.01,7.29-1.01c3.91,0,7.34,.56,10.29,1.69s5.13,2.65,6.54,4.57,2.38,4.49,2.91,7.71l-8.25,1.12c-.38-2.56-1.46-4.56-3.26-6s-4.34-2.16-7.62-2.16c-3.88,0-6.64,.64-8.3,1.92s-2.48,2.78-2.48,4.5c0,1.09,.34,2.08,1.03,2.95,.69,.91,1.77,1.66,3.23,2.25,.84,.31,3.33,1.03,7.45,2.16,5.97,1.59,10.13,2.9,12.49,3.91s4.21,2.49,5.55,4.43,2.02,4.34,2.02,7.22-.82,5.46-2.46,7.95-4.01,4.41-7.1,5.77-6.59,2.04-10.5,2.04c-6.47,0-11.4-1.34-14.79-4.03s-5.55-6.67-6.49-11.95Z" style="fill:#fff;"/></g><path d="M3282.87,398.5h677l169,169-169,169h-677l169-169-169-169Z" style="fill:#008575; fill-rule:evenodd; stroke:#fff; stroke-miterlimit:8; stroke-width:3.9px;"/><g style="isolation:isolate;"><path d="M3580.07,578.42l8.58-.75c.41,3.44,1.35,6.26,2.84,8.46s3.79,3.98,6.91,5.34,6.64,2.04,10.55,2.04c3.47,0,6.53-.52,9.19-1.55s4.63-2.45,5.93-4.24,1.95-3.76,1.95-5.88-.62-4.04-1.88-5.65-3.31-2.96-6.19-4.05c-1.84-.72-5.92-1.84-12.23-3.35s-10.73-2.95-13.27-4.29c-3.28-1.72-5.73-3.85-7.34-6.4s-2.41-5.4-2.41-8.55c0-3.47,.98-6.71,2.95-9.73s4.84-5.3,8.62-6.87,7.98-2.34,12.61-2.34c5.09,0,9.59,.82,13.48,2.46s6.88,4.05,8.98,7.24,3.22,6.8,3.38,10.83l-8.72,.66c-.47-4.34-2.05-7.62-4.76-9.84s-6.7-3.33-11.98-3.33-9.51,1.01-12.02,3.02-3.77,4.45-3.77,7.29c0,2.47,.89,4.5,2.67,6.09,1.75,1.59,6.32,3.23,13.71,4.9s12.46,3.13,15.21,4.38c4,1.84,6.95,4.18,8.86,7.01s2.86,6.09,2.86,9.77-1.05,7.1-3.14,10.34-5.1,5.75-9.02,7.55-8.34,2.7-13.24,2.7c-6.22,0-11.43-.91-15.63-2.72s-7.5-4.54-9.89-8.18-3.65-7.76-3.77-12.35Z" style="fill:#fff;"/><path d="M3664.54,592.95l1.22,7.45c-2.38,.5-4.5,.75-6.38,.75-3.06,0-5.44-.48-7.12-1.45s-2.88-2.24-3.56-3.82-1.03-4.9-1.03-9.96v-28.64h-6.19v-6.56h6.19v-12.33l8.39-5.06v17.39h8.48v6.56h-8.48v29.11c0,2.41,.15,3.95,.45,4.64s.78,1.23,1.45,1.64,1.63,.61,2.88,.61c.94,0,2.17-.11,3.7-.33Z" style="fill:#fff;"/><path d="M3672.69,600.5v-49.78h7.59v7.55c1.94-3.53,3.73-5.86,5.37-6.98s3.45-1.69,5.41-1.69c2.84,0,5.73,.91,8.67,2.72l-2.91,7.83c-2.06-1.22-4.12-1.83-6.19-1.83-1.84,0-3.5,.55-4.97,1.66s-2.52,2.65-3.14,4.62c-.94,3-1.41,6.28-1.41,9.84v26.06h-8.44Z" style="fill:#fff;"/><path d="M3701.62,575.61c0-9.22,2.56-16.05,7.69-20.48,4.28-3.69,9.5-5.53,15.66-5.53,6.84,0,12.44,2.24,16.78,6.73s6.52,10.68,6.52,18.59c0,6.41-.96,11.45-2.88,15.12s-4.72,6.52-8.39,8.55-7.68,3.05-12.02,3.05c-6.97,0-12.6-2.23-16.9-6.7s-6.45-10.91-6.45-19.31Zm8.67,0c0,6.38,1.39,11.15,4.17,14.32s6.28,4.76,10.5,4.76,7.67-1.59,10.45-4.78,4.17-8.05,4.17-14.58c0-6.16-1.4-10.82-4.2-13.99s-6.27-4.76-10.43-4.76-7.72,1.58-10.5,4.73-4.17,7.92-4.17,14.3Z" style="fill:#fff;"/><path d="M3758.15,600.5v-49.78h7.59v7.08c3.66-5.47,8.94-8.2,15.84-8.2,3,0,5.76,.54,8.27,1.62s4.4,2.49,5.65,4.24,2.12,3.83,2.62,6.23c.31,1.56,.47,4.3,.47,8.2v30.61h-8.44v-30.28c0-3.44-.33-6.01-.98-7.71s-1.82-3.06-3.49-4.08-3.63-1.52-5.88-1.52c-3.59,0-6.7,1.14-9.3,3.42s-3.91,6.61-3.91,12.98v27.19h-8.44Z" style="fill:#fff;"/><path d="M3809.99,604.62l8.2,1.22c.34,2.53,1.3,4.38,2.86,5.53,2.09,1.56,4.95,2.34,8.58,2.34,3.91,0,6.92-.78,9.05-2.34s3.56-3.75,4.31-6.56c.44-1.72,.64-5.33,.61-10.83-3.69,4.34-8.28,6.52-13.78,6.52-6.84,0-12.14-2.47-15.89-7.41s-5.62-10.86-5.62-17.77c0-4.75,.86-9.13,2.58-13.15s4.21-7.12,7.48-9.3,7.1-3.28,11.51-3.28c5.88,0,10.72,2.38,14.53,7.12v-6h7.78v43.03c0,7.75-.79,13.24-2.37,16.48s-4.08,5.79-7.5,7.66-7.63,2.81-12.63,2.81c-5.94,0-10.73-1.34-14.39-4.01s-5.42-6.7-5.3-12.07Zm6.98-29.91c0,6.53,1.3,11.3,3.89,14.3s5.84,4.5,9.75,4.5,7.12-1.49,9.75-4.48,3.94-7.66,3.94-14.04-1.35-10.69-4.05-13.78-5.96-4.64-9.77-4.64-6.94,1.52-9.56,4.57-3.94,7.57-3.94,13.57Z" style="fill:#fff;"/></g><path d="M892.87,107H3345.87V43.5l127,127-127,127v-63.5H892.87V107Z" style="fill:#008575; fill-rule:evenodd;"/><g style="isolation:isolate;"><path d="M1300.99,196.51v-65.86h22.69c5.12,0,9.03,.31,11.72,.94,3.77,.87,6.99,2.44,9.66,4.72,3.47,2.94,6.07,6.69,7.79,11.25,1.72,4.57,2.58,9.79,2.58,15.66,0,5-.58,9.43-1.75,13.3s-2.67,7.06-4.49,9.59c-1.83,2.53-3.83,4.52-6,5.97-2.17,1.45-4.79,2.55-7.86,3.3-3.07,.75-6.6,1.12-10.58,1.12h-23.76Zm8.71-7.77h14.06c4.34,0,7.75-.4,10.22-1.21s4.44-1.95,5.91-3.41c2.07-2.07,3.68-4.84,4.83-8.33,1.15-3.49,1.73-7.72,1.73-12.69,0-6.89-1.13-12.18-3.39-15.88-2.26-3.7-5.01-6.18-8.24-7.43-2.34-.9-6.09-1.35-11.28-1.35h-13.84v50.31Z" style="fill:#fff;"/><path d="M1397.53,190.63c-3,2.55-5.88,4.34-8.65,5.39-2.77,1.05-5.74,1.57-8.92,1.57-5.24,0-9.27-1.28-12.08-3.84-2.82-2.56-4.22-5.83-4.22-9.82,0-2.34,.53-4.47,1.59-6.4,1.06-1.93,2.46-3.48,4.18-4.65,1.72-1.17,3.66-2.05,5.82-2.65,1.59-.42,3.98-.82,7.19-1.21,6.53-.78,11.33-1.71,14.42-2.79,.03-1.11,.04-1.81,.04-2.11,0-3.29-.76-5.62-2.29-6.96-2.07-1.83-5.14-2.74-9.21-2.74-3.8,0-6.61,.67-8.42,2-1.81,1.33-3.15,3.69-4.02,7.08l-7.91-1.08c.72-3.38,1.9-6.12,3.55-8.2,1.65-2.08,4.03-3.68,7.14-4.81,3.11-1.12,6.72-1.68,10.83-1.68s7.38,.48,9.93,1.44c2.54,.96,4.42,2.16,5.62,3.62,1.2,1.45,2.04,3.29,2.52,5.5,.27,1.38,.4,3.86,.4,7.46v10.78c0,7.52,.17,12.27,.52,14.26,.34,1.99,1.03,3.9,2.04,5.73h-8.45c-.84-1.68-1.38-3.64-1.62-5.88Zm-.67-18.06c-2.94,1.2-7.34,2.22-13.21,3.05-3.32,.48-5.68,1.02-7.05,1.62-1.38,.6-2.44,1.48-3.19,2.63-.75,1.15-1.12,2.43-1.12,3.84,0,2.16,.82,3.95,2.45,5.39,1.63,1.44,4.02,2.16,7.17,2.16s5.88-.68,8.31-2.04c2.43-1.36,4.21-3.23,5.35-5.59,.87-1.83,1.3-4.52,1.3-8.09v-2.96Z" style="fill:#fff;"/><path d="M1435.22,189.28l1.17,7.14c-2.28,.48-4.31,.72-6.11,.72-2.94,0-5.21-.46-6.83-1.39s-2.76-2.15-3.41-3.66c-.66-1.51-.99-4.69-.99-9.55v-27.45h-5.93v-6.29h5.93v-11.81l8.04-4.85v16.67h8.13v6.29h-8.13v27.9c0,2.31,.14,3.79,.43,4.45,.28,.66,.75,1.18,1.39,1.57,.64,.39,1.56,.58,2.76,.58,.9,0,2.08-.1,3.55-.31Z" style="fill:#fff;"/><path d="M1474.25,190.63c-3,2.55-5.88,4.34-8.65,5.39-2.77,1.05-5.74,1.57-8.92,1.57-5.24,0-9.27-1.28-12.08-3.84-2.82-2.56-4.22-5.83-4.22-9.82,0-2.34,.53-4.47,1.59-6.4,1.06-1.93,2.46-3.48,4.18-4.65,1.72-1.17,3.66-2.05,5.82-2.65,1.59-.42,3.98-.82,7.19-1.21,6.53-.78,11.33-1.71,14.42-2.79,.03-1.11,.04-1.81,.04-2.11,0-3.29-.76-5.62-2.29-6.96-2.07-1.83-5.14-2.74-9.21-2.74-3.8,0-6.61,.67-8.42,2-1.81,1.33-3.15,3.69-4.02,7.08l-7.91-1.08c.72-3.38,1.9-6.12,3.55-8.2,1.65-2.08,4.03-3.68,7.14-4.81,3.11-1.12,6.72-1.68,10.83-1.68s7.38,.48,9.93,1.44c2.54,.96,4.42,2.16,5.62,3.62,1.2,1.45,2.04,3.29,2.52,5.5,.27,1.38,.4,3.86,.4,7.46v10.78c0,7.52,.17,12.27,.52,14.26,.34,1.99,1.03,3.9,2.04,5.73h-8.45c-.84-1.68-1.38-3.64-1.62-5.88Zm-.67-18.06c-2.94,1.2-7.34,2.22-13.21,3.05-3.32,.48-5.68,1.02-7.05,1.62-1.38,.6-2.44,1.48-3.19,2.63-.75,1.15-1.12,2.43-1.12,3.84,0,2.16,.82,3.95,2.45,5.39,1.63,1.44,4.02,2.16,7.17,2.16s5.88-.68,8.31-2.04c2.43-1.36,4.21-3.23,5.35-5.59,.87-1.83,1.3-4.52,1.3-8.09v-2.96Z" style="fill:#fff;"/><path d="M1520.88,196.51v-65.86h24.84c4.37,0,7.71,.21,10.02,.63,3.23,.54,5.94,1.57,8.13,3.08,2.19,1.51,3.95,3.63,5.28,6.36,1.33,2.73,2,5.72,2,8.98,0,5.6-1.78,10.34-5.35,14.22-3.56,3.88-10,5.82-19.32,5.82h-16.89v26.77h-8.71Zm8.71-34.54h17.03c5.63,0,9.63-1.05,11.99-3.14,2.37-2.1,3.55-5.05,3.55-8.85,0-2.75-.7-5.11-2.09-7.08-1.39-1.96-3.23-3.26-5.5-3.89-1.47-.39-4.18-.58-8.13-.58h-16.85v23.54Z" style="fill:#fff;"/><path d="M1613.87,181.15l8.36,1.03c-1.32,4.88-3.76,8.67-7.32,11.37-3.56,2.7-8.12,4.04-13.66,4.04-6.98,0-12.51-2.15-16.6-6.45-4.09-4.3-6.13-10.32-6.13-18.08s2.07-14.25,6.2-18.69c4.13-4.43,9.49-6.65,16.08-6.65s11.59,2.17,15.63,6.51c4.04,4.34,6.06,10.45,6.06,18.33,0,.48-.02,1.2-.04,2.16h-35.58c.3,5.24,1.78,9.25,4.45,12.04,2.67,2.79,5.99,4.18,9.97,4.18,2.96,0,5.5-.78,7.59-2.34,2.1-1.56,3.76-4.04,4.99-7.46Zm-26.55-13.07h26.64c-.36-4.01-1.38-7.02-3.05-9.03-2.58-3.11-5.92-4.67-10.02-4.67-3.71,0-6.84,1.24-9.37,3.73-2.53,2.49-3.93,5.81-4.2,9.97Z" style="fill:#fff;"/><path d="M1632.29,196.51v-47.71h7.28v7.23c1.86-3.38,3.57-5.62,5.14-6.69s3.3-1.62,5.19-1.62c2.72,0,5.5,.87,8.31,2.61l-2.79,7.5c-1.98-1.17-3.95-1.75-5.93-1.75-1.77,0-3.35,.53-4.76,1.59-1.41,1.06-2.41,2.54-3.01,4.42-.9,2.88-1.35,6.02-1.35,9.43v24.98h-8.09Z" style="fill:#fff;"/><path d="M1659.78,182.27l8-1.26c.45,3.21,1.7,5.66,3.75,7.37,2.05,1.71,4.92,2.56,8.6,2.56s6.47-.76,8.27-2.27c1.8-1.51,2.7-3.29,2.7-5.32,0-1.83-.79-3.26-2.38-4.31-1.11-.72-3.86-1.63-8.27-2.74-5.93-1.5-10.04-2.79-12.33-3.89-2.29-1.09-4.03-2.61-5.21-4.54-1.18-1.93-1.77-4.07-1.77-6.4,0-2.13,.49-4.09,1.46-5.91,.97-1.81,2.3-3.32,3.98-4.51,1.26-.93,2.97-1.71,5.14-2.36,2.17-.64,4.5-.97,6.99-.97,3.74,0,7.03,.54,9.86,1.62s4.92,2.54,6.27,4.38,2.28,4.31,2.79,7.39l-7.91,1.08c-.36-2.46-1.4-4.37-3.12-5.75-1.72-1.38-4.16-2.07-7.3-2.07-3.71,0-6.36,.61-7.95,1.84-1.59,1.23-2.38,2.67-2.38,4.31,0,1.05,.33,1.99,.99,2.83,.66,.87,1.69,1.59,3.1,2.16,.81,.3,3.19,.99,7.14,2.07,5.72,1.53,9.71,2.78,11.97,3.75,2.26,.97,4.04,2.39,5.32,4.25,1.29,1.86,1.93,4.16,1.93,6.92s-.79,5.23-2.36,7.61-3.84,4.22-6.81,5.53-6.32,1.95-10.06,1.95c-6.2,0-10.92-1.29-14.17-3.86-3.25-2.58-5.32-6.39-6.22-11.46Z" style="fill:#fff;"/><path d="M1709.06,139.95v-9.3h8.09v9.3h-8.09Zm0,56.56v-47.71h8.09v47.71h-8.09Z" style="fill:#fff;"/><path d="M1726.22,182.27l8-1.26c.45,3.21,1.7,5.66,3.75,7.37,2.05,1.71,4.92,2.56,8.6,2.56s6.47-.76,8.27-2.27c1.8-1.51,2.7-3.29,2.7-5.32,0-1.83-.79-3.26-2.38-4.31-1.11-.72-3.86-1.63-8.27-2.74-5.93-1.5-10.04-2.79-12.33-3.89-2.29-1.09-4.03-2.61-5.21-4.54-1.18-1.93-1.77-4.07-1.77-6.4,0-2.13,.49-4.09,1.46-5.91,.97-1.81,2.3-3.32,3.98-4.51,1.26-.93,2.97-1.71,5.14-2.36,2.17-.64,4.5-.97,6.99-.97,3.74,0,7.03,.54,9.86,1.62s4.92,2.54,6.27,4.38,2.28,4.31,2.79,7.39l-7.91,1.08c-.36-2.46-1.4-4.37-3.12-5.75-1.72-1.38-4.16-2.07-7.3-2.07-3.71,0-6.36,.61-7.95,1.84-1.59,1.23-2.38,2.67-2.38,4.31,0,1.05,.33,1.99,.99,2.83,.66,.87,1.69,1.59,3.1,2.16,.81,.3,3.19,.99,7.14,2.07,5.72,1.53,9.71,2.78,11.97,3.75,2.26,.97,4.04,2.39,5.32,4.25,1.29,1.86,1.93,4.16,1.93,6.92s-.79,5.23-2.36,7.61-3.84,4.22-6.81,5.53-6.32,1.95-10.06,1.95c-6.2,0-10.92-1.29-14.17-3.86-3.25-2.58-5.32-6.39-6.22-11.46Z" style="fill:#fff;"/><path d="M1793.11,189.28l1.17,7.14c-2.28,.48-4.31,.72-6.11,.72-2.94,0-5.21-.46-6.83-1.39s-2.76-2.15-3.41-3.66c-.66-1.51-.99-4.69-.99-9.55v-27.45h-5.93v-6.29h5.93v-11.81l8.04-4.85v16.67h8.13v6.29h-8.13v27.9c0,2.31,.14,3.79,.43,4.45,.28,.66,.75,1.18,1.39,1.57,.64,.39,1.56,.58,2.76,.58,.9,0,2.08-.1,3.55-.31Z" style="fill:#fff;"/><path d="M1833.67,181.15l8.36,1.03c-1.32,4.88-3.76,8.67-7.32,11.37-3.56,2.7-8.12,4.04-13.66,4.04-6.98,0-12.51-2.15-16.6-6.45-4.09-4.3-6.13-10.32-6.13-18.08s2.07-14.25,6.2-18.69c4.13-4.43,9.49-6.65,16.08-6.65s11.59,2.17,15.63,6.51c4.04,4.34,6.06,10.45,6.06,18.33,0,.48-.02,1.2-.04,2.16h-35.58c.3,5.24,1.78,9.25,4.45,12.04,2.67,2.79,5.99,4.18,9.97,4.18,2.96,0,5.5-.78,7.59-2.34,2.1-1.56,3.76-4.04,4.99-7.46Zm-26.55-13.07h26.64c-.36-4.01-1.38-7.02-3.05-9.03-2.58-3.11-5.92-4.67-10.02-4.67-3.71,0-6.84,1.24-9.37,3.73-2.53,2.49-3.93,5.81-4.2,9.97Z" style="fill:#fff;"/><path d="M1852.18,196.51v-47.71h7.28v6.78c3.5-5.24,8.56-7.86,15.18-7.86,2.88,0,5.52,.52,7.93,1.55,2.41,1.03,4.21,2.39,5.41,4.07,1.2,1.68,2.04,3.67,2.52,5.97,.3,1.5,.45,4.12,.45,7.86v29.33h-8.09v-29.02c0-3.29-.31-5.76-.94-7.39-.63-1.63-1.75-2.93-3.35-3.91-1.6-.97-3.48-1.46-5.64-1.46-3.44,0-6.42,1.09-8.92,3.28-2.5,2.19-3.75,6.33-3.75,12.44v26.05h-8.09Z" style="fill:#fff;"/><path d="M1934.48,179.04l7.95,1.03c-.87,5.48-3.09,9.77-6.67,12.87-3.58,3.1-7.97,4.65-13.18,4.65-6.53,0-11.78-2.13-15.75-6.4-3.97-4.27-5.95-10.38-5.95-18.35,0-5.15,.85-9.66,2.56-13.52s4.3-6.76,7.79-8.69c3.49-1.93,7.28-2.9,11.39-2.9,5.18,0,9.42,1.31,12.71,3.93,3.29,2.62,5.41,6.34,6.33,11.16l-7.86,1.21c-.75-3.2-2.07-5.62-3.98-7.23-1.9-1.62-4.2-2.43-6.9-2.43-4.07,0-7.38,1.46-9.93,4.38-2.55,2.92-3.82,7.54-3.82,13.86s1.23,11.07,3.68,13.97c2.46,2.91,5.66,4.36,9.61,4.36,3.17,0,5.82-.97,7.95-2.92,2.13-1.95,3.47-4.94,4.04-8.98Z" style="fill:#fff;"/><path d="M1982,181.15l8.36,1.03c-1.32,4.88-3.76,8.67-7.32,11.37-3.56,2.7-8.12,4.04-13.66,4.04-6.98,0-12.51-2.15-16.6-6.45-4.09-4.3-6.13-10.32-6.13-18.08s2.07-14.25,6.2-18.69c4.13-4.43,9.49-6.65,16.08-6.65s11.59,2.17,15.63,6.51c4.04,4.34,6.06,10.45,6.06,18.33,0,.48-.02,1.2-.04,2.16h-35.58c.3,5.24,1.78,9.25,4.45,12.04,2.67,2.79,5.99,4.18,9.97,4.18,2.96,0,5.5-.78,7.59-2.34,2.1-1.56,3.76-4.04,4.99-7.46Zm-26.55-13.07h26.64c-.36-4.01-1.38-7.02-3.05-9.03-2.58-3.11-5.92-4.67-10.02-4.67-3.71,0-6.84,1.24-9.37,3.73-2.53,2.49-3.93,5.81-4.2,9.97Z" style="fill:#fff;"/></g><g style="isolation:isolate;"><path d="M2030.24,174.93v-6.51h51.17v6.51h-51.17Z" style="fill:#fff;"/></g><g style="isolation:isolate;"><path d="M2108.69,195.5v-65.86h29.2c5.87,0,10.33,.59,13.39,1.77,3.05,1.18,5.5,3.27,7.32,6.27,1.83,3,2.74,6.3,2.74,9.93,0,4.67-1.51,8.61-4.54,11.81-3.03,3.21-7.7,5.24-14.02,6.11,2.31,1.11,4.06,2.2,5.26,3.28,2.54,2.34,4.96,5.26,7.23,8.76l11.46,17.92h-10.96l-8.71-13.7c-2.55-3.95-4.64-6.98-6.29-9.07-1.65-2.1-3.12-3.56-4.42-4.4-1.3-.84-2.63-1.42-3.98-1.75-.99-.21-2.61-.31-4.85-.31h-10.11v29.24h-8.71Zm8.71-36.79h18.73c3.98,0,7.1-.41,9.34-1.24,2.25-.82,3.95-2.14,5.12-3.95,1.17-1.81,1.75-3.78,1.75-5.91,0-3.11-1.13-5.67-3.39-7.68-2.26-2.01-5.83-3.01-10.71-3.01h-20.84v21.79Z" style="fill:#fff;"/><path d="M2206.62,180.14l8.36,1.03c-1.32,4.88-3.76,8.67-7.32,11.37-3.56,2.7-8.12,4.04-13.66,4.04-6.98,0-12.51-2.15-16.6-6.45-4.09-4.3-6.13-10.32-6.13-18.08s2.07-14.25,6.2-18.69c4.13-4.43,9.49-6.65,16.08-6.65s11.59,2.17,15.63,6.51c4.04,4.34,6.06,10.45,6.06,18.33,0,.48-.02,1.2-.04,2.16h-35.58c.3,5.24,1.78,9.25,4.45,12.04,2.67,2.79,5.99,4.18,9.97,4.18,2.96,0,5.5-.78,7.59-2.34,2.1-1.56,3.76-4.04,4.99-7.46Zm-26.55-13.07h26.64c-.36-4.01-1.38-7.02-3.05-9.03-2.58-3.11-5.92-4.67-10.02-4.67-3.71,0-6.84,1.24-9.37,3.73-2.53,2.49-3.93,5.81-4.2,9.97Z" style="fill:#fff;"/><path d="M2225.13,213.78v-65.99h7.37v6.2c1.74-2.43,3.7-4.25,5.88-5.46,2.19-1.21,4.84-1.82,7.95-1.82,4.07,0,7.67,1.05,10.78,3.14,3.11,2.1,5.46,5.05,7.05,8.87,1.59,3.82,2.38,8,2.38,12.56,0,4.88-.88,9.28-2.63,13.18s-4.3,6.9-7.64,8.98c-3.34,2.08-6.85,3.12-10.53,3.12-2.7,0-5.11-.57-7.25-1.71-2.14-1.14-3.9-2.58-5.28-4.31v23.22h-8.09Zm7.32-41.87c0,6.14,1.24,10.68,3.73,13.61,2.49,2.94,5.5,4.4,9.03,4.4s6.67-1.52,9.23-4.56c2.56-3.04,3.84-7.75,3.84-14.13s-1.25-10.63-3.75-13.66c-2.5-3.02-5.49-4.54-8.96-4.54s-6.49,1.61-9.14,4.83c-2.65,3.22-3.98,7.9-3.98,14.04Z" style="fill:#fff;"/><path d="M2276.12,195.5v-65.86h8.09v65.86h-8.09Z" style="fill:#fff;"/><path d="M2296.78,138.94v-9.3h8.09v9.3h-8.09Zm0,56.56v-47.71h8.09v47.71h-8.09Z" style="fill:#fff;"/><path d="M2348.31,178.03l7.95,1.03c-.87,5.48-3.09,9.77-6.67,12.87-3.58,3.1-7.97,4.65-13.18,4.65-6.53,0-11.78-2.13-15.75-6.4-3.97-4.27-5.95-10.38-5.95-18.35,0-5.15,.85-9.66,2.56-13.52s4.3-6.76,7.79-8.69c3.49-1.93,7.28-2.9,11.39-2.9,5.18,0,9.42,1.31,12.71,3.93,3.29,2.62,5.41,6.34,6.33,11.16l-7.86,1.21c-.75-3.2-2.07-5.62-3.98-7.23-1.9-1.62-4.2-2.43-6.9-2.43-4.07,0-7.38,1.46-9.93,4.38-2.55,2.92-3.82,7.54-3.82,13.86s1.23,11.07,3.68,13.97c2.46,2.91,5.66,4.36,9.61,4.36,3.17,0,5.82-.97,7.95-2.92,2.13-1.95,3.47-4.94,4.04-8.98Z" style="fill:#fff;"/><path d="M2394.31,189.62c-3,2.55-5.88,4.34-8.65,5.39-2.77,1.05-5.74,1.57-8.92,1.57-5.24,0-9.27-1.28-12.08-3.84-2.82-2.56-4.22-5.83-4.22-9.82,0-2.34,.53-4.47,1.59-6.4,1.06-1.93,2.46-3.48,4.18-4.65,1.72-1.17,3.66-2.05,5.82-2.65,1.59-.42,3.98-.82,7.19-1.21,6.53-.78,11.33-1.71,14.42-2.79,.03-1.11,.04-1.81,.04-2.11,0-3.29-.76-5.62-2.29-6.96-2.07-1.83-5.14-2.74-9.21-2.74-3.8,0-6.61,.67-8.42,2-1.81,1.33-3.15,3.69-4.02,7.08l-7.91-1.08c.72-3.38,1.9-6.12,3.55-8.2,1.65-2.08,4.03-3.68,7.14-4.81,3.11-1.12,6.72-1.68,10.83-1.68s7.38,.48,9.93,1.44c2.54,.96,4.42,2.16,5.62,3.62,1.2,1.45,2.04,3.29,2.52,5.5,.27,1.38,.4,3.86,.4,7.46v10.78c0,7.52,.17,12.27,.52,14.26,.34,1.99,1.03,3.9,2.04,5.73h-8.45c-.84-1.68-1.38-3.64-1.62-5.88Zm-.67-18.06c-2.94,1.2-7.34,2.22-13.21,3.05-3.32,.48-5.68,1.02-7.05,1.62-1.38,.6-2.44,1.48-3.19,2.63-.75,1.15-1.12,2.43-1.12,3.84,0,2.16,.82,3.95,2.45,5.39,1.63,1.44,4.02,2.16,7.17,2.16s5.88-.68,8.31-2.04c2.43-1.36,4.21-3.23,5.35-5.59,.87-1.83,1.3-4.52,1.3-8.09v-2.96Z" style="fill:#fff;"/><path d="M2432,188.27l1.17,7.14c-2.28,.48-4.31,.72-6.11,.72-2.94,0-5.21-.46-6.83-1.39s-2.76-2.15-3.41-3.66c-.66-1.51-.99-4.69-.99-9.55v-27.45h-5.93v-6.29h5.93v-11.81l8.04-4.85v16.67h8.13v6.29h-8.13v27.9c0,2.31,.14,3.79,.43,4.45,.28,.66,.75,1.18,1.39,1.57,.64,.39,1.56,.58,2.76,.58,.9,0,2.08-.1,3.55-.31Z" style="fill:#fff;"/><path d="M2439.95,138.94v-9.3h8.09v9.3h-8.09Zm0,56.56v-47.71h8.09v47.71h-8.09Z" style="fill:#fff;"/><path d="M2457.33,171.65c0-8.83,2.46-15.38,7.37-19.63,4.1-3.53,9.1-5.3,15-5.3,6.56,0,11.92,2.15,16.08,6.45,4.16,4.3,6.24,10.24,6.24,17.81,0,6.14-.92,10.97-2.76,14.49-1.84,3.52-4.52,6.25-8.04,8.2-3.52,1.95-7.36,2.92-11.52,2.92-6.68,0-12.08-2.14-16.19-6.42-4.12-4.28-6.18-10.45-6.18-18.51Zm8.31,0c0,6.11,1.33,10.68,4,13.72,2.67,3.04,6.02,4.56,10.06,4.56s7.35-1.53,10.02-4.58c2.67-3.05,4-7.71,4-13.97,0-5.9-1.34-10.37-4.02-13.41-2.68-3.04-6.01-4.56-10-4.56s-7.4,1.51-10.06,4.54c-2.67,3.03-4,7.59-4,13.7Z" style="fill:#fff;"/><path d="M2511.51,195.5v-47.71h7.28v6.78c3.5-5.24,8.56-7.86,15.18-7.86,2.88,0,5.52,.52,7.93,1.55,2.41,1.03,4.21,2.39,5.41,4.07,1.2,1.68,2.04,3.67,2.52,5.97,.3,1.5,.45,4.12,.45,7.86v29.33h-8.09v-29.02c0-3.29-.31-5.76-.94-7.39-.63-1.63-1.75-2.93-3.35-3.91-1.6-.97-3.48-1.46-5.64-1.46-3.44,0-6.42,1.09-8.92,3.28-2.5,2.19-3.75,6.33-3.75,12.44v26.05h-8.09Z" style="fill:#fff;"/><path d="M2586.3,174.34l8.22-.72c.39,3.29,1.29,6,2.72,8.11,1.42,2.11,3.63,3.82,6.63,5.12,2.99,1.3,6.36,1.95,10.11,1.95,3.32,0,6.26-.49,8.8-1.48,2.54-.99,4.44-2.34,5.68-4.07,1.24-1.72,1.86-3.6,1.86-5.64s-.6-3.87-1.8-5.41c-1.2-1.54-3.17-2.84-5.93-3.89-1.77-.69-5.68-1.76-11.72-3.21-6.05-1.45-10.29-2.82-12.71-4.11-3.14-1.65-5.49-3.69-7.03-6.13-1.54-2.44-2.31-5.17-2.31-8.2,0-3.32,.94-6.43,2.83-9.32,1.89-2.89,4.64-5.08,8.27-6.58,3.62-1.5,7.65-2.25,12.08-2.25,4.88,0,9.19,.79,12.92,2.36s6.6,3.89,8.6,6.94c2.01,3.05,3.08,6.51,3.23,10.38l-8.36,.63c-.45-4.16-1.97-7.31-4.56-9.43-2.59-2.13-6.42-3.19-11.48-3.19s-9.11,.97-11.52,2.9c-2.41,1.93-3.62,4.26-3.62,6.99,0,2.37,.85,4.31,2.56,5.84,1.68,1.53,6.06,3.09,13.14,4.69,7.08,1.6,11.94,3,14.58,4.2,3.83,1.77,6.66,4.01,8.49,6.72,1.83,2.71,2.74,5.83,2.74,9.37s-1,6.81-3.01,9.91c-2.01,3.1-4.89,5.51-8.65,7.23-3.76,1.72-7.99,2.58-12.69,2.58-5.96,0-10.95-.87-14.98-2.61-4.03-1.74-7.19-4.35-9.48-7.84-2.29-3.49-3.5-7.43-3.62-11.84Z" style="fill:#fff;"/><path d="M2649.6,213.78v-65.99h7.37v6.2c1.74-2.43,3.7-4.25,5.88-5.46,2.19-1.21,4.84-1.82,7.95-1.82,4.07,0,7.67,1.05,10.78,3.14,3.11,2.1,5.46,5.05,7.05,8.87,1.59,3.82,2.38,8,2.38,12.56,0,4.88-.88,9.28-2.63,13.18s-4.3,6.9-7.64,8.98c-3.34,2.08-6.85,3.12-10.53,3.12-2.7,0-5.11-.57-7.25-1.71-2.14-1.14-3.9-2.58-5.28-4.31v23.22h-8.09Zm7.32-41.87c0,6.14,1.24,10.68,3.73,13.61,2.49,2.94,5.5,4.4,9.03,4.4s6.67-1.52,9.23-4.56c2.56-3.04,3.84-7.75,3.84-14.13s-1.25-10.63-3.75-13.66c-2.5-3.02-5.49-4.54-8.96-4.54s-6.49,1.61-9.14,4.83c-2.65,3.22-3.98,7.9-3.98,14.04Z" style="fill:#fff;"/><path d="M2733.42,180.14l8.36,1.03c-1.32,4.88-3.76,8.67-7.32,11.37-3.56,2.7-8.12,4.04-13.66,4.04-6.98,0-12.51-2.15-16.6-6.45-4.09-4.3-6.13-10.32-6.13-18.08s2.07-14.25,6.2-18.69c4.13-4.43,9.49-6.65,16.08-6.65s11.59,2.17,15.63,6.51c4.04,4.34,6.06,10.45,6.06,18.33,0,.48-.02,1.2-.04,2.16h-35.58c.3,5.24,1.78,9.25,4.45,12.04,2.67,2.79,5.99,4.18,9.97,4.18,2.96,0,5.5-.78,7.59-2.34,2.1-1.56,3.76-4.04,4.99-7.46Zm-26.55-13.07h26.64c-.36-4.01-1.38-7.02-3.05-9.03-2.58-3.11-5.92-4.67-10.02-4.67-3.71,0-6.84,1.24-9.37,3.73-2.53,2.49-3.93,5.81-4.2,9.97Z" style="fill:#fff;"/><path d="M2783.06,178.03l7.95,1.03c-.87,5.48-3.09,9.77-6.67,12.87-3.58,3.1-7.97,4.65-13.18,4.65-6.53,0-11.78-2.13-15.75-6.4-3.97-4.27-5.95-10.38-5.95-18.35,0-5.15,.85-9.66,2.56-13.52s4.3-6.76,7.79-8.69c3.49-1.93,7.28-2.9,11.39-2.9,5.18,0,9.42,1.31,12.71,3.93,3.29,2.62,5.41,6.34,6.33,11.16l-7.86,1.21c-.75-3.2-2.07-5.62-3.98-7.23-1.9-1.62-4.2-2.43-6.9-2.43-4.07,0-7.38,1.46-9.93,4.38-2.55,2.92-3.82,7.54-3.82,13.86s1.23,11.07,3.68,13.97c2.46,2.91,5.66,4.36,9.61,4.36,3.17,0,5.82-.97,7.95-2.92,2.13-1.95,3.47-4.94,4.04-8.98Z" style="fill:#fff;"/><path d="M2815.58,188.27l1.17,7.14c-2.28,.48-4.31,.72-6.11,.72-2.94,0-5.21-.46-6.83-1.39s-2.76-2.15-3.41-3.66c-.66-1.51-.99-4.69-.99-9.55v-27.45h-5.93v-6.29h5.93v-11.81l8.04-4.85v16.67h8.13v6.29h-8.13v27.9c0,2.31,.14,3.79,.43,4.45,.28,.66,.75,1.18,1.39,1.57,.64,.39,1.56,.58,2.76,.58,.9,0,2.08-.1,3.55-.31Z" style="fill:#fff;"/><path d="M2823.4,195.5v-47.71h7.28v7.23c1.86-3.38,3.57-5.62,5.14-6.69s3.3-1.62,5.19-1.62c2.72,0,5.5,.87,8.31,2.61l-2.79,7.5c-1.98-1.17-3.95-1.75-5.93-1.75-1.77,0-3.35,.53-4.76,1.59-1.41,1.06-2.41,2.54-3.01,4.42-.9,2.88-1.35,6.02-1.35,9.43v24.98h-8.09Z" style="fill:#fff;"/><path d="M2885.39,195.5v-7.01c-3.71,5.39-8.76,8.09-15.14,8.09-2.82,0-5.44-.54-7.88-1.62-2.44-1.08-4.25-2.43-5.44-4.07-1.18-1.63-2.01-3.63-2.49-6-.33-1.59-.49-4.1-.49-7.55v-29.56h8.09v26.46c0,4.22,.16,7.07,.49,8.54,.51,2.13,1.59,3.8,3.23,5.01,1.65,1.21,3.68,1.82,6.11,1.82s4.7-.62,6.83-1.86c2.13-1.24,3.63-2.93,4.51-5.08,.88-2.14,1.33-5.25,1.33-9.32v-25.56h8.09v47.71h-7.23Z" style="fill:#fff;"/><path d="M2905.29,195.5v-47.71h7.23v6.69c1.5-2.34,3.49-4.21,5.97-5.64,2.49-1.42,5.32-2.13,8.49-2.13,3.53,0,6.43,.73,8.69,2.2,2.26,1.47,3.86,3.52,4.78,6.15,3.77-5.57,8.68-8.36,14.73-8.36,4.73,0,8.37,1.31,10.92,3.93,2.54,2.62,3.82,6.66,3.82,12.11v32.75h-8.04v-30.05c0-3.23-.26-5.56-.79-6.99-.52-1.42-1.48-2.57-2.85-3.44-1.38-.87-3-1.3-4.85-1.3-3.35,0-6.14,1.12-8.36,3.35-2.22,2.23-3.32,5.8-3.32,10.71v27.72h-8.09v-31c0-3.59-.66-6.29-1.98-8.09-1.32-1.8-3.47-2.7-6.47-2.7-2.28,0-4.38,.6-6.31,1.8-1.93,1.2-3.33,2.95-4.2,5.26-.87,2.31-1.3,5.63-1.3,9.97v24.75h-8.09Z" style="fill:#fff;"/></g><g style="isolation:isolate;"><path d="M242.59,187.5V121.64h21.34c8.09,0,13.36,.33,15.81,.99,3.77,.99,6.93,3.14,9.48,6.45,2.54,3.31,3.82,7.58,3.82,12.83,0,4.04-.73,7.44-2.2,10.2-1.47,2.76-3.33,4.92-5.59,6.49-2.26,1.57-4.56,2.61-6.9,3.12-3.17,.63-7.77,.94-13.79,.94h-8.67v24.84h-13.3Zm13.3-54.71v18.69h7.28c5.24,0,8.74-.34,10.51-1.03,1.77-.69,3.15-1.77,4.16-3.23,1-1.47,1.5-3.17,1.5-5.12,0-2.4-.7-4.37-2.11-5.93-1.41-1.56-3.19-2.53-5.35-2.92-1.59-.3-4.78-.45-9.57-.45h-6.42Z"/><path d="M331.49,172.32l12.58,2.11c-1.62,4.61-4.17,8.12-7.66,10.53-3.49,2.41-7.85,3.62-13.09,3.62-8.3,0-14.44-2.71-18.42-8.13-3.14-4.34-4.72-9.82-4.72-16.44,0-7.91,2.07-14.1,6.2-18.58,4.13-4.48,9.36-6.72,15.68-6.72,7.1,0,12.7,2.34,16.8,7.03,4.1,4.69,6.06,11.87,5.88,21.54h-31.62c.09,3.74,1.11,6.66,3.05,8.74,1.95,2.08,4.37,3.12,7.28,3.12,1.98,0,3.64-.54,4.99-1.62s2.37-2.81,3.05-5.21Zm.72-12.76c-.09-3.65-1.03-6.43-2.83-8.33-1.8-1.9-3.98-2.85-6.56-2.85-2.76,0-5.03,1-6.83,3.01-1.8,2.01-2.68,4.73-2.65,8.18h18.87Z"/><path d="M367.11,187.5h-12.62v-47.71h11.72v6.78c2.01-3.2,3.81-5.32,5.41-6.33,1.6-1.02,3.42-1.53,5.46-1.53,2.88,0,5.64,.79,8.31,2.38l-3.91,11.01c-2.13-1.38-4.1-2.07-5.93-2.07s-3.26,.49-4.49,1.46c-1.23,.97-2.19,2.73-2.9,5.28-.7,2.55-1.06,7.88-1.06,15.99v14.73Z"/><path d="M385.31,139.79h7.01v-3.59c0-4.01,.43-7.01,1.28-8.98s2.43-3.59,4.72-4.83c2.29-1.24,5.19-1.86,8.69-1.86s7.11,.54,10.56,1.62l-1.71,8.8c-2.01-.48-3.94-.72-5.79-.72s-3.14,.43-3.93,1.28c-.79,.85-1.19,2.49-1.19,4.92v3.37h9.43v9.93h-9.43v37.78h-12.62v-37.78h-7.01v-9.93Z"/><path d="M418.55,162.97c0-4.19,1.03-8.25,3.1-12.17,2.07-3.92,4.99-6.92,8.78-8.98,3.79-2.07,8.02-3.1,12.69-3.1,7.22,0,13.13,2.34,17.74,7.03,4.61,4.69,6.92,10.61,6.92,17.77s-2.33,13.2-6.99,17.95c-4.66,4.75-10.52,7.12-17.59,7.12-4.37,0-8.54-.99-12.51-2.96-3.97-1.98-6.99-4.87-9.05-8.69s-3.1-8.47-3.1-13.95Zm12.94,.67c0,4.73,1.12,8.36,3.37,10.87s5.02,3.77,8.31,3.77,6.06-1.26,8.29-3.77c2.23-2.52,3.35-6.17,3.35-10.96s-1.12-8.27-3.35-10.78c-2.23-2.52-4.99-3.77-8.29-3.77s-6.06,1.26-8.31,3.77-3.37,6.14-3.37,10.87Z"/><path d="M489.75,187.5h-12.62v-47.71h11.72v6.78c2.01-3.2,3.81-5.32,5.41-6.33,1.6-1.02,3.42-1.53,5.46-1.53,2.88,0,5.64,.79,8.31,2.38l-3.91,11.01c-2.13-1.38-4.1-2.07-5.93-2.07s-3.26,.49-4.49,1.46c-1.23,.97-2.19,2.73-2.9,5.28-.7,2.55-1.06,7.88-1.06,15.99v14.73Z"/><path d="M512.53,139.79h11.63v6.51c4.16-5.06,9.12-7.59,14.87-7.59,3.05,0,5.71,.63,7.95,1.89s4.09,3.16,5.53,5.71c2.1-2.54,4.36-4.45,6.78-5.71s5.02-1.89,7.77-1.89c3.5,0,6.47,.71,8.89,2.13,2.43,1.42,4.24,3.51,5.44,6.27,.87,2.04,1.3,5.33,1.3,9.88v30.5h-12.62v-27.27c0-4.73-.43-7.79-1.3-9.16-1.17-1.8-2.96-2.7-5.39-2.7-1.77,0-3.43,.54-4.99,1.62-1.56,1.08-2.68,2.66-3.37,4.74-.69,2.08-1.03,5.37-1.03,9.86v22.91h-12.62v-26.14c0-4.64-.22-7.64-.67-8.98s-1.15-2.35-2.09-3.01c-.94-.66-2.22-.99-3.84-.99-1.95,0-3.7,.52-5.26,1.57-1.56,1.05-2.67,2.56-3.35,4.54s-1.01,5.26-1.01,9.84v23.18h-12.62v-47.71Z"/><path d="M604.7,154.35l-11.46-2.07c1.29-4.61,3.5-8.03,6.65-10.24,3.14-2.22,7.82-3.32,14.02-3.32,5.63,0,9.82,.67,12.58,2,2.75,1.33,4.69,3.03,5.82,5.08,1.12,2.05,1.68,5.82,1.68,11.3l-.13,14.73c0,4.19,.2,7.29,.61,9.28,.4,1.99,1.16,4.13,2.27,6.4h-12.49c-.33-.84-.73-2.08-1.21-3.73-.21-.75-.36-1.24-.45-1.48-2.16,2.1-4.46,3.67-6.92,4.72-2.46,1.05-5.08,1.57-7.86,1.57-4.91,0-8.78-1.33-11.61-4-2.83-2.67-4.25-6.03-4.25-10.11,0-2.7,.64-5.1,1.93-7.21,1.29-2.11,3.09-3.73,5.41-4.85,2.32-1.12,5.67-2.1,10.04-2.94,5.9-1.11,9.99-2.14,12.26-3.1v-1.26c0-2.43-.6-4.16-1.8-5.19-1.2-1.03-3.46-1.55-6.78-1.55-2.25,0-4,.44-5.26,1.33-1.26,.88-2.28,2.43-3.05,4.65Zm16.89,10.24c-1.62,.54-4.18,1.18-7.68,1.93-3.5,.75-5.79,1.48-6.87,2.2-1.65,1.17-2.47,2.65-2.47,4.45s.66,3.29,1.98,4.58c1.32,1.29,2.99,1.93,5.03,1.93,2.28,0,4.45-.75,6.51-2.25,1.53-1.14,2.53-2.53,3.01-4.18,.33-1.08,.49-3.13,.49-6.15v-2.52Z"/><path d="M689.83,187.5h-12.62v-24.35c0-5.15-.27-8.48-.81-10-.54-1.51-1.42-2.69-2.63-3.53-1.21-.84-2.67-1.26-4.38-1.26-2.19,0-4.15,.6-5.88,1.8-1.74,1.2-2.93,2.79-3.57,4.76-.64,1.98-.97,5.63-.97,10.96v21.61h-12.62v-47.71h11.72v7.01c4.16-5.39,9.4-8.09,15.72-8.09,2.79,0,5.33,.5,7.64,1.5,2.31,1,4.05,2.28,5.23,3.84,1.18,1.56,2.01,3.32,2.47,5.3,.46,1.98,.7,4.81,.7,8.49v29.65Z"/><path d="M744.23,153.9l-12.44,2.25c-.42-2.49-1.37-4.36-2.85-5.62s-3.41-1.89-5.77-1.89c-3.14,0-5.65,1.09-7.52,3.26-1.87,2.17-2.81,5.8-2.81,10.89,0,5.66,.95,9.66,2.85,11.99,1.9,2.34,4.45,3.5,7.66,3.5,2.4,0,4.36-.68,5.88-2.04,1.53-1.36,2.61-3.71,3.23-7.03l12.4,2.11c-1.29,5.69-3.76,9.99-7.41,12.89-3.65,2.91-8.55,4.36-14.69,4.36-6.98,0-12.54-2.2-16.69-6.6-4.15-4.4-6.22-10.5-6.22-18.28s2.08-14.01,6.24-18.4c4.16-4.39,9.79-6.58,16.89-6.58,5.81,0,10.43,1.25,13.86,3.75,3.43,2.5,5.89,6.31,7.39,11.43Z"/><path d="M781.43,172.32l12.58,2.11c-1.62,4.61-4.17,8.12-7.66,10.53-3.49,2.41-7.85,3.62-13.09,3.62-8.3,0-14.44-2.71-18.42-8.13-3.14-4.34-4.72-9.82-4.72-16.44,0-7.91,2.07-14.1,6.2-18.58,4.13-4.48,9.36-6.72,15.68-6.72,7.1,0,12.7,2.34,16.8,7.03,4.1,4.69,6.06,11.87,5.88,21.54h-31.62c.09,3.74,1.11,6.66,3.05,8.74,1.95,2.08,4.37,3.12,7.28,3.12,1.98,0,3.64-.54,4.99-1.62s2.37-2.81,3.05-5.21Zm.72-12.76c-.09-3.65-1.03-6.43-2.83-8.33-1.8-1.9-3.98-2.85-6.56-2.85-2.76,0-5.03,1-6.83,3.01-1.8,2.01-2.68,4.73-2.65,8.18h18.87Z"/></g><g style="isolation:isolate;"><path d="M288.33,279.5h-11.48l-4.56-11.87h-20.89l-4.31,11.87h-11.19l20.35-52.25h11.16l20.92,52.25Zm-19.43-20.67l-7.2-19.39-7.06,19.39h14.26Z"/><path d="M301.55,279.5l-15.26-37.85h10.51l7.13,19.32,2.07,6.45c.55-1.64,.89-2.72,1.03-3.24,.33-1.07,.69-2.14,1.07-3.21l7.2-19.32h10.3l-15.04,37.85h-9.02Z"/><path d="M339.23,253.19l-9.09-1.64c1.02-3.66,2.78-6.37,5.28-8.13,2.5-1.76,6.2-2.64,11.12-2.64,4.47,0,7.79,.53,9.98,1.59,2.19,1.06,3.72,2.4,4.62,4.03,.89,1.63,1.34,4.62,1.34,8.96l-.11,11.69c0,3.33,.16,5.78,.48,7.36,.32,1.58,.92,3.27,1.8,5.08h-9.91c-.26-.67-.58-1.65-.96-2.96-.17-.59-.29-.99-.36-1.18-1.71,1.66-3.54,2.91-5.49,3.74-1.95,.83-4.03,1.25-6.24,1.25-3.9,0-6.97-1.06-9.21-3.17-2.25-2.12-3.37-4.79-3.37-8.02,0-2.14,.51-4.05,1.53-5.72,1.02-1.68,2.45-2.96,4.29-3.85,1.84-.89,4.5-1.67,7.97-2.33,4.68-.88,7.92-1.7,9.73-2.46v-1c0-1.93-.48-3.3-1.43-4.12-.95-.82-2.74-1.23-5.38-1.23-1.78,0-3.17,.35-4.17,1.05-1,.7-1.81,1.93-2.42,3.69Zm13.4,8.13c-1.28,.43-3.31,.94-6.09,1.53-2.78,.59-4.6,1.18-5.45,1.75-1.31,.93-1.96,2.1-1.96,3.53s.52,2.62,1.57,3.64c1.04,1.02,2.38,1.53,3.99,1.53,1.81,0,3.53-.59,5.17-1.78,1.21-.9,2.01-2.01,2.39-3.31,.26-.86,.39-2.48,.39-4.88v-2Z"/><path d="M372.34,236.51v-9.27h10.02v9.27h-10.02Zm0,42.99v-37.85h10.02v37.85h-10.02Z"/><path d="M392.62,279.5v-52.25h10.02v52.25h-10.02Z"/><path d="M420.39,253.19l-9.09-1.64c1.02-3.66,2.78-6.37,5.28-8.13,2.5-1.76,6.2-2.64,11.12-2.64,4.47,0,7.79,.53,9.98,1.59,2.19,1.06,3.72,2.4,4.62,4.03,.89,1.63,1.34,4.62,1.34,8.96l-.11,11.69c0,3.33,.16,5.78,.48,7.36,.32,1.58,.92,3.27,1.8,5.08h-9.91c-.26-.67-.58-1.65-.96-2.96-.17-.59-.29-.99-.36-1.18-1.71,1.66-3.54,2.91-5.49,3.74-1.95,.83-4.03,1.25-6.24,1.25-3.9,0-6.97-1.06-9.21-3.17-2.25-2.12-3.37-4.79-3.37-8.02,0-2.14,.51-4.05,1.53-5.72,1.02-1.68,2.45-2.96,4.29-3.85,1.84-.89,4.5-1.67,7.97-2.33,4.68-.88,7.92-1.7,9.73-2.46v-1c0-1.93-.48-3.3-1.43-4.12-.95-.82-2.75-1.23-5.38-1.23-1.78,0-3.17,.35-4.17,1.05-1,.7-1.81,1.93-2.42,3.69Zm13.4,8.13c-1.28,.43-3.32,.94-6.1,1.53-2.78,.59-4.6,1.18-5.45,1.75-1.31,.93-1.96,2.1-1.96,3.53s.52,2.62,1.57,3.64,2.38,1.53,3.99,1.53c1.81,0,3.53-.59,5.17-1.78,1.21-.9,2.01-2.01,2.39-3.31,.26-.86,.39-2.48,.39-4.88v-2Z"/><path d="M453.08,279.5v-52.25h10.02v18.82c3.09-3.52,6.75-5.28,10.98-5.28,4.61,0,8.42,1.67,11.44,5.01,3.02,3.34,4.53,8.13,4.53,14.38s-1.54,11.44-4.62,14.93c-3.08,3.49-6.81,5.24-11.21,5.24-2.16,0-4.29-.54-6.4-1.62-2.1-1.08-3.92-2.68-5.44-4.79v5.56h-9.3Zm9.95-19.75c0,3.92,.62,6.82,1.85,8.7,1.73,2.66,4.04,3.99,6.92,3.99,2.21,0,4.09-.94,5.65-2.83,1.56-1.89,2.33-4.87,2.33-8.93,0-4.32-.78-7.44-2.35-9.36s-3.58-2.87-6.02-2.87-4.4,.93-5.99,2.8-2.39,4.7-2.39,8.5Z"/><path d="M498.1,236.51v-9.27h10.02v9.27h-10.02Zm0,42.99v-37.85h10.02v37.85h-10.02Z"/><path d="M518.38,279.5v-52.25h10.02v52.25h-10.02Z"/><path d="M538.66,236.51v-9.27h10.02v9.27h-10.02Zm0,42.99v-37.85h10.02v37.85h-10.02Z"/><path d="M576.3,241.65v7.98h-6.84v15.26c0,3.09,.06,4.89,.2,5.4,.13,.51,.43,.93,.89,1.26,.46,.33,1.03,.5,1.69,.5,.93,0,2.27-.32,4.03-.96l.86,7.77c-2.33,1-4.97,1.5-7.91,1.5-1.81,0-3.43-.3-4.88-.91-1.45-.61-2.51-1.39-3.19-2.35-.68-.96-1.15-2.26-1.41-3.9-.21-1.16-.32-3.52-.32-7.06v-16.5h-4.6v-7.98h4.6v-7.52l10.05-5.85v13.37h6.84Z"/></g><g style="isolation:isolate;"><path d="M577.56,241.65h10.66l9.05,26.88,8.84-26.88h10.37l-13.37,36.43-2.39,6.59c-.88,2.21-1.72,3.9-2.51,5.06-.8,1.16-1.71,2.11-2.75,2.83-1.03,.72-2.31,1.29-3.81,1.69-1.51,.4-3.21,.61-5.12,.61s-3.81-.2-5.67-.61l-.89-7.84c1.57,.31,2.98,.46,4.24,.46,2.33,0,4.05-.68,5.17-2.05,1.12-1.37,1.97-3.11,2.57-5.22l-14.4-37.96Z"/></g><g style="isolation:isolate;"><path d="M3560.94,122.64h24.3c5.48,0,9.66,.42,12.53,1.26,3.86,1.14,7.17,3.16,9.93,6.06,2.75,2.91,4.85,6.46,6.29,10.67,1.44,4.21,2.16,9.4,2.16,15.57,0,5.42-.67,10.09-2.02,14.02-1.65,4.79-4,8.67-7.05,11.63-2.31,2.25-5.42,4-9.34,5.26-2.94,.93-6.86,1.39-11.77,1.39h-25.02V122.64Zm13.3,11.14v43.62h9.93c3.71,0,6.39-.21,8.04-.63,2.16-.54,3.95-1.45,5.37-2.74,1.42-1.29,2.58-3.41,3.48-6.36,.9-2.95,1.35-6.97,1.35-12.06s-.45-9-1.35-11.72c-.9-2.72-2.16-4.85-3.77-6.38s-3.67-2.56-6.15-3.1c-1.86-.42-5.5-.63-10.92-.63h-5.97Z"/><path d="M3636.77,155.35l-11.46-2.07c1.29-4.61,3.5-8.03,6.65-10.24,3.14-2.22,7.82-3.32,14.02-3.32,5.63,0,9.82,.67,12.58,2,2.75,1.33,4.69,3.03,5.82,5.08,1.12,2.05,1.68,5.82,1.68,11.3l-.13,14.73c0,4.19,.2,7.29,.61,9.28,.4,1.99,1.16,4.13,2.27,6.4h-12.49c-.33-.84-.73-2.08-1.21-3.73-.21-.75-.36-1.24-.45-1.48-2.16,2.1-4.46,3.67-6.92,4.72-2.46,1.05-5.08,1.57-7.86,1.57-4.91,0-8.78-1.33-11.61-4-2.83-2.67-4.25-6.03-4.25-10.11,0-2.7,.64-5.1,1.93-7.21,1.29-2.11,3.09-3.73,5.41-4.85,2.32-1.12,5.67-2.1,10.04-2.94,5.9-1.11,9.99-2.14,12.26-3.1v-1.26c0-2.43-.6-4.16-1.8-5.19-1.2-1.03-3.46-1.55-6.78-1.55-2.25,0-4,.44-5.26,1.33-1.26,.88-2.28,2.43-3.05,4.65Zm16.89,10.24c-1.62,.54-4.18,1.18-7.68,1.93-3.5,.75-5.79,1.48-6.87,2.2-1.65,1.17-2.47,2.65-2.47,4.45s.66,3.29,1.98,4.58c1.32,1.29,2.99,1.93,5.03,1.93,2.28,0,4.45-.75,6.51-2.25,1.53-1.14,2.53-2.53,3.01-4.18,.33-1.08,.49-3.13,.49-6.15v-2.52Z"/><path d="M3700.38,140.79v10.06h-8.62v19.23c0,3.89,.08,6.16,.25,6.81,.16,.64,.54,1.18,1.12,1.59,.58,.42,1.29,.63,2.13,.63,1.17,0,2.86-.4,5.08-1.21l1.08,9.79c-2.94,1.26-6.26,1.89-9.97,1.89-2.28,0-4.33-.38-6.15-1.15-1.83-.76-3.17-1.75-4.02-2.96s-1.45-2.85-1.77-4.92c-.27-1.47-.4-4.43-.4-8.89v-20.8h-5.79v-10.06h5.79v-9.48l12.67-7.37v16.85h8.62Z"/><path d="M3718.58,155.35l-11.46-2.07c1.29-4.61,3.5-8.03,6.65-10.24,3.14-2.22,7.82-3.32,14.02-3.32,5.63,0,9.82,.67,12.58,2,2.75,1.33,4.69,3.03,5.82,5.08,1.12,2.05,1.68,5.82,1.68,11.3l-.13,14.73c0,4.19,.2,7.29,.61,9.28,.4,1.99,1.16,4.13,2.27,6.4h-12.49c-.33-.84-.73-2.08-1.21-3.73-.21-.75-.36-1.24-.45-1.48-2.16,2.1-4.46,3.67-6.92,4.72-2.46,1.05-5.08,1.57-7.86,1.57-4.91,0-8.78-1.33-11.61-4-2.83-2.67-4.25-6.03-4.25-10.11,0-2.7,.64-5.1,1.93-7.21,1.29-2.11,3.09-3.73,5.41-4.85,2.32-1.12,5.67-2.1,10.04-2.94,5.9-1.11,9.99-2.14,12.26-3.1v-1.26c0-2.43-.6-4.16-1.8-5.19-1.2-1.03-3.46-1.55-6.78-1.55-2.25,0-4,.44-5.26,1.33-1.26,.88-2.28,2.43-3.05,4.65Zm16.89,10.24c-1.62,.54-4.18,1.18-7.68,1.93-3.5,.75-5.79,1.48-6.87,2.2-1.65,1.17-2.47,2.65-2.47,4.45s.66,3.29,1.98,4.58c1.32,1.29,2.99,1.93,5.03,1.93,2.28,0,4.45-.75,6.51-2.25,1.53-1.14,2.53-2.53,3.01-4.18,.33-1.08,.49-3.13,.49-6.15v-2.52Z"/></g><g style="isolation:isolate;"><path d="M3781.16,188.5V122.64h13.3v65.86h-13.3Z"/><path d="M3850.42,188.5h-12.62v-24.35c0-5.15-.27-8.48-.81-10-.54-1.51-1.42-2.69-2.63-3.53-1.21-.84-2.67-1.26-4.38-1.26-2.19,0-4.15,.6-5.88,1.8-1.74,1.2-2.93,2.79-3.57,4.76-.64,1.98-.97,5.63-.97,10.96v21.61h-12.62v-47.71h11.72v7.01c4.16-5.39,9.4-8.09,15.72-8.09,2.79,0,5.33,.5,7.64,1.5,2.31,1,4.05,2.28,5.23,3.84,1.18,1.56,2.01,3.32,2.47,5.3,.46,1.98,.7,4.81,.7,8.49v29.65Z"/><path d="M3885.1,140.79v10.06h-8.62v19.23c0,3.89,.08,6.16,.25,6.81,.16,.64,.54,1.18,1.12,1.59,.58,.42,1.29,.63,2.13,.63,1.17,0,2.86-.4,5.08-1.21l1.08,9.79c-2.94,1.26-6.26,1.89-9.97,1.89-2.28,0-4.33-.38-6.15-1.15-1.83-.76-3.17-1.75-4.02-2.96s-1.45-2.85-1.77-4.92c-.27-1.47-.4-4.43-.4-8.89v-20.8h-5.79v-10.06h5.79v-9.48l12.67-7.37v16.85h8.62Z"/><path d="M3921.49,173.32l12.58,2.11c-1.62,4.61-4.17,8.12-7.66,10.53-3.49,2.41-7.85,3.62-13.09,3.62-8.3,0-14.44-2.71-18.42-8.13-3.14-4.34-4.72-9.82-4.72-16.44,0-7.91,2.07-14.1,6.2-18.58,4.13-4.48,9.36-6.72,15.68-6.72,7.1,0,12.7,2.34,16.8,7.03,4.1,4.69,6.06,11.87,5.88,21.54h-31.62c.09,3.74,1.11,6.66,3.05,8.74,1.95,2.08,4.37,3.12,7.28,3.12,1.98,0,3.64-.54,4.99-1.62s2.37-2.81,3.05-5.21Zm.72-12.76c-.09-3.65-1.03-6.43-2.83-8.33-1.8-1.9-3.98-2.85-6.56-2.85-2.76,0-5.03,1-6.83,3.01-1.8,2.01-2.68,4.73-2.65,8.18h18.87Z"/><path d="M3943.86,191.64l14.42,1.75c.24,1.68,.79,2.83,1.66,3.46,1.2,.9,3.08,1.35,5.66,1.35,3.29,0,5.76-.49,7.41-1.48,1.11-.66,1.95-1.72,2.52-3.19,.39-1.05,.58-2.98,.58-5.79v-6.96c-3.77,5.15-8.54,7.73-14.29,7.73-6.41,0-11.49-2.71-15.23-8.13-2.94-4.28-4.4-9.61-4.4-15.99,0-8,1.92-14.11,5.77-18.33,3.85-4.22,8.63-6.33,14.35-6.33s10.77,2.59,14.6,7.77v-6.69h11.81v42.81c0,5.63-.46,9.84-1.39,12.62-.93,2.79-2.23,4.97-3.91,6.56-1.68,1.59-3.92,2.83-6.72,3.73-2.8,.9-6.34,1.35-10.62,1.35-8.09,0-13.82-1.39-17.21-4.16-3.38-2.77-5.08-6.28-5.08-10.53,0-.42,.01-.93,.04-1.53Zm11.28-27.99c0,5.06,.98,8.77,2.94,11.12,1.96,2.35,4.38,3.53,7.25,3.53,3.08,0,5.69-1.21,7.82-3.62,2.13-2.41,3.19-5.98,3.19-10.71s-1.02-8.61-3.05-11.01c-2.04-2.4-4.61-3.59-7.73-3.59s-5.52,1.18-7.48,3.53c-1.96,2.35-2.94,5.94-2.94,10.76Z"/><path d="M4013.31,188.5h-12.62v-47.71h11.72v6.78c2.01-3.2,3.81-5.32,5.41-6.33,1.6-1.02,3.42-1.53,5.46-1.53,2.88,0,5.64,.79,8.31,2.38l-3.91,11.01c-2.13-1.38-4.1-2.07-5.93-2.07s-3.26,.49-4.49,1.46c-1.23,.97-2.19,2.73-2.9,5.28-.7,2.55-1.06,7.88-1.06,15.99v14.73Z"/><path d="M4037.03,134.32v-11.68h12.62v11.68h-12.62Zm0,54.18v-47.71h12.62v47.71h-12.62Z"/><path d="M4084.47,140.79v10.06h-8.62v19.23c0,3.89,.08,6.16,.25,6.81,.16,.64,.54,1.18,1.12,1.59,.58,.42,1.29,.63,2.13,.63,1.17,0,2.86-.4,5.08-1.21l1.08,9.79c-2.94,1.26-6.26,1.89-9.97,1.89-2.28,0-4.33-.38-6.15-1.15-1.83-.76-3.17-1.75-4.02-2.96s-1.45-2.85-1.77-4.92c-.27-1.47-.4-4.43-.4-8.89v-20.8h-5.79v-10.06h5.79v-9.48l12.67-7.37v16.85h8.62Z"/><path d="M4087.25,140.79h13.43l11.41,33.87,11.14-33.87h13.07l-16.85,45.91-3.01,8.31c-1.11,2.79-2.16,4.91-3.17,6.38-1,1.47-2.16,2.66-3.46,3.57-1.3,.91-2.91,1.62-4.81,2.13-1.9,.51-4.05,.76-6.45,.76s-4.81-.25-7.14-.76l-1.12-9.88c1.98,.39,3.76,.58,5.35,.58,2.93,0,5.11-.86,6.51-2.58,1.41-1.72,2.49-3.92,3.23-6.58l-18.15-47.84Z"/></g><g style="isolation:isolate;"><path d="M3738.19,260.29l10.23,3.24c-1.57,5.7-4.18,9.94-7.82,12.71-3.65,2.77-8.28,4.15-13.88,4.15-6.94,0-12.64-2.37-17.11-7.11-4.47-4.74-6.7-11.22-6.7-19.44,0-8.7,2.25-15.45,6.74-20.26,4.49-4.81,10.4-7.22,17.71-7.22,6.39,0,11.58,1.89,15.58,5.67,2.38,2.23,4.16,5.44,5.35,9.62l-10.44,2.5c-.62-2.71-1.91-4.85-3.87-6.42-1.96-1.57-4.34-2.35-7.15-2.35-3.87,0-7.02,1.39-9.43,4.17-2.41,2.78-3.62,7.28-3.62,13.51,0,6.61,1.19,11.31,3.56,14.12,2.38,2.8,5.46,4.21,9.27,4.21,2.8,0,5.22-.89,7.24-2.67,2.02-1.78,3.47-4.58,4.35-8.41Z"/><path d="M3755.09,260.04c0-3.33,.82-6.55,2.46-9.66s3.96-5.49,6.97-7.13c3.01-1.64,6.36-2.46,10.07-2.46,5.73,0,10.42,1.86,14.08,5.58,3.66,3.72,5.49,8.42,5.49,14.1s-1.85,10.47-5.54,14.24-8.35,5.65-13.95,5.65c-3.47,0-6.78-.78-9.93-2.35s-5.54-3.87-7.18-6.9c-1.64-3.03-2.46-6.72-2.46-11.07Zm10.27,.53c0,3.76,.89,6.63,2.67,8.63s3.98,2.99,6.59,2.99,4.81-1,6.58-2.99,2.66-4.9,2.66-8.7-.89-6.56-2.66-8.55-3.96-2.99-6.58-2.99-4.81,1-6.59,2.99-2.67,4.87-2.67,8.62Z"/><path d="M3836.43,279.5h-10.02v-19.32c0-4.09-.21-6.73-.64-7.93s-1.12-2.13-2.08-2.8c-.96-.66-2.12-1-3.48-1-1.74,0-3.29,.48-4.67,1.43-1.38,.95-2.32,2.21-2.83,3.78-.51,1.57-.77,4.47-.77,8.7v17.14h-10.02v-37.85h9.3v5.56c3.3-4.28,7.46-6.42,12.48-6.42,2.21,0,4.23,.4,6.06,1.19,1.83,.8,3.21,1.81,4.15,3.05,.94,1.24,1.59,2.64,1.96,4.21,.37,1.57,.55,3.81,.55,6.74v23.53Z"/><path d="M3843.06,268.7l10.05-1.53c.43,1.95,1.29,3.43,2.6,4.44,1.31,1.01,3.14,1.51,5.49,1.51,2.59,0,4.54-.47,5.85-1.43,.88-.66,1.32-1.56,1.32-2.67,0-.76-.24-1.39-.71-1.89-.5-.47-1.62-.91-3.35-1.32-8.08-1.78-13.2-3.41-15.36-4.88-2.99-2.04-4.49-4.88-4.49-8.52,0-3.28,1.29-6.04,3.88-8.27,2.59-2.23,6.61-3.35,12.05-3.35s9.03,.84,11.55,2.53c2.52,1.69,4.25,4.18,5.2,7.49l-9.45,1.75c-.4-1.47-1.17-2.6-2.3-3.39-1.13-.78-2.74-1.18-4.83-1.18-2.64,0-4.53,.37-5.67,1.11-.76,.52-1.14,1.2-1.14,2.03,0,.71,.33,1.32,1,1.82,.9,.67,4.02,1.6,9.36,2.82s9.06,2.7,11.17,4.46c2.09,1.78,3.14,4.27,3.14,7.45,0,3.47-1.45,6.45-4.35,8.95-2.9,2.49-7.19,3.74-12.87,3.74-5.16,0-9.24-1.04-12.24-3.14-3.01-2.09-4.97-4.93-5.9-8.52Z"/><path d="M3887.19,236.51v-9.27h10.02v9.27h-10.02Zm0,42.99v-37.85h10.02v37.85h-10.02Z"/><path d="M3903.94,268.7l10.05-1.53c.43,1.95,1.29,3.43,2.6,4.44,1.31,1.01,3.14,1.51,5.49,1.51,2.59,0,4.54-.47,5.85-1.43,.88-.66,1.32-1.56,1.32-2.67,0-.76-.24-1.39-.71-1.89-.5-.47-1.62-.91-3.35-1.32-8.08-1.78-13.2-3.41-15.36-4.88-2.99-2.04-4.49-4.88-4.49-8.52,0-3.28,1.29-6.04,3.88-8.27,2.59-2.23,6.61-3.35,12.05-3.35s9.03,.84,11.55,2.53c2.52,1.69,4.25,4.18,5.2,7.49l-9.45,1.75c-.4-1.47-1.17-2.6-2.3-3.39-1.13-.78-2.74-1.18-4.83-1.18-2.64,0-4.53,.37-5.67,1.11-.76,.52-1.14,1.2-1.14,2.03,0,.71,.33,1.32,1,1.82,.9,.67,4.02,1.6,9.36,2.82s9.06,2.7,11.17,4.46c2.09,1.78,3.14,4.27,3.14,7.45,0,3.47-1.45,6.45-4.35,8.95-2.9,2.49-7.19,3.74-12.87,3.74-5.16,0-9.24-1.04-12.24-3.14-3.01-2.09-4.97-4.93-5.9-8.52Z"/><path d="M3965.43,241.65v7.98h-6.84v15.26c0,3.09,.06,4.89,.2,5.4,.13,.51,.43,.93,.89,1.26,.46,.33,1.03,.5,1.69,.5,.93,0,2.27-.32,4.03-.96l.86,7.77c-2.33,1-4.97,1.5-7.91,1.5-1.81,0-3.43-.3-4.88-.91-1.45-.61-2.51-1.39-3.19-2.35-.68-.96-1.15-2.26-1.41-3.9-.21-1.16-.32-3.52-.32-7.06v-16.5h-4.6v-7.98h4.6v-7.52l10.05-5.85v13.37h6.84Z"/><path d="M3994.3,267.45l9.98,1.67c-1.28,3.66-3.31,6.45-6.08,8.36-2.77,1.91-6.23,2.87-10.39,2.87-6.58,0-11.45-2.15-14.61-6.45-2.5-3.45-3.74-7.79-3.74-13.05,0-6.27,1.64-11.19,4.92-14.74s7.43-5.33,12.44-5.33c5.63,0,10.08,1.86,13.33,5.58,3.25,3.72,4.81,9.42,4.67,17.09h-25.09c.07,2.97,.88,5.28,2.42,6.93,1.54,1.65,3.47,2.48,5.77,2.48,1.57,0,2.89-.43,3.96-1.28s1.88-2.23,2.42-4.13Zm.57-10.12c-.07-2.9-.82-5.1-2.25-6.61-1.43-1.51-3.16-2.26-5.2-2.26-2.19,0-3.99,.8-5.42,2.39-1.43,1.59-2.13,3.75-2.1,6.49h14.97Z"/><path d="M4047.41,279.5h-10.02v-19.32c0-4.09-.21-6.73-.64-7.93s-1.12-2.13-2.08-2.8c-.96-.66-2.12-1-3.48-1-1.73,0-3.29,.48-4.67,1.43-1.38,.95-2.32,2.21-2.83,3.78-.51,1.57-.77,4.47-.77,8.7v17.14h-10.02v-37.85h9.3v5.56c3.3-4.28,7.46-6.42,12.48-6.42,2.21,0,4.23,.4,6.06,1.19s3.21,1.81,4.15,3.05c.94,1.24,1.59,2.64,1.96,4.21,.37,1.57,.55,3.81,.55,6.74v23.53Z"/><path d="M4090.57,252.84l-9.87,1.78c-.33-1.97-1.09-3.46-2.26-4.46-1.18-1-2.7-1.5-4.58-1.5-2.5,0-4.49,.86-5.97,2.58-1.49,1.72-2.23,4.6-2.23,8.64,0,4.49,.75,7.66,2.26,9.52,1.51,1.85,3.53,2.78,6.08,2.78,1.9,0,3.46-.54,4.67-1.62s2.07-2.94,2.57-5.58l9.84,1.68c-1.02,4.52-2.98,7.93-5.88,10.23-2.9,2.3-6.79,3.46-11.66,3.46-5.54,0-9.95-1.75-13.24-5.24-3.29-3.49-4.94-8.33-4.94-14.51s1.65-11.12,4.96-14.6c3.3-3.48,7.77-5.22,13.4-5.22,4.61,0,8.27,.99,11,2.98,2.72,1.98,4.67,5.01,5.86,9.07Z"/></g><g style="isolation:isolate;"><path d="M4092.76,242.65h10.66l9.05,26.88,8.84-26.88h10.37l-13.37,36.43-2.39,6.59c-.88,2.21-1.72,3.9-2.51,5.06-.8,1.16-1.71,2.11-2.74,2.83s-2.31,1.29-3.81,1.69c-1.51,.4-3.21,.61-5.12,.61s-3.81-.2-5.67-.61l-.89-7.84c1.57,.31,2.98,.46,4.24,.46,2.33,0,4.05-.68,5.17-2.05,1.12-1.37,1.97-3.11,2.57-5.22l-14.4-37.96Z"/></g></g></svg>